<svg width="203" height="66" viewBox="0 0 203 66" fill="none" xmlns="http://www.w3.org/2000/svg">
<path d="M202.185 46.981C201.771 44.6706 200.77 42.4486 199.217 40.3814C197.675 38.3308 195.646 36.5123 193.187 34.9647C190.407 33.2181 187.532 32.1402 184.642 31.7589C184.459 31.7368 184.277 31.7146 184.094 31.6981C181.005 31.383 178.164 31.8694 175.654 33.1462C173.985 33.9974 172.565 35.1692 171.393 36.6339C169.608 37.8223 168.154 39.4418 167.082 41.4813C165.805 43.9078 165.269 46.4835 165.484 49.1477C165.694 51.7234 166.562 54.183 168.06 56.4658C169.541 58.7154 171.498 60.5836 174.04 62.181C175.759 63.2588 177.65 64.1266 179.656 64.7677C180.9 65.1657 182.143 65.4476 183.343 65.6023C184.111 65.7074 184.885 65.7571 185.637 65.7626C186.123 65.7626 186.587 65.5305 186.869 65.127L187.615 64.0713C188.113 64.1155 188.616 64.1487 189.108 64.1487C189.616 64.1542 190.092 63.9055 190.385 63.4909L193.01 59.7711L196.503 54.8352C197.001 54.1333 196.829 53.166 196.133 52.6685C195.276 52.0605 194.591 51.5852 193.933 51.1264C194.806 51.0767 195.663 51.0325 196.835 50.9772C197.266 50.9551 197.669 50.7506 197.94 50.4134C198.211 50.0762 198.322 49.6396 198.244 49.214C198.228 49.12 198.206 49.0316 198.184 48.9431C198.941 48.8989 199.72 48.8602 200.726 48.8105C201.174 48.7939 201.588 48.5784 201.87 48.2301C202.152 47.8764 202.263 47.4231 202.185 46.981ZM188.776 49.5401L187.566 51.3696C187.505 51.3309 187.455 51.2978 187.394 51.2591C187.206 51.1319 186.985 51.049 186.764 51.0214C186.604 50.9993 186.433 51.0048 186.272 51.038C185.88 51.1154 185.537 51.3475 185.322 51.6791L183.846 53.9011L183.442 54.5091C182.884 54.2714 182.331 53.973 181.773 53.6247C180.458 52.7957 179.479 51.8505 178.772 50.7285C178.081 49.6285 177.727 48.501 177.683 47.2794C177.639 46.0524 177.937 44.8972 178.589 43.7475C178.689 43.5762 178.788 43.4104 178.899 43.2556C179.695 43.0013 180.552 42.9295 181.486 43.0234C181.552 43.0345 181.624 43.04 181.69 43.0511C182.989 43.2224 184.31 43.7254 185.62 44.5545C187.427 45.6876 188.682 47.191 189.379 49.015C189.141 49.1366 188.931 49.3135 188.776 49.5401ZM168.143 37.9992L162.295 49.7667C162.113 50.137 161.792 50.4189 161.4 50.5516C161.173 50.6234 160.935 50.6511 160.703 50.6179C160.615 50.6069 160.532 50.5903 160.454 50.5626L159.791 51.9002C159.614 52.254 159.299 52.5248 158.923 52.6519C158.708 52.7238 158.476 52.7459 158.249 52.7183C158.089 52.6962 157.928 52.6464 157.779 52.5746C155.988 51.6847 155.115 51.2646 153.308 50.4245C152.91 50.2365 152.617 49.8883 152.495 49.4682C151.152 44.6761 149.593 39.884 147.863 35.1471L145.194 42.0838C144.967 42.6642 144.431 43.0345 143.845 43.0732L143.298 44.4882C143.049 45.1459 142.38 45.5273 141.706 45.4389C141.59 45.4223 141.479 45.3946 141.363 45.3504C139.141 44.4937 138.047 44.0902 135.797 43.3053C135.421 43.1727 135.112 42.8963 134.94 42.537C134.769 42.1778 134.747 41.7688 134.874 41.3929L139.313 28.7189L143.193 17.6146C143.364 17.1282 143.762 16.791 144.221 16.6639L145.083 14.2043C145.332 13.4968 146.039 13.0822 146.752 13.1762C146.857 13.1928 146.962 13.2149 147.062 13.2536C149.278 14.0274 150.422 14.4419 152.617 15.2765C153.02 15.4313 153.341 15.7408 153.501 16.1388C155.883 21.9369 157.746 26.812 159.305 31.3277L162.157 25.1151C162.323 24.7503 162.621 24.4739 162.997 24.3302C163.224 24.2473 163.472 24.2197 163.71 24.2528L164.749 21.9866C164.92 21.6108 165.235 21.3178 165.622 21.1741C165.86 21.0857 166.12 21.0581 166.369 21.0912C166.518 21.1133 166.667 21.152 166.811 21.2184C169.375 22.3957 170.691 23.0258 173.217 24.2805C173.985 24.6618 174.3 25.596 173.919 26.3642L168.143 37.9992ZM137.234 25.3306L133.304 37.8278C133.155 38.3142 132.779 38.668 132.332 38.8227L131.84 40.3869C131.619 41.0889 130.928 41.5145 130.215 41.4205C130.132 41.4095 130.049 41.3929 129.96 41.3653C127.667 40.6467 126.539 40.3096 124.223 39.6573C123.836 39.5523 123.516 39.2981 123.317 38.9498C123.123 38.6016 123.073 38.1926 123.184 37.8112L126.627 25.513L129.983 13.5576C130.088 13.1872 130.32 12.8888 130.618 12.6953L131.375 9.998C131.591 9.24076 132.321 8.77094 133.078 8.87043C133.15 8.88149 133.221 8.89807 133.293 8.92018C136.018 9.68294 137.422 10.0975 140.125 10.9487C140.517 11.0703 140.844 11.3467 141.037 11.7115C141.225 12.0818 141.264 12.5074 141.142 12.8998L137.234 25.3306ZM124.682 30.1504C124.897 29.3213 124.4 28.4757 123.571 28.2546C120.476 27.4421 117.336 26.7014 114.186 26.0437C118.165 23.1363 122.222 20.3395 126.467 17.5814C126.782 17.3769 127.009 17.0618 127.103 16.697L127.755 14.1545C128.07 13.9445 128.297 13.6239 128.391 13.2536L129.363 9.45632C129.579 8.62723 129.076 7.78156 128.247 7.566C120.337 5.50985 112.041 3.87931 102.893 2.58593C102.893 2.58593 102.888 2.58593 102.882 2.58593C102.479 2.53065 102.07 2.6412 101.744 2.8844C101.412 3.13313 101.196 3.50345 101.141 3.91247L100.467 8.79858C100.428 9.06942 100.467 9.34025 100.566 9.58898L100.506 10.0477L100.179 12.3968C100.124 12.7948 100.229 13.1928 100.472 13.5133C100.716 13.8284 101.069 14.0384 101.467 14.0882C104.353 14.4806 107.249 14.9338 110.134 15.4589C106.099 18.51 102.191 21.6274 98.3278 24.8995C98.1454 25.0488 98.0072 25.2367 97.9133 25.4412C95.2326 17.5206 92.3031 9.79902 88.9923 1.95029C88.7767 1.43625 88.3069 1.08251 87.7597 1.01065C87.7321 1.01065 87.6989 1.00513 87.6657 1.00513C84.8523 0.806147 83.4761 0.728764 80.6571 0.618218C80.0713 0.596109 79.5185 0.905636 79.2366 1.41415C74.754 9.46738 70.7302 17.4211 66.955 25.6678C66.7063 19.0848 66.4521 12.5019 66.1978 5.9244C66.1757 5.33298 65.8164 4.84105 65.3134 4.61444C65.2803 3.76876 65.2471 2.92309 65.214 2.07742C65.1863 1.30913 64.6059 0.690072 63.8708 0.596109C63.7824 0.585055 63.6995 0.579526 63.611 0.585054C61.2841 0.667962 60.0791 0.723237 57.7632 0.866945C57.2547 0.894583 56.7904 1.17647 56.5251 1.6076C53.5293 6.53793 50.6883 11.612 48.0684 16.7192C44.3319 12.3139 40.3854 7.9916 36.3008 3.8572C36.0521 3.60847 35.737 3.45371 35.3998 3.40949C35.2506 3.39291 35.0958 3.39291 34.9466 3.41502C32.6141 3.7964 31.4092 4.01196 29.0932 4.44862C28.2476 4.60891 27.6948 5.42694 27.8551 6.26709L29.2148 13.4415L32.5644 31.0901C26.6502 23.3464 20.5425 16.0393 13.8932 8.74883C13.639 8.47247 13.3073 8.30112 12.9481 8.25691C12.7491 8.22927 12.5446 8.24033 12.3401 8.2956C9.55986 9.04178 8.2112 9.42869 5.45309 10.2688C4.90037 10.4347 4.48582 10.8989 4.37528 11.4738C2.56786 21.2681 1.21368 30.7805 0.240878 40.5528C0.191133 41.0834 0.41775 41.6085 0.837823 41.9346C1.05891 42.1059 1.3187 42.2109 1.584 42.2441C1.83273 42.2773 2.09251 42.2496 2.33019 42.1612C2.83869 41.9733 3.28088 41.8074 3.70648 41.6527C3.65673 42.1059 3.60699 42.5592 3.56277 43.0124C3.51302 43.5264 3.72859 44.0294 4.1376 44.35C4.35317 44.5103 4.60189 44.6153 4.85615 44.6485C5.09382 44.6761 5.34255 44.654 5.57469 44.5656C7.94589 43.6867 9.11215 43.2722 11.5055 42.4707C12.0692 42.2828 12.4727 41.7743 12.5225 41.1829C12.7049 39.1765 12.8154 38.0489 13.0089 36.3023C16.8061 35.0918 19.1165 34.4285 22.8861 33.4613C23.1404 33.7984 23.4167 34.1688 23.7263 34.5778C23.9473 34.8707 24.2624 35.0642 24.6051 35.1471C25.0804 35.7661 25.5724 36.4128 26.2025 37.253C26.4457 37.5846 26.8105 37.7891 27.2029 37.8389C27.3798 37.861 27.5677 37.8554 27.7446 37.8112C30.2318 37.2143 31.4478 36.9434 33.9572 36.4294C34.4602 36.3299 34.8803 35.9706 35.0572 35.4898C35.0848 35.4234 35.1014 35.3516 35.118 35.2853C35.223 35.4345 35.3556 35.5672 35.5049 35.6666C35.7038 35.8048 35.9249 35.8877 36.1516 35.9154C36.3118 35.9375 36.4721 35.932 36.6269 35.9043C38.8654 35.4787 39.9598 35.2853 42.2094 34.926C43.0275 34.7933 43.5857 34.025 43.4531 33.2125L41.9054 23.4735C44.039 25.8336 46.1172 28.249 48.107 30.6921C48.3558 30.9906 48.6985 31.1785 49.0743 31.2282C49.1959 31.2448 49.323 31.2448 49.4446 31.2282C50.539 31.1011 51.0752 31.0403 52.1751 30.9242C52.6892 30.869 53.1424 30.5539 53.369 30.0896C54.4855 27.7903 55.6573 25.502 56.8733 23.2248C56.9949 25.0322 57.1165 26.8341 57.2381 28.6415C57.2823 29.3324 57.7742 29.8796 58.4099 30.0399C58.443 30.5373 58.4762 31.0348 58.5094 31.5322C58.5536 32.2563 59.1118 32.8256 59.8083 32.9196C59.9022 32.9306 60.0017 32.9362 60.1012 32.9251C62.3563 32.7814 63.4618 32.7261 65.7169 32.6488C66.1149 32.6322 66.4908 32.4608 66.7616 32.1679C66.8942 32.0297 66.9937 31.8749 67.0601 31.6981C67.0932 31.7699 67.1264 31.8362 67.1706 31.897C67.4138 32.2674 67.8007 32.505 68.2263 32.5603C68.2982 32.5714 68.3755 32.5714 68.4529 32.5714C70.9181 32.5216 72.1175 32.5161 74.5827 32.5437C75.1852 32.5493 75.7323 32.201 75.9755 31.6483C76.7825 29.8188 77.2468 28.7907 77.9764 27.2099C81.9782 27.3149 84.3438 27.4421 88.3345 27.7737C88.8873 29.4208 89.2355 30.4931 89.8379 32.4056C90.0148 32.9638 90.4957 33.3618 91.0705 33.4392C91.0871 33.4392 91.1037 33.4447 91.1203 33.4447C93.6297 33.6934 94.8512 33.8316 97.3495 34.1577C97.5264 34.1798 97.7032 34.1743 97.8746 34.1356C98.0183 34.213 98.1786 34.2627 98.3499 34.2904C105.873 35.44 113.13 36.8716 120.536 38.6624C120.586 38.6735 120.641 38.6845 120.697 38.6901C121.437 38.7896 122.15 38.3197 122.338 37.5791L122.792 35.8269C123.107 35.6224 123.35 35.3074 123.449 34.9149L124.101 32.3945L124.682 30.1504ZM14.6394 24.181C14.6836 23.8991 14.7279 23.6061 14.7776 23.3077C14.96 23.5343 15.1479 23.7554 15.3414 23.9875C15.0982 24.0538 14.8716 24.1202 14.6394 24.181ZM34.1838 33.196C34.3054 33.2015 34.4215 33.2015 34.5431 33.1794C34.5542 33.1738 34.5708 33.1738 34.5818 33.1683L34.72 33.8924C34.5431 33.6547 34.3607 33.4281 34.1838 33.196ZM67.1319 30.2886C67.1209 30.0786 67.1153 29.8685 67.1043 29.6585C67.1761 29.6806 67.2425 29.7027 67.3143 29.7082C67.3419 29.7138 67.3696 29.7138 67.3917 29.7138C67.3033 29.9072 67.2148 30.0952 67.1319 30.2886ZM83.1721 16.6805C83.3876 16.2714 83.6032 15.8569 83.8353 15.4202C84.0177 15.879 84.1891 16.3157 84.3549 16.7523C83.9569 16.7247 83.5645 16.7026 83.1721 16.6805Z" fill="black"/>
</svg>
