<svg width="324" height="209" viewBox="0 0 324 209" fill="none" xmlns="http://www.w3.org/2000/svg">
    <g clip-path="url(#clip0_104_144)">
        <path
            d="M263.495 130.441H70.3833C54.6498 130.441 41.7576 115.667 41.7576 97.6399C41.7576 79.5812 54.6498 64.8391 70.3833 64.8391H263.466C279.227 64.8391 292.12 79.5812 292.12 97.6399C292.12 115.684 279.227 130.441 263.495 130.441Z"
            fill="#7499FF" />
        <mask id="mask0_104_144" style="mask-type:luminance" maskUnits="userSpaceOnUse" x="37"
            y="62" width="257" height="70">
            <path d="M37.9502 62.0469H293.414V131.779H37.9502V62.0469Z" fill="white" />
        </mask>
        <g mask="url(#mask0_104_144)">
            <path
                d="M285.962 75.2794L285.976 75.2624L275.417 62.0681L273.688 63.8894L275.84 66.5796C272.071 64.5981 267.881 63.4869 263.466 63.4869H70.3834C53.9605 63.4869 40.6038 78.8229 40.6038 97.6399C40.6038 101.587 41.1943 105.39 42.2777 108.918L39.7044 105.712L37.9749 107.532L47.255 119.116C52.7103 126.832 61.0477 131.779 70.3834 131.779H263.495C279.916 131.779 293.245 116.441 293.245 97.6243C293.245 89.0861 290.503 81.2721 285.962 75.2794ZM256.759 129.12L247.241 117.246L245.512 119.068L253.569 129.12H240.183L230.679 117.263L228.949 119.083L236.991 129.12H223.762L214.243 117.231L212.514 119.051L220.584 129.104H207.312L197.793 117.231L196.064 119.051L204.12 129.104H190.58L181.062 117.231L179.332 119.051L187.389 129.104H173.85L164.345 117.246L162.615 119.068L170.657 129.104H157.146L147.628 117.231L145.898 119.051L153.954 129.104H140.415L130.896 117.231L129.167 119.051L137.224 129.104H123.684L114.179 117.246L112.45 119.068L120.492 129.104H106.981L97.4624 117.231L95.7329 119.068L103.789 129.12H90.2492L80.7455 117.246L79.016 119.068L87.0718 129.104H73.5743L64.0558 117.231L62.2979 119.051L70.3549 129.104C62.8328 129.089 56.0137 125.607 51.0648 119.969L51.0932 119.937L48.8856 117.198C45.1598 111.833 42.9238 105.034 42.9238 97.6399C42.9238 80.2728 55.2267 66.1771 70.3549 66.1771H263.466C271.114 66.1771 278.032 69.7687 283.023 75.553L284.233 77.0667C287.13 80.9177 289.238 85.5738 290.25 90.6962L283.023 81.6746L281.294 83.4959L290.855 95.4331C290.897 96.1587 290.926 96.8986 290.926 97.6399C290.926 100.557 290.574 103.376 289.926 106.051L281.435 95.4657L279.705 97.2856L289.069 108.982C287.832 112.639 286.018 115.974 283.741 118.825L274.756 107.613L273.027 109.434L282.082 120.743C279.495 123.481 276.444 125.673 273.084 127.123L263.748 115.475L262.018 117.295L270.623 128.024C268.331 128.733 265.927 129.12 263.438 129.12H256.759Z"
                fill="#040000" />
        </g>
        <path
            d="M253.681 118.18H60.5548C44.8225 118.18 31.9439 103.424 31.9439 85.3796C31.9439 67.3209 44.8225 52.5632 60.5548 52.5632H253.666C269.4 52.5632 282.292 67.3365 282.292 85.3641C282.292 103.424 269.413 118.18 253.681 118.18Z"
            fill="#F4F4F4" />
        <path
            d="M103.817 52.5632H60.5548C44.8225 52.5632 31.9439 67.3209 31.9439 85.3485C31.9439 103.376 44.8361 118.149 60.5696 118.149H103.789V52.5632H103.817Z"
            fill="#7499FF" />
        <mask id="mask1_104_144" style="mask-type:luminance" maskUnits="userSpaceOnUse" x="30"
            y="51" width="254" height="69">
            <path d="M30.6764 51.2267H283.678V119.74H30.6764V51.2267Z" fill="white" />
        </mask>
        <g mask="url(#mask1_104_144)">
            <path
                d="M253.681 51.2267H60.5548C44.1332 51.2267 30.7765 66.4989 30.7765 85.3485C30.7765 104.197 44.1332 119.503 60.5548 119.503H253.666C270.089 119.503 283.446 104.166 283.446 85.3485C283.446 66.5315 270.103 51.2267 253.681 51.2267ZM60.5832 116.828C45.4266 116.828 33.1249 102.699 33.1249 85.3641C33.1249 68.0296 45.4266 53.9169 60.5548 53.9169H102.65V116.811H60.5832V116.828ZM253.681 116.828H104.942V53.8843H253.666C268.823 53.8843 281.126 68.0126 281.126 85.3485C281.139 102.716 268.809 116.828 253.681 116.828Z"
                fill="#3A3A3A" />
        </g>
        <path
            d="M171.728 70.64V104H166.256V81.152L156.08 104H152.288L142.064 81.152V104H136.592V70.64H142.496L154.208 96.8L165.872 70.64H171.728ZM181.704 74.048C180.712 74.048 179.88 73.712 179.208 73.04C178.536 72.368 178.2 71.536 178.2 70.544C178.2 69.552 178.536 68.72 179.208 68.048C179.88 67.376 180.712 67.04 181.704 67.04C182.664 67.04 183.48 67.376 184.152 68.048C184.824 68.72 185.16 69.552 185.16 70.544C185.16 71.536 184.824 72.368 184.152 73.04C183.48 73.712 182.664 74.048 181.704 74.048ZM184.392 77.552V104H178.92V77.552H184.392ZM204.921 77.12C207.001 77.12 208.857 77.552 210.489 78.416C212.153 79.28 213.449 80.56 214.377 82.256C215.305 83.952 215.769 86 215.769 88.4V104H210.345V89.216C210.345 86.848 209.753 85.04 208.569 83.792C207.385 82.512 205.769 81.872 203.721 81.872C201.673 81.872 200.041 82.512 198.825 83.792C197.641 85.04 197.049 86.848 197.049 89.216V104H191.577V77.552H197.049V80.576C197.945 79.488 199.081 78.64 200.457 78.032C201.865 77.424 203.353 77.12 204.921 77.12ZM229.132 82.016V96.656C229.132 97.648 229.356 98.368 229.804 98.816C230.284 99.232 231.084 99.44 232.204 99.44H235.564V104H231.244C228.78 104 226.892 103.424 225.58 102.272C224.268 101.12 223.612 99.248 223.612 96.656V82.016H220.492V77.552H223.612V70.976H229.132V77.552H235.564V82.016H229.132Z"
            fill="black" />
    </g>
    <defs>
        <clipPath id="clip0_104_144">
            <rect width="324" height="209" fill="white" />
        </clipPath>
    </defs>
</svg>