<svg width="272" height="48" viewBox="0 0 272 48" fill="none" xmlns="http://www.w3.org/2000/svg">
<mask id="mask0_115_2644" style="mask-type:luminance" maskUnits="userSpaceOnUse" x="-1" y="-4" width="275" height="64">
<path d="M-0.635361 12.0107L270.582 -3.79175L273.363 43.881L2.14486 59.689L-0.635361 12.0107Z" fill="white"/>
</mask>
<g mask="url(#mask0_115_2644)">
<mask id="mask1_115_2644" style="mask-type:luminance" maskUnits="userSpaceOnUse" x="-1" y="-4" width="275" height="64">
<path d="M-0.635361 12.0107L270.582 -3.79175L273.363 43.881L2.14486 59.689L-0.635361 12.0107Z" fill="white"/>
</mask>
<g mask="url(#mask1_115_2644)">
<path d="M270.251 6.47784L269.808 2.1113C265.392 1.87915 262.75 2.76904 258.837 2.81326C258.853 2.07814 254.852 1.70228 252.823 1.57515L252.878 1.44803C246.937 1.30985 242.752 1.97864 237.258 2.23843C233.842 1.39828 225.668 1.87915 220.196 1.40381C221.058 1.53646 220.046 2.02286 219.068 2.07814C217.775 1.90679 215.492 2.65297 215.696 1.96759L216.188 2.00075C215.232 1.32643 212.551 1.54199 210.473 1.54199L210.213 2.40977C207.488 1.77414 203.945 1.92337 200.718 2.1721C197.484 2.36003 194.56 2.59217 193.057 2.06708C191.791 2.32686 190.138 2.36003 188.867 2.61981L188.9 2.12788C185.285 2.09472 183.45 2.07814 179.001 2.39872L179.896 2.03944C177.392 2.12788 176.746 3.5705 174.424 3.70315L173.711 3.01224C169.312 3.1449 164.823 2.73588 160.529 3.59814C160.579 3.47101 160.695 3.28308 161.419 3.17806C159.34 3.23886 153.393 3.03988 154.189 4.02926C154.09 3.36046 149.668 4.16744 147.308 4.60963L147.645 4.10664C145.666 4.83072 145.616 5.01864 142.819 5.36134C142.145 5.33923 142.189 5.03523 143.112 5.10155C140.901 4.98548 141.432 5.68744 138.729 5.53821L139.685 5.17894C137.425 5.25079 137.618 5.42214 136.364 5.85879C134.971 6.1241 132.025 6.05224 131.699 5.64323C131.406 5.90301 130.212 6.40046 128.863 6.35624C128.67 6.1849 129.15 6.09646 129.394 6.02461C125.596 5.93617 123.817 6.95872 121.169 6.68235C121.097 6.50548 120.909 6.45574 120.727 6.40599C123.468 6.2457 125.79 6.10752 125.972 6.10199C125.884 5.67639 123.502 5.75377 125.42 5.03523C123.491 5.51057 120.174 6.43915 117.792 6.45573C117.665 6.40046 117.543 6.40599 117.477 6.35072L117.72 6.27333C117.167 6.2457 116.681 6.33413 116.2 6.48337C115.465 6.46679 114.973 6.43363 114.243 6.53864C113.917 6.19043 111.43 6.58286 110.214 6.64919C110.363 7.13006 108.771 7.16323 110.258 7.43959C110.07 7.38984 110.501 7.36773 111.286 7.26272C111.469 7.25166 111.712 7.17428 111.773 7.16875C111.773 7.16875 111.712 7.17428 111.717 7.23508C112.508 7.19086 113.541 7.06926 114.697 6.94213C113.735 7.24061 112.773 7.53908 111.419 7.37326C110.828 7.71595 110.175 8.11944 109.822 8.32395C108.136 7.74912 104.886 7.69384 104.372 7.29588C100.724 7.69384 95.7326 8.10839 93.4719 9.21384C92.4438 9.45704 92.2338 9.0425 91.8027 8.94301C92.4052 8.78824 93.1348 8.74402 93.4332 8.60584C91.3771 9.03144 87.2316 9.27464 86.7839 9.97108C84.0866 9.94344 88.2044 9.21384 84.562 9.67261L85.0318 9.40177C77.7966 9.15304 73.5682 12.2041 65.5316 11.8172C66.0843 11.8448 66.3883 11.8282 66.5154 11.9443C61.9388 12.2096 57.3291 12.8453 52.7138 13.4809C48.0986 14.1165 43.4888 14.813 38.962 14.8904C36.4029 15.0396 36.1818 15.4818 34.6839 15.9958L34.0427 15.5426L31.467 16.4877C27.7858 17.4329 24.8343 16.1395 20.2079 17.6319L20.8989 17.8972C19.1965 18.0575 15.5706 18.881 15.7917 18.4389C15.6093 18.5107 15.2666 18.8976 14.5867 18.8147L14.5149 18.5715L10.4136 19.6659C7.1249 19.981 10.7729 18.4886 6.04155 19.1906C4.28388 19.5388 1.17203 20.7548 1.85188 20.8377C2.58148 20.7327 3.68141 20.7327 3.75879 20.9704L2.18904 21.3683C2.05639 22.2306 0.950935 23.2089 4.92504 23.1591L7.56708 22.2748L8.50119 22.5235L6.19632 22.9049C7.5505 23.0652 8.31879 22.5954 9.21973 22.2361C9.47399 22.4074 9.84431 22.5069 10.4578 22.4738L13.017 21.2854C13.4039 21.5673 11.9005 22.0813 13.73 21.9763C14.9239 21.4181 12.4145 21.4402 14.4651 20.893C15.8193 21.0588 15.4711 21.3849 16.9745 20.8709C17.2287 21.0422 16.9303 21.2412 16.3278 21.3959C17.6488 20.9538 19.9647 20.7603 20.6059 20.2297C22.0319 20.5171 25.2157 19.478 25.1991 20.2684C25.6136 20.0031 27.5316 19.3398 28.8084 19.1463C26.6141 20.3679 33.5453 18.5605 33.0533 19.5664C34.6452 18.4997 39.1665 18.356 42.118 17.5766C41.9412 17.7093 41.5874 17.9138 41.3387 17.864C43.0411 17.7037 43.5441 17.9193 44.7103 17.9138C44.854 17.2339 47.4519 16.7144 48.8226 16.0842C50.9893 16.449 47.6564 17.0681 48.3583 17.5766C48.2091 17.0405 51.9124 16.5762 51.1551 16.1948C52.8188 16.4048 52.5646 16.2335 53.449 16.6701C53.6424 15.8079 54.8971 16.344 56.2071 15.6586C58.5396 15.8245 56.9201 16.3496 59.3963 15.8355C60.6289 15.9461 58.3959 16.5043 58.3959 16.5043C60.9495 16.2335 59.5179 15.7692 60.043 15.3104C63.1327 14.7632 61.5243 15.5923 62.58 15.8355C64.4538 15.421 65.8798 14.6637 67.339 14.52C67.4661 14.6361 67.7148 14.6195 67.4164 14.7577C69.3896 14.0336 73.4356 14.1055 75.7681 13.1714C75.956 13.2266 76.0168 13.2819 76.0776 13.2764C75.6354 13 75.558 12.696 75.6023 12.4528C76.7575 12.3257 77.7081 11.8393 78.2167 12.1765C77.4871 12.2207 77.4373 12.4031 77.1444 12.6076L78.3493 12.2925C79.4769 12.7734 76.7188 12.6905 76.7464 13.1161C79.1065 12.6739 81.8149 11.9056 83.65 11.8614C84.1087 12.381 79.405 12.5357 81.9255 12.7568L79.1121 12.7955C81.3561 13.5196 77.4041 12.895 79.4713 13.6909C83.1912 13.4754 83.5892 12.9613 87.2482 12.7513C88.022 12.3368 86.9166 12.2815 87.7512 11.8669C92.9468 10.767 92.0348 12.9558 95.8265 11.8227C96.7772 11.3418 97.0978 10.5901 99.8559 10.673L98.9826 11.3916C102.575 11.1263 100.934 10.2419 104.737 10.3856C104.084 10.7283 101.951 10.8554 102.503 10.8831C104.969 11.2258 104.184 10.358 106.074 10.1866L106.533 10.7725C110.369 10.3635 114.481 9.57312 118.743 9.14199C118.51 9.34097 117.786 9.56759 118.837 9.68919C124.076 9.26359 130.129 9.21384 135.33 9.21384L137.253 8.6169C137.745 8.58373 138.127 8.81035 137.64 8.89879C139.663 8.96512 137.745 8.58373 138.646 8.29079C139.802 8.16366 140.188 8.50635 139.464 8.66664C142.974 8.03653 149.469 7.10795 153.288 7.49486L152.564 7.66068C155.504 7.73253 155.797 6.43363 158.511 6.82606L158.025 6.9145C161.209 6.8537 164.497 6.66024 167.676 6.53864C170.787 6.41704 173.783 6.36177 176.193 6.70999C177.066 5.93064 182.444 6.83712 182.809 5.77588C186.446 6.17384 185.413 6.35624 190.509 6.6105C191.857 6.65472 192.487 5.94723 194.195 5.78693L194.223 6.33413L196.517 5.70955L197.711 6.31203L199.297 6.15726C198.684 6.13515 197.937 5.93064 198.048 5.80352C200.48 5.47741 204.062 6.0633 204.139 6.3065L209.92 5.78141C209.81 5.97486 209.268 6.06883 208.66 6.16279C210.844 5.85326 208.876 6.75974 211.485 6.30097C211.109 6.20148 211.711 5.98592 211.761 5.85879C213.187 6.14068 216.432 6.13515 218.808 5.93617L218.339 6.32861C222.628 6.38388 227.447 6.10752 232.284 6.12963C230.559 5.98592 230.946 5.28948 232.356 5.26737L232.936 5.84773C233.837 5.48846 231.455 5.62664 233.328 5.2121C235.108 5.29501 234.533 5.87537 233.5 6.05777L235.694 5.86984C235.827 6.04119 235.28 6.13515 235.169 6.32861C236.064 5.96934 238.939 6.89792 240.249 6.33413L240.381 6.51101C243.079 6.53864 244.974 6.4889 246.743 6.44468C246.622 6.45021 246.439 6.46126 246.318 6.47232C244.858 6.61603 243.526 6.87581 242.382 7.24613L242.625 7.17428C241.056 7.57224 239.425 7.97021 237.855 8.30737C235.6 8.4953 239.171 7.79886 237.452 7.71595C234.865 8.41792 232.798 8.66112 230.847 8.77719C228.89 8.88774 227 8.99828 224.888 9.49021C223.147 9.0425 220.163 9.27464 217.062 9.63944C213.961 10.0042 210.678 10.3138 208.4 10.0816L208.66 10.3746C207.516 10.7449 207.245 10.2696 206.389 10.2585C206.527 10.4962 207.682 10.4298 206.963 10.6565C197.047 11.6569 186.38 11.364 176.16 11.4137C172.429 11.4469 174.115 13.0553 169.372 12.5413L170.682 11.9167C163.149 12.8397 155.223 12.3865 147.871 13.2432C148.291 13.0995 148.341 12.9116 149.01 12.8729C147.462 12.5357 143.206 13.0885 143.228 13.3925C142.062 13.398 142.963 13.105 142.222 12.9613C140.62 12.8121 138.287 13.6799 137.469 13.2985C137.342 13.2488 137.585 13.2322 137.828 13.1603C136.491 13.3593 133.489 13.2874 134.435 13.7241C131.61 13.6412 129.134 14.216 126.862 14.0392C125.431 14.6748 122.087 14.0115 121.644 14.8351C121.783 14.0336 116.731 14.509 114.984 14.9788C115.575 14.6969 113.442 14.824 114.094 14.4813C112.088 14.6582 110.269 14.9456 110.656 15.2883C106.881 14.5974 103.333 16.6922 101.127 15.6642C95.2517 16.6757 89.73 17.549 84.4625 18.4665C84.5343 17.665 90.349 17.6319 90.0008 16.8581C87.4583 17.3721 85.5292 17.853 83.5339 18.273C81.5385 18.7539 79.604 19.174 77.1112 19.4393C75.7681 19.5222 77.8187 18.975 78.2388 18.8258C73.22 19.9146 68.4721 20.3126 64.0834 21.6668C64.0779 21.606 64.5588 21.396 64.9788 21.2467C64.1276 21.4181 62.9116 21.5507 63.0554 21.8492L63.8955 21.617C65.3768 21.8326 60.6289 23.3305 60.5239 23.64C61.7951 22.2858 56.102 24.3862 58.1969 22.5567C57.6607 22.7722 56.9422 23.0597 57.1412 23.2918C56.29 23.4023 55.9804 23.3581 56.7487 22.8883C53.6811 23.7948 54.8474 23.8501 52.0119 24.5631C52.0008 24.3807 52.537 24.1706 52.7691 23.9109C51.4039 24.6018 50.0939 25.2871 47.673 25.7349C47.789 25.6022 47.6011 25.5525 47.9604 25.4087C46.0314 25.9504 44.4174 26.5916 42.8034 27.2383C41.0679 27.9458 39.266 28.5427 37.0385 29.101C38.1329 27.9955 35.4577 29.311 35.0597 28.7859L32.6111 29.8471H33.6503C31.5444 30.4551 29.8973 31.5882 28.0843 31.9973L29.5048 31.1847L25.7407 32.6882L27.6698 32.2073C26.8351 32.561 26.1829 32.9645 24.4805 33.1248L24.4916 33.368C24.4308 33.3735 24.3147 33.4399 24.2539 33.4454L24.7348 35.3689C24.7956 35.3634 24.9172 35.3578 24.9725 35.2915L25.0498 35.5347C25.1714 35.5237 25.2875 35.4573 25.4091 35.4518C25.2875 35.4573 25.1604 35.4021 25.0333 35.2915C25.0941 35.286 25.2157 35.2805 25.2765 35.2141C25.2157 35.2197 25.0941 35.2252 24.9669 35.2307C24.9006 35.1146 24.8951 34.993 25.1825 34.7333C25.7352 34.7001 26.2271 34.7333 26.6583 34.8272C26.9623 34.7498 27.2607 34.6725 27.5592 34.5343C27.4984 34.5343 27.5039 34.5951 27.5039 34.5951C27.62 34.5287 27.6808 34.5232 27.8024 34.4569C28.0401 34.3795 28.2833 34.3077 28.5873 34.2911C28.5265 34.3519 28.4104 34.4237 28.2888 34.4293C27.7527 34.6448 27.5039 34.6559 27.5039 34.5951C26.8517 34.9378 25.9508 35.297 26.8683 35.2418L27.0949 34.9267C27.9461 34.8162 29.8033 34.1584 30.4113 34.0589C30.7871 34.2247 30.146 34.8106 30.4002 34.9157C31.4007 34.2469 35.3693 34.1363 36.6792 33.4509C36.2591 33.6002 36.2812 33.965 36.4029 34.0147L37.2319 33.4786C38.2158 33.5449 38.3982 33.5946 38.2324 33.8489C41.2226 33.6775 37.2098 33.1138 40.8247 33.1469C40.5207 33.2298 40.7086 33.2796 40.1006 33.3735C41.8749 33.3293 43.6325 33.0474 45.2741 32.8871C46.9765 32.7269 48.6181 32.5113 50.2708 32.5389C51.2878 33.1469 47.4187 32.8871 48.5463 33.368C50.923 33.169 53.3439 32.7269 55.7815 32.5223C58.2135 32.257 60.651 32.0525 62.9116 32.047L62.0549 32.0359C62.3368 31.5882 63.1991 31.6601 64.3045 31.7817C65.3547 31.9641 66.6536 32.1907 67.8033 31.942C67.2561 32.0359 67.0405 32.4781 67.2174 32.3455C70.3458 32.4671 73.6235 32.0304 78.4488 31.8701L77.8519 32.0912C79.698 32.3455 82.7601 32.2902 84.7278 32.4837C85.3247 32.2626 86.4965 32.3786 85.8001 31.9917C88.8511 32.854 91.8414 32.7379 94.6548 32.6992C97.5345 32.7103 100.342 32.6716 103.023 33.4288C102.349 33.4067 101.437 33.5228 101.989 33.5504C103.521 33.5836 105.118 33.672 106.649 33.766C106.323 33.357 106.08 33.4343 105.14 33.064C105.742 32.9037 107.086 32.8263 108.257 32.9424C106.118 33.0032 108.23 33.5559 109.103 33.871C108.976 33.7549 109.274 33.6167 109.208 33.4951C111.59 34.4569 109.711 32.7324 112.945 33.5836L112.773 33.777C114 33.8268 115.216 33.6941 116.515 33.9263C117.035 34.4458 115.166 33.9429 115.006 34.3187C116.852 34.5177 118.837 33.9097 120.473 34.6117C119.677 34.6559 118.505 34.479 117.715 34.5287C119.472 35.3413 119.71 35.2031 121.075 35.4905L120.948 35.4352C122.004 35.6784 123.054 35.8608 124.049 36.1095L123.236 35.8498C125.757 35.0317 128.039 36.3638 131.328 36.1095C128.161 36.3583 130.737 36.4522 130.4 36.9607C131.151 37.2205 132.395 37.5743 131.969 37.6627C133.556 37.5079 134.401 38.4365 136.596 38.2486C136.668 38.4255 138.143 38.5802 137.734 38.9119C139.708 39.1606 137.347 38.5084 137.519 38.3757C139.05 38.3481 140.791 38.8566 142.659 39.3596C144.527 39.9178 146.517 40.4761 148.723 40.5314C152.487 40.9791 153.26 40.6309 156.72 41.1615C157.793 41.7087 155.637 41.5318 155.637 41.5318C157.389 42.2227 158.815 42.5046 160.606 42.7644C160.241 42.8473 160.556 43.0131 161.01 43.3503C162.43 43.6377 162.087 42.9855 163.845 43.7372C163.48 43.8201 163.005 44.0301 162.27 44.0135C163.939 44.2789 165.597 44.4281 167.333 44.7542C167.72 45.1577 166.178 44.8813 165.564 44.9145C167.488 45.2959 170.528 46.031 171.246 45.7436L170.367 45.3677C170.561 45.5391 170.207 45.7436 169.77 45.6496C168.051 45.5667 167.46 44.8703 167.449 44.6271L168.682 44.8592C167.753 43.5714 163.84 43.6764 161.413 42.9634L162.613 42.5267C161.75 42.4549 160.838 42.5101 159.976 42.4383C159.468 42.1011 159.252 41.6258 160.429 41.8579C158.793 41.1007 158.832 41.7087 157.445 40.9957C157.312 40.8851 157.373 40.8796 157.555 40.8685L155.77 40.6695C156.135 40.5866 155.615 40.1279 156.615 40.4374C153.669 39.2656 151.558 39.752 150.53 38.9616L150.773 38.945C146.451 38.2818 150.248 39.343 146.876 39.2933L145.003 37.5743L144.478 37.9722C144.041 37.8727 143.168 37.6185 143.4 37.425C141.686 37.4029 143.665 37.7125 142.631 37.8341C140.559 36.9773 136.706 36.9607 136.402 35.999C135.562 36.2311 138.403 36.6789 136.065 36.5075C135.579 35.496 133.412 36.1151 131.533 35.4297C132.19 35.087 134.053 35.59 132.119 34.9046C130.803 35.4739 128.338 34.1529 126.619 34.0092C126.47 34.6282 122.988 33.672 120.163 33.5283C120.395 33.3349 114.962 32.4892 112.359 31.9696L112.475 31.8425C111.9 32.4229 109.241 32.0304 107.279 31.9586C107.379 31.5882 107.743 31.5053 108.843 31.4445L106.992 31.2455C106.511 31.3948 105.964 31.4279 104.737 31.3782L105.262 30.9194C102.802 30.6983 100.254 31.0908 97.1586 30.5381C96.943 30.9747 99.5685 31.9807 96.2024 31.9973C96.0697 31.7596 95.9813 31.3395 96.8988 31.2842C96.5948 31.3008 95.8652 31.4058 95.307 31.2566L96.6943 30.9305C95.2683 30.6486 95.915 31.2179 94.7432 31.1074C94.7874 30.737 93.9307 30.7868 94.102 30.5325C94.406 30.5159 95.0914 30.7205 95.5115 30.632C94.2181 30.4662 92.6705 30.1898 92.1675 29.9135C92.2393 30.0903 92.1343 30.4054 91.2168 30.3943C88.7627 30.2949 90.3932 29.9577 88.9672 29.6703C88.3703 29.8914 86.8226 29.5542 86.7287 30.0461C85.9935 30.0295 85.8553 29.7919 85.6011 29.6261C84.3243 29.7587 79.6593 29.5431 81.0356 30.0738L81.3451 30.118C81.2843 30.118 81.2235 30.1235 81.1627 30.129C79.0955 30.3722 76.8846 30.2562 74.7345 30.0738C72.5844 29.9577 70.4343 29.8361 68.3615 29.9577L68.3505 29.7753C67.1345 29.9079 65.725 29.9301 64.4482 30.0019C63.1659 30.0793 61.9499 30.2119 61.1042 30.4441C60.3746 30.4828 59.3797 30.1788 59.6727 29.9743C57.7823 30.1456 57.6165 30.3999 54.8474 30.1954C56.7266 29.8416 54.162 29.9301 56.793 29.9024C54.3388 29.8582 53.7751 29.5874 51.1164 30.2285C52.0063 29.7532 49.2538 29.7919 48.1041 29.9798L50.0386 30.6597C48.701 30.7978 47.6066 30.8642 46.4404 30.8697L47.0152 30.223C44.4948 30.0074 42.201 30.5657 40.1448 30.9913C39.1775 31.1682 38.2711 31.345 37.3591 31.4611C40.7915 30.527 38.6525 30.5933 41.3553 29.7034C43.1185 29.5376 40.9794 30.5767 43.7928 29.4989C45.6113 29.2115 44.3069 29.8969 43.6546 30.3004C44.9093 29.7366 46.1751 29.4215 47.3247 29.2336C48.4799 29.101 49.4527 28.9849 50.2431 28.8799L48.8668 29.3884C49.707 29.0899 50.3703 28.9296 51.0888 28.7085L50.1602 28.5151C51.0114 28.4045 51.73 28.1834 51.741 28.3658C52.5093 27.8905 50.9175 27.8629 52.5259 27.1001C53.6866 27.0282 55.8312 26.0499 56.3452 26.5087C53.1947 27.0559 56.0689 26.9509 54.6318 27.5257C55.0574 27.4373 55.5383 27.3488 56.0247 27.2604C56.1518 27.3157 55.9086 27.3875 55.7317 27.4594C59.2028 27.1941 57.1467 26.5253 60.5902 25.7735C60.1812 26.166 61.5298 26.1439 62.0715 25.9946C60.6842 26.3152 61.3143 25.6077 62.5082 25.1103C64.8241 24.9168 64.918 24.4857 66.0732 24.2922L64.7356 24.4359C65.1391 24.0435 66.228 23.8611 67.7978 23.4631C67.8641 23.5184 67.7425 23.5847 67.6264 23.6566C69.1906 23.1978 71.2965 23.6234 73.3416 23.0154C74.5023 23.0099 73.5572 23.5516 74.5355 23.5571C77.1775 22.6727 77.5313 23.5074 80.3668 22.728C79.4879 22.413 79.3719 22.5456 81.2953 21.8823L76.6414 22.8883L79.5764 21.8602C78.1835 22.0648 76.6193 22.5235 75.7681 22.6341C77.1444 22.0648 77.0283 22.1919 76.2766 21.9321C78.3161 22.2416 80.0793 20.9759 82.4119 21.0864L82.4727 22.12C84.1806 22.0813 85.6951 21.7497 87.3256 21.407C88.9561 21.0698 90.7083 20.6 92.9026 20.5337L91.4324 20.5005C91.9575 20.0418 94.1684 20.1578 95.5557 19.8317C95.4562 20.2021 96.3737 20.2131 96.9928 20.3568C96.9209 20.1192 100.221 20.0473 100.547 19.3564L102.581 19.6051C106.185 19.4559 106.605 18.273 110.026 18.1349C109.009 18.5605 110.606 18.7097 108.307 19.1463C109.468 19.08 110.507 19.0192 110.496 18.8368C111.176 18.9805 113.635 18.1072 114.752 18.3449C115.227 18.1349 115.332 17.8253 116.675 17.7479C116.736 17.8032 116.742 17.864 116.742 17.864C116.979 17.7258 118.615 17.5103 117.565 17.2671C121.164 18.0962 127.498 16.5651 130.604 17.361C133.102 17.1565 136.142 16.8581 138.403 16.7254C138.287 16.8525 138.414 16.9078 137.983 16.8691C141.172 17.0515 139.879 15.7858 143.499 16.0013C145.367 16.4988 141.626 16.3551 142.736 16.532C143.289 17.6595 147.064 16.2169 149.48 16.7475L148.877 16.847C150.729 17.1676 153.371 16.2777 156.367 16.228C156.367 16.228 156.251 16.3551 156.378 16.4104C158.417 15.7416 162.32 15.4541 165.238 15.1612C164.348 15.6365 163.906 15.421 164.486 15.8742C165.763 15.7416 164.077 15.1667 166.697 14.9512C167.565 15.1446 169.411 15.3436 169.682 15.7581L167.239 15.8355C168.499 16.4325 170.412 15.7139 171.699 15.7581L171.534 16.0124C175.314 15.7913 175.336 15.1225 179.371 15.0064L178.929 14.8517C181.09 14.1165 180.786 15.1722 182.953 14.5532L183.666 15.1833C185.12 14.9788 188.751 14.2768 191.371 14.0668C189.934 14.6361 186.899 15.0562 184.965 15.4154C186.424 15.327 189.84 15.128 190.619 14.7798C190.011 14.8738 189.287 15.1004 188.734 15.012C190.476 14.4205 192.775 14.0447 195.704 13.8733C195.295 15.2386 203.227 13.8015 205.36 14.7135C210.396 13.9341 215.497 14.2437 221.395 13.597C219.201 12.7458 223.097 13.4367 222.666 12.3644C224.004 12.1654 224.551 12.1322 224.678 12.1875L224.369 12.1433C224.49 12.1322 224.551 12.1322 224.678 12.1875L228.912 12.3644C229.962 12.5468 227.646 12.7458 227.785 12.9779C230.83 12.7402 229.089 13.2709 231.112 13.398C230.664 13.0553 232.118 12.7292 233.826 12.6905L231.366 12.4639C235.528 11.4303 235.125 12.9171 239.287 11.8227L237.966 12.3257C240.144 11.8946 246.047 11.2424 247.992 10.0319C248.423 10.0706 248.926 10.2861 248.02 10.5183C250.629 10.1258 253.475 9.5289 256.184 8.82141C258.898 8.11392 261.435 7.53908 263.507 7.36221L263.159 7.68279C264.121 7.38432 264.701 6.86475 265.984 6.84817C265.934 6.9753 265.635 7.17428 266.122 7.08584C266.481 6.94214 267.62 6.51101 268.703 6.20148C269.007 6.1849 269.256 6.22912 269.438 6.21806L268.902 6.49443C269.521 6.58286 269.941 6.49443 270.251 6.47784ZM112.53 6.51653C112.53 6.51653 112.475 6.58286 112.414 6.58286C112.464 6.46126 112.585 6.38941 112.701 6.32308C113.492 6.21806 113.801 6.26228 113.928 6.37283C113.564 6.39493 113.077 6.48337 112.53 6.51653ZM117.411 9.4073C117.654 9.39072 118.019 9.30781 118.687 9.26912C118.14 9.30228 117.715 9.38519 117.411 9.4073ZM121.55 9.0425C121.357 8.87115 121.528 8.6777 122.081 8.64453C121.783 8.78272 123.004 8.77166 123.806 8.84904C123.137 8.88773 122.341 8.93748 121.55 9.0425ZM25.0333 35.2915C24.9725 35.2915 24.8509 35.3026 24.7901 35.3026L24.3202 33.5007C24.381 33.4951 24.4971 33.4288 24.5579 33.4233L24.7071 33.9042C24.6463 33.9097 24.5855 33.9097 24.5303 33.976L24.7624 34.8162C24.8232 34.8162 24.884 34.8106 24.9448 34.8051L25.0333 35.2915ZM254.034 5.53268C254.282 5.5769 254.586 5.56032 254.835 5.60454C253.984 5.72061 253.133 5.77035 252.281 5.8809C252.829 5.78693 253.497 5.74824 254.034 5.53268ZM269.681 6.20701C269.803 6.20148 269.985 6.12963 270.107 6.11857L269.687 6.32861L269.681 6.20701Z" fill="#829CFF"/>
</g>
</g>
</svg>
