<svg width="302" height="102" viewBox="0 0 302 102" fill="none" xmlns="http://www.w3.org/2000/svg">
<path d="M293.495 26.1717C284.433 18.3831 272.546 13.854 261.309 10.3182C235.941 2.33361 209.878 -0.228271 183.42 0.871057C157.239 1.96074 131.071 5.34873 105.336 10.225C99.7173 11.2922 94.1146 12.4461 88.5376 13.7126C87.149 14.0276 86.04 15.262 86.1975 15.9659C86.2907 16.387 86.8372 16.6184 88.0522 16.342C112.331 10.855 137.435 8.76564 162.27 8.0874C187.471 7.40273 212.649 8.56635 237.416 13.523C249.686 15.9788 262.177 19.1739 273.376 24.9116C280.643 28.6339 288.538 34.1852 290.187 42.7612C291.347 48.7818 289.506 53.957 286.121 58.3607C280.987 61.8066 275.073 64.4167 270.695 66.1943C248.03 75.4035 223.533 80.8069 199.534 85.2332C173.899 89.9584 147.93 93.176 121.897 94.5389C94.9632 95.95 67.4479 95.1689 40.7651 90.9934C31.4208 89.5308 20.9354 87.6376 13.1083 81.9256C7.38348 77.75 3.63548 70.7844 6.47058 63.777C10.135 54.7285 20.5561 49.1579 28.8429 45.2299C39.325 40.2636 50.6076 36.8017 61.7391 33.5969C82.2245 27.6953 103.289 24.5162 124.439 22.144C131.582 21.3404 138.734 20.6204 145.892 19.9293C146.77 19.8425 148.618 19.4439 148.93 18.4314C149.229 17.4703 148.535 17.0556 147.564 17.1488C122.858 19.5371 97.988 22.0508 73.8124 27.8946C63.7063 30.3375 53.7513 33.3494 43.9056 36.686C34.2977 39.939 24.4327 43.7802 15.9017 49.489C19.1579 46.8371 22.7773 44.6127 26.2038 42.7709C36.6603 37.1521 48.2868 33.7352 59.6497 30.4693C82.186 23.9859 105.365 20.1993 128.621 17.4638C136.085 16.5863 143.562 15.8116 151.042 15.0884C151.919 15.0016 153.768 14.603 154.079 13.5905C154.378 12.6326 153.684 12.2147 152.713 12.3111C126.037 14.8891 99.2866 18.0424 73.2017 24.378C62.2245 27.0428 51.3694 30.2347 40.6944 33.9216C29.2704 37.8625 17.5474 43.2594 8.91996 51.9705C3.51012 57.4318 -0.91291 64.9888 0.996449 72.9349C1.15717 73.6002 1.36932 74.2399 1.60076 74.8667C1.66183 75.0371 1.72933 75.201 1.79362 75.3682C1.86755 75.5482 1.93827 75.7314 2.01863 75.9082C2.54901 77.1393 3.22403 78.2836 4.01478 79.3444C4.15943 79.5437 4.3105 79.7365 4.45837 79.9294C4.5098 79.9905 4.5548 80.0548 4.60301 80.1126C7.78528 84.1242 12.3883 87.1425 16.8306 89.3605C26.9914 94.4328 38.5118 96.7697 49.6594 98.4315C63.7385 100.527 78.0072 101.341 92.231 101.578C120.219 102.048 148.297 100.306 176.095 97.0751C200.759 94.2078 225.362 90.1094 248.985 82.2374C259.425 78.7561 269.872 74.5517 279.072 68.4186C282.91 65.8599 286.716 62.8191 289.682 59.1676C294.748 55.7346 299.628 51.2376 301.315 45.2781C303.437 37.7821 298.982 30.8872 293.495 26.1717ZM263.157 74.2013C241.733 83.8446 218.11 88.6405 194.976 92.0413C169.351 95.8086 143.43 97.9397 117.544 98.6501C94.6514 99.2801 71.0641 99.1741 48.3704 95.1078C49.8265 95.2589 51.2826 95.4036 52.7291 95.545C67.0718 96.9433 81.5109 97.8947 95.9275 97.9462C124.333 98.0426 152.774 95.2493 180.83 90.9355C206.368 87.0075 231.874 81.6588 256.516 73.8188C264.131 71.3952 271.781 68.7015 279.017 65.2074C273.948 69.0326 268.049 72.0027 263.157 74.2013ZM294.308 50.8422C300.084 32.9605 279.213 22.3562 265.375 17.4735C240.434 8.67564 213.353 5.82124 187.059 5.23622C176.545 5.00157 165.995 5.098 155.455 5.54481C156.751 5.41623 158.046 5.29087 159.341 5.17193C183.305 2.97007 207.429 2.19539 231.212 6.44484C245.111 8.92636 259.023 12.4686 272 18.1356C280.499 21.8419 290.952 27.0074 295.417 35.6959C298.406 41.514 297.371 46.5606 294.308 50.8422Z" fill="#F6CD46"/>
</svg>
