<svg width="117" height="44" viewBox="0 0 117 44" fill="none" xmlns="http://www.w3.org/2000/svg">
    <mask id="mask0_105_42" style="mask-type:luminance" maskUnits="userSpaceOnUse" x="0" y="0"
        width="117" height="44">
        <path d="M0.443115 0.458332H116.743V43.9895H0.443115V0.458332Z" fill="white" />
    </mask>
    <g mask="url(#mask0_105_42)">
        <path
            d="M113.355 8.71482L113.362 8.70467L108.561 0.467527L107.774 1.60381L108.753 3.28334C107.039 2.04652 105.134 1.35202 103.126 1.35202H15.328C7.86033 1.35202 1.78717 10.9274 1.78717 22.6758C1.78717 25.1402 2.05551 27.5142 2.54756 29.7167L1.3779 27.7153L0.591675 28.8516L4.81113 36.0834C7.29136 40.9016 11.0828 43.9894 15.328 43.9894H103.139C110.606 43.9894 116.667 34.414 116.667 22.6657C116.667 17.3347 115.421 12.4566 113.355 8.71482ZM100.076 42.3302L95.7483 34.9167L94.9621 36.0539L98.6255 42.3302H92.5388L88.2172 34.9268L87.431 36.064L91.0879 42.3302H85.0717L80.7436 34.9065L79.9574 36.0438L83.6267 42.3201H77.5917L73.2636 34.9065L72.4768 36.0438L76.1402 42.3201H69.9836L65.6555 34.9065L64.8693 36.0438L68.5327 42.3201H62.3756L58.054 34.9167L57.2677 36.0539L60.9247 42.3201H54.7804L50.4524 34.9065L49.6661 36.0438L53.3295 42.3201H47.1724L42.8443 34.9065L42.0581 36.0438L45.7215 42.3201H39.5644L35.2427 34.9167L34.4565 36.0539L38.1134 42.3201H31.9692L27.6411 34.9065L26.8549 36.0539L30.5183 42.3302H24.3618L20.0396 34.9167L19.2533 36.0539L22.9167 42.3201H16.779L12.4509 34.9065L11.6517 36.0438L15.3151 42.3201C11.8948 42.3099 8.79395 40.137 6.5433 36.6165L6.55622 36.5971L5.55273 34.8872C3.85814 31.5374 2.84174 27.2929 2.84174 22.6758C2.84174 11.8331 8.43577 3.03247 15.3151 3.03247H103.126C106.604 3.03247 109.75 5.27552 112.019 8.88636L112.569 9.83173C113.886 12.2353 114.845 15.1424 115.305 18.341L112.019 12.7084L111.233 13.8447L115.58 21.2979C115.6 21.7507 115.613 22.2137 115.613 22.6758C115.613 24.4964 115.452 26.2571 115.159 27.9265L111.297 21.3182L110.511 22.4545L114.768 29.7573C114.206 32.04 113.381 34.1226 112.345 35.9026L108.26 28.9023L107.474 30.0386L111.591 37.0998C110.415 38.8098 109.027 40.1775 107.5 41.0823L103.254 33.8108L102.468 34.9471L106.38 41.6459C105.338 42.0886 104.245 42.3302 103.113 42.3302H100.076Z"
            fill="#040000" />
    </g>
</svg>