<svg width="262" height="72" viewBox="0 0 262 72" fill="none" xmlns="http://www.w3.org/2000/svg">
<path d="M253.664 14.1271L253.678 14.1107L242.889 0.785889L241.122 2.624L243.32 5.34088C239.47 3.34014 235.189 2.21669 230.677 2.21669H33.3858C16.6051 2.21669 2.95806 17.7063 2.95806 36.711C2.95806 40.6976 3.56105 44.5379 4.66675 48.1008L2.03841 44.8632L0.271667 46.7013L9.75321 58.3998C15.3266 66.1939 23.8462 71.189 33.3858 71.189H230.707C247.486 71.189 261.105 55.6994 261.105 36.6946C261.105 28.071 258.304 20.18 253.664 14.1271ZM223.824 68.5049L214.099 56.5125L212.332 58.3521L220.564 68.5049H206.887L197.175 56.5289L195.409 58.3685L203.626 68.5049H190.107L180.381 56.4961L178.615 58.3357L186.86 68.4885H173.299L163.573 56.4961L161.805 58.3357L170.037 68.4885H156.203L146.477 56.4961L144.71 58.3357L152.942 68.4885H139.107L129.395 56.5125L127.629 58.3521L135.846 68.4885H122.039L112.314 56.4961L110.547 58.3357L118.779 68.4885H104.943L95.2178 56.4961L93.451 58.3357L101.683 68.4885H87.8473L78.1362 56.5125L76.3695 58.3521L84.587 68.4885H70.7803L61.0546 56.4961L59.2879 58.3521L67.5199 68.5049H53.6855L43.9731 56.5125L42.2063 58.3521L50.4384 68.4885H36.6462L26.9205 56.4961L25.1248 58.3357L33.3568 68.4885C25.671 68.4721 18.703 64.957 13.6456 59.2622L13.6746 59.2309L11.4197 56.4647C7.61175 51.0459 5.32779 44.1799 5.32779 36.711C5.32779 19.1714 17.8982 4.93506 33.3568 4.93506H230.677C238.493 4.93506 245.561 8.56353 250.661 14.4046L251.897 15.9339C254.856 19.8219 257.011 24.5246 258.045 29.6988L250.661 20.5873L248.894 22.4254L258.663 34.482C258.707 35.2146 258.736 35.9636 258.736 36.711C258.736 39.6562 258.375 42.5044 257.716 45.2048L249.038 34.5149L247.271 36.353L256.838 48.1664C255.574 51.859 253.722 55.2279 251.394 58.1074L242.213 46.7833L240.447 48.6215L249.699 60.044C247.056 62.8101 243.938 65.0227 240.505 66.4863L230.965 54.7236L229.198 56.5617L237.99 67.3979C235.648 68.114 233.191 68.5049 230.648 68.5049H223.824Z" fill="#040000"/>
</svg>
