<svg width="200" height="62" viewBox="0 0 200 62" fill="none" xmlns="http://www.w3.org/2000/svg">
<path d="M62.7105 0.773315C63.0421 9.47877 63.3793 18.1787 63.7054 26.8841C61.3563 26.9671 60.1845 27.0278 57.8354 27.1771C57.4872 21.9593 57.139 16.7471 56.7852 11.5349C54.2151 15.9512 51.7886 20.5057 49.5556 25.1044C48.4114 25.226 47.8421 25.2868 46.698 25.4249C43.5253 21.5393 40.1758 17.7476 36.7212 14.1161C37.5227 19.1681 38.3297 24.2145 39.1311 29.2664C36.7931 29.6367 35.6268 29.8412 33.2943 30.2889C31.6748 21.7272 30.0498 13.171 28.4303 4.61477C30.7518 4.17259 31.9125 3.96808 34.2395 3.5867C38.8492 8.25171 43.2545 13.1157 47.4386 18.1621C50.3515 12.3308 53.5131 6.62117 56.9013 1.05521C59.2228 0.911498 60.389 0.856225 62.7105 0.773315ZM11.7877 8.43411C18.3762 15.6527 24.5778 23.0703 30.5031 30.8361C27.8997 31.3723 26.6008 31.6597 24.014 32.2788C22.5493 30.3276 21.8031 29.3604 20.2831 27.4313C15.2036 28.7137 12.6776 29.4377 7.65333 31.0572C7.37696 33.4948 7.25536 34.7163 7.03427 37.1483C4.547 37.9829 3.30336 38.4251 0.832672 39.3426C1.79994 29.6036 3.17071 20.0137 4.95049 10.3908C7.68096 9.5672 9.0462 9.17477 11.7877 8.43411ZM17.1271 23.507C14.3413 20.1022 12.9042 18.4219 9.9582 15.1055C9.20649 19.4776 8.88038 21.6664 8.30554 26.0329C11.8209 24.9441 13.5841 24.4411 17.1271 23.507ZM101.053 7.64371C106.332 8.35673 111.632 9.28531 116.834 10.4129C110.455 14.9452 104.353 19.6711 98.378 24.723C98.1624 26.2761 98.0574 27.0555 97.8473 28.6087C105.663 29.8025 113.307 31.306 120.99 33.1686C121.482 31.2562 121.731 30.3055 122.223 28.3986C117.171 27.0665 112.008 25.939 106.862 25.038C113.053 20.2404 119.359 15.7688 125.931 11.5073C126.324 9.98728 126.517 9.22451 126.904 7.71004C118.624 5.55441 110.195 3.96255 101.727 2.76313C101.457 4.71979 101.318 5.69259 101.053 7.64371ZM184.891 55.4104C183.211 55.1948 181.585 54.5813 179.994 53.5809C178.49 52.6357 177.329 51.5137 176.5 50.1871C175.671 48.8661 175.229 47.4677 175.174 45.9698C175.124 44.4774 175.483 43.0238 176.285 41.6143C177.097 40.1883 178.17 39.1215 179.513 38.4361C180.861 37.7452 182.365 37.4799 184.012 37.6568C185.659 37.8281 187.317 38.4306 188.964 39.4697C191.573 41.1113 193.248 43.4052 193.928 46.2462C196.222 46.0748 197.377 46.003 199.704 45.898C199.334 43.8308 198.438 41.8409 197.023 39.9561C195.603 38.0658 193.723 36.3745 191.407 34.9208C188.633 33.1797 185.803 32.1682 182.984 31.8808C180.159 31.5934 177.628 32.0411 175.406 33.1742C173.179 34.3017 171.487 36.0373 170.282 38.3256C169.077 40.6194 168.602 42.9851 168.801 45.4281C169 47.8657 169.812 50.1429 171.222 52.2875C172.631 54.4321 174.533 56.2339 176.954 57.7539C178.639 58.8097 180.458 59.6443 182.426 60.2744C184.388 60.899 186.295 61.2195 188.163 61.2306C190.612 57.7705 191.833 56.0405 194.282 52.5749C192.231 51.1268 191.203 50.4193 189.119 49.0374C187.428 51.5855 186.582 52.8623 184.891 55.4104ZM86.6049 1.19339C90.3911 10.1697 93.7627 19.2012 96.775 28.4649C94.1772 28.1222 92.8728 27.973 90.2639 27.7188C89.5343 25.3973 89.1529 24.2366 88.3625 21.9207C83.2332 21.4785 80.6575 21.3403 75.5006 21.2187C74.467 23.4351 73.9585 24.5461 72.9746 26.7736C70.4155 26.746 69.1332 26.7515 66.563 26.8068C70.5703 17.9244 74.9036 9.31848 79.6405 0.806479C82.4318 0.917024 83.8247 0.994406 86.6049 1.19339ZM86.6988 17.1783C85.2065 13.0549 84.4216 10.9988 82.7579 6.89753C80.6575 10.7887 79.646 12.7509 77.717 16.6919C81.3153 16.8079 83.1116 16.9074 86.6988 17.1783ZM165.208 21.2684C163.003 26.0772 160.803 30.8859 158.598 35.6946C156.442 28.78 153.861 22.0644 151.108 15.3708C148.914 14.5362 147.808 14.1327 145.597 13.3589C142.718 21.578 139.844 29.8025 136.969 38.0216C139.307 38.8396 140.474 39.2708 142.79 40.1606C144.685 35.2248 146.587 30.2945 148.488 25.3586C151.092 31.9361 153.363 38.6517 155.276 45.4668C157.155 46.3401 158.089 46.7878 159.952 47.7109C163.826 39.9119 167.701 32.1129 171.57 24.314C169.044 23.0537 167.767 22.4457 165.208 21.2684ZM124.87 34.2133C127.28 34.8876 128.479 35.2469 130.873 35.9986C133.482 27.6856 136.096 19.3781 138.705 11.0706C136.002 10.2194 134.648 9.81593 131.923 9.05317C129.568 17.438 127.219 25.8284 124.87 34.2133Z" fill="#28C878"/>
</svg>
