<svg width="62" height="107" viewBox="0 0 62 107" fill="none" xmlns="http://www.w3.org/2000/svg">
<mask id="mask0_115_2194" style="mask-type:luminance" maskUnits="userSpaceOnUse" x="0" y="0" width="62" height="107">
<path d="M0.529663 0.307739H61.3739V106.431H0.529663V0.307739Z" fill="white"/>
</mask>
<g mask="url(#mask0_115_2194)">
<mask id="mask1_115_2194" style="mask-type:luminance" maskUnits="userSpaceOnUse" x="-15" y="-8" width="95" height="134">
<path d="M3.17173 -7.80627L79.8516 3.23169L62.3135 125.08L-14.3663 114.042L3.17173 -7.80627Z" fill="white"/>
</mask>
<g mask="url(#mask1_115_2194)">
<mask id="mask2_115_2194" style="mask-type:luminance" maskUnits="userSpaceOnUse" x="-15" y="-8" width="95" height="134">
<path d="M3.17173 -7.80627L79.8516 3.23169L62.3135 125.08L-14.3663 114.042L3.17173 -7.80627Z" fill="white"/>
</mask>
<g mask="url(#mask2_115_2194)">
<path d="M59.6826 46.2286L4.71938 105.122C4.68622 105.155 4.65858 105.188 4.5812 105.138C4.50382 105.083 4.52593 105.039 4.54804 105L26.7787 65.4966C27.1877 64.7726 27.2209 63.9269 26.8782 63.1752C26.53 62.4179 25.8612 61.8873 25.0487 61.7215L2.32055 57.0123C1.74571 56.8962 1.37538 56.3435 1.46935 55.7797L17.1779 2.57971C17.1834 2.5576 17.1889 2.53549 17.1944 2.51338C17.305 1.95513 17.8356 1.5848 18.4049 1.66218L52.9061 6.6312C53.2544 6.68094 53.5473 6.88545 53.7131 7.19498C53.8679 7.49898 53.8789 7.8472 53.7297 8.1512L35.2465 37.5176C35.2355 37.5342 35.2244 37.5563 35.2133 37.5729C34.8375 38.3246 34.843 39.1758 35.2299 39.922C35.6224 40.6681 36.3243 41.1601 37.1589 41.2817L59.0414 44.4322C59.4504 44.4875 59.771 44.7528 59.9092 45.1342C60.0474 45.5211 59.9589 45.9301 59.6826 46.2286Z" fill="#829CFF"/>
</g>
</g>
</g>
</svg>
