<svg width="69" height="115" viewBox="0 0 69 115" fill="none" xmlns="http://www.w3.org/2000/svg">
<mask id="mask0_115_2181" style="mask-type:luminance" maskUnits="userSpaceOnUse" x="0" y="0" width="69" height="115">
<path d="M0.114746 0.892822H68.0339V114.091H0.114746V0.892822Z" fill="white"/>
</mask>
<g mask="url(#mask0_115_2181)">
<mask id="mask1_115_2181" style="mask-type:luminance" maskUnits="userSpaceOnUse" x="-14" y="-6" width="95" height="134">
<path d="M4.17173 -5.80615L80.8516 5.23181L63.3135 127.081L-13.3663 116.043L4.17173 -5.80615Z" fill="white"/>
</mask>
<g mask="url(#mask1_115_2181)">
<mask id="mask2_115_2181" style="mask-type:luminance" maskUnits="userSpaceOnUse" x="-14" y="-6" width="95" height="134">
<path d="M4.17173 -5.80615L80.8516 5.23181L63.3135 127.081L-13.3663 116.043L4.17173 -5.80615Z" fill="white"/>
</mask>
<g mask="url(#mask2_115_2181)">
<path d="M66.1435 51.6611L60.3122 50.8265L61.788 49.2457C62.4457 48.5437 62.6502 47.5433 62.3297 46.6368C62.0035 45.7359 61.2131 45.0892 60.2569 44.951L44.869 42.7346L61.3845 16.4911C61.9538 15.3801 61.2518 14.0425 60.0082 13.8601L54.6578 13.0918L56.0286 10.9141C56.0396 10.8975 56.0507 10.8754 56.0617 10.8533C56.4431 10.1071 56.4376 9.25037 56.0451 8.50972C55.6527 7.76354 54.9507 7.26608 54.1161 7.15001L19.6204 2.18652C18.2718 1.98754 17.006 2.86637 16.7241 4.18739L1.01564 57.3929C1.01011 57.4095 1.00458 57.4316 0.999053 57.4537C0.72269 58.8355 1.62363 60.1897 3.01098 60.4771L8.32269 61.5771L7.7368 63.5779C7.53781 64.5563 8.17345 65.518 9.16283 65.7225L25.1864 69.0389L4.23803 106.271C3.82902 106.984 4.02247 107.857 4.6968 108.343C4.91789 108.509 5.16662 108.603 5.42087 108.642C5.92385 108.714 6.44894 108.542 6.8248 108.139L23.3956 90.3797L10.8873 112.605C10.3954 113.489 11.5782 114.346 12.2692 113.605L67.2323 54.7067C68.2383 53.6344 67.6082 51.8767 66.1435 51.6611ZM5.58116 107.138C5.50378 107.083 5.52589 107.044 5.548 107L27.7787 67.4968C28.1877 66.7727 28.2209 65.927 27.8782 65.1753C27.53 64.4181 26.8612 63.8875 26.0486 63.7216L3.32051 59.0124C2.74567 58.8963 2.37534 58.3436 2.46931 57.7798L18.1778 4.57983C18.1833 4.55772 18.1889 4.53561 18.1889 4.5135C18.3049 3.95525 18.8356 3.58492 19.4049 3.6623L53.9061 8.63132C54.2543 8.68106 54.5473 8.88557 54.7131 9.1951C54.8678 9.4991 54.8789 9.84732 54.7297 10.1513L36.2465 39.5177C36.2354 39.5343 36.2243 39.5564 36.2133 39.573C35.8374 40.3247 35.843 41.1759 36.2299 41.9221C36.6223 42.6683 37.3243 43.1602 38.1589 43.2818L60.0414 46.4323C60.4504 46.4876 60.771 46.7529 60.9091 47.1343C61.0473 47.5212 60.9644 47.9302 60.6825 48.2287L5.71934 107.122C5.68618 107.16 5.65854 107.188 5.58116 107.138Z" fill="black"/>
</g>
</g>
</g>
</svg>
