<svg width="218" height="82" viewBox="0 0 218 82" fill="none" xmlns="http://www.w3.org/2000/svg">
<path d="M215.923 61.105C214.966 62.2989 213.739 63.2219 212.369 63.8189C212.12 65.0404 211.622 66.2288 210.86 67.3121L204.73 75.9789C203.398 77.8692 201.419 79.1792 199.203 79.6877C197.611 80.8816 195.649 81.5504 193.603 81.5393C192.509 81.5338 191.415 81.4564 190.326 81.3127C188.645 81.0916 186.949 80.7102 185.279 80.1741C182.676 79.3394 180.194 78.1953 177.923 76.7803C174.407 74.5694 171.677 71.944 169.571 68.7437C169.427 68.5281 169.295 68.3181 169.162 68.1025C167.023 68.7658 164.536 68.5944 162.435 67.594C162.396 67.5774 162.352 67.5553 162.314 67.5332C160.556 66.6599 159.754 66.273 158.03 65.4715C155.902 64.4877 154.238 62.73 153.354 60.5688C151.917 61.1437 150.319 61.3648 148.689 61.1492C147.959 61.0552 147.235 60.8673 146.544 60.5965C144.427 59.784 143.405 59.4026 141.244 58.6453C140.287 58.3137 139.392 57.8273 138.602 57.2083C137.601 57.2304 136.557 57.0811 135.606 56.7771C133.356 56.0696 132.323 55.7656 130.123 55.1466C129.515 54.9752 128.934 54.7431 128.387 54.4667C128.15 54.4501 127.912 54.4336 127.674 54.4059C127.282 54.3507 126.972 54.2843 126.845 54.2567C126.801 54.2456 126.746 54.2346 126.707 54.2235C119.538 52.488 112.496 51.1006 105.173 49.9841C105.151 49.9786 105.128 49.9786 105.112 49.9731C105.007 49.9565 104.907 49.9399 104.802 49.9178C104.648 49.9067 104.487 49.8901 104.333 49.868C101.901 49.553 100.778 49.4259 98.3575 49.1882C98.2746 49.1771 98.1917 49.1661 98.1033 49.155L98.0535 49.1495C94.7814 48.7184 91.9791 46.5461 90.7133 43.5283C89.0607 46.5185 85.9212 48.3646 82.4887 48.3204C80.1562 48.2928 79.0563 48.2983 76.6133 48.348C76.5525 48.3536 76.4972 48.3536 76.4419 48.3536C76.0495 48.3536 75.6791 48.3315 75.2978 48.2817C74.8777 48.3591 74.4521 48.4033 74.021 48.4199C71.7493 48.4973 70.7433 48.547 68.6374 48.6852C68.0239 48.7294 67.3993 48.7128 66.7858 48.6299C64.9728 48.3923 63.3257 47.624 61.9991 46.4964C61.662 46.5683 61.3193 46.6235 60.9711 46.6622C59.9209 46.7728 59.4013 46.8336 58.3456 46.9552C58.025 46.9883 57.7045 47.0104 57.3894 47.016C55.9357 48.9505 53.8243 50.2218 51.431 50.6032C49.1814 50.968 48.181 51.1393 46.0806 51.5428C46.0309 51.5539 45.9866 51.5594 45.9369 51.5704C45.55 51.6368 45.1686 51.6755 44.7817 51.692C44.3837 51.8357 43.9692 51.9518 43.5491 52.0403C41.0287 52.5543 39.9011 52.8085 37.552 53.3723C36.4466 53.6376 35.308 53.6984 34.1804 53.5492C31.8589 53.2452 29.7088 52.0403 28.2275 50.2328C27.7798 53.7205 25.3754 56.6832 22.0093 57.8328C19.6105 58.6343 18.5437 59.0101 16.2776 59.8558C14.8515 60.3809 13.3205 60.5523 11.8392 60.3588C10.2197 60.1432 8.68309 59.5076 7.38971 58.5127C7.37312 58.4961 7.35102 58.4795 7.32891 58.4629C6.86462 58.0981 6.43902 57.6947 6.05763 57.2525C5.36673 56.954 4.70898 56.5671 4.10651 56.1028C1.54738 54.1406 0.204254 51.0564 0.502727 47.834C0.502727 47.8174 0.502727 47.8008 0.502727 47.7787C1.50869 37.7357 2.89051 28.0132 4.73662 18.0586C5.37778 14.604 7.85952 11.8349 11.2146 10.8179C14.0169 9.97219 15.4153 9.5687 18.3171 8.78383C18.3337 8.7783 18.3558 8.77277 18.3779 8.76725C19.5552 8.45772 20.7657 8.38586 21.9651 8.54063C24.1594 8.83358 26.1824 9.89481 27.6637 11.5419C27.8517 11.7464 28.0396 11.951 28.2275 12.161C28.4707 10.945 28.9571 9.77874 29.6701 8.72303C31.0741 6.66688 33.1965 5.27401 35.6451 4.80972C37.9997 4.36201 39.2489 4.14092 41.6919 3.73743C41.7306 3.7319 41.7693 3.72638 41.808 3.72085C42.6703 3.59372 43.5491 3.5882 44.4114 3.69874C46.473 3.96958 48.4021 4.93132 49.8502 6.41263C51.4199 8.00448 52.9786 9.6295 54.5152 11.2766C55.6151 9.36419 56.7372 7.46281 57.8813 5.58354C59.4621 2.96914 62.2202 1.29438 65.2768 1.10092C67.6204 0.962741 68.8861 0.896414 71.3015 0.813504C71.8266 0.791395 72.3462 0.813505 72.8879 0.885359C76.1434 1.31649 78.8242 3.37816 80.1286 6.20259C80.2336 6.01467 80.3442 5.82121 80.4492 5.62776C82.146 2.54354 85.4237 0.702958 88.9778 0.846668C91.8132 0.957212 93.2337 1.0346 96.1024 1.2391C96.434 1.25569 96.6772 1.28885 96.7767 1.2999C99.6786 1.68129 102.243 3.43343 103.675 5.95939C104.095 5.48958 104.559 5.05845 105.073 4.67154C107.03 3.19576 109.456 2.5546 111.894 2.87518C111.916 2.8807 111.955 2.88623 111.982 2.88623C121.379 4.21278 129.957 5.89859 138.204 8.03765C139.099 8.26979 139.928 8.63459 140.68 9.09336C141.144 9.08783 141.619 9.09888 142.089 9.16521C142.537 9.22048 142.979 9.31445 143.41 9.43605C146.296 10.243 147.766 10.6852 150.452 11.5309C151.712 11.9288 152.851 12.5755 153.813 13.4212C155.095 13.3162 156.449 13.4875 157.676 13.9297C159.915 14.7146 161.098 15.1457 163.375 16.008C165.746 16.9089 167.681 18.7771 168.67 21.1373C168.675 21.1539 168.681 21.1704 168.692 21.1815C168.897 21.6845 169.101 22.1819 169.3 22.6683C169.809 22.3588 170.356 22.0935 170.931 21.8835C173.224 21.0323 175.855 21.1373 178.061 22.1543C180.758 23.3924 182.134 24.0557 184.666 25.3104C186.904 26.4269 188.568 28.3338 189.364 30.6884C189.491 31.0643 189.596 31.4512 189.674 31.8326C190.724 31.8104 191.796 31.8491 192.879 31.9597C192.885 31.9597 192.935 31.9652 192.94 31.9652C193.178 31.9928 193.416 32.015 193.659 32.0481C197.66 32.5787 201.585 34.0324 205.321 36.3815C208.588 38.4266 211.318 40.8918 213.43 43.7051C215.718 46.7562 217.205 50.0891 217.835 53.6045C217.841 53.6211 217.841 53.6376 217.846 53.6487C218.305 56.3018 217.603 59.0212 215.923 61.105Z" fill="white"/>
</svg>
