<svg width="283" height="225" viewBox="0 0 283 225" fill="none" xmlns="http://www.w3.org/2000/svg">
<mask id="mask0_116_1564" style="mask-type:luminance" maskUnits="userSpaceOnUse" x="0" y="0" width="283" height="225">
<path d="M0.451782 140.382L231.62 0.372442L282.407 84.2262L51.2388 224.236L0.451782 140.382Z" fill="white"/>
</mask>
<g mask="url(#mask0_116_1564)">
<mask id="mask1_116_1564" style="mask-type:luminance" maskUnits="userSpaceOnUse" x="11" y="-7" width="270" height="254">
<path d="M11.794 161.99L226.592 -6.89345L280.821 77.2769L66.0291 246.17L11.794 161.99Z" fill="white"/>
</mask>
<g mask="url(#mask1_116_1564)">
<mask id="mask2_116_1564" style="mask-type:luminance" maskUnits="userSpaceOnUse" x="11" y="-7" width="270" height="254">
<path d="M11.794 161.99L226.592 -6.89345L280.821 77.2769L66.0291 246.17L11.794 161.99Z" fill="white"/>
</mask>
<g mask="url(#mask2_116_1564)">
<path d="M237.478 11.7204L232.351 4.10807C228.321 5.97905 227.029 8.94583 223.73 11.0525C222.944 9.72381 219.112 11.122 217.239 11.9445L217.148 11.6876C211.916 14.5176 209.064 17.8863 204.647 21.199C200.812 21.4599 194.342 26.5584 189.145 28.5396C190.027 28.3311 189.691 29.7286 188.914 30.3347C187.621 30.697 186.48 33.2196 185.91 31.8829L186.367 31.6876C184.815 30.972 182.757 32.7478 180.979 33.8245L181.701 35.5174C178.679 35.7876 175.81 37.8911 173.32 40.01C170.759 42.0225 168.51 43.9542 166.653 43.7901C165.853 44.9123 164.475 45.828 163.671 46.9531L163.164 46.0526C160.036 47.8657 158.448 48.7865 154.991 51.6673L155.366 50.5582C153.321 52.0142 154.337 54.9399 152.495 56.3807L151.134 55.5094C147.515 58.0269 143.231 59.6174 140.496 63.3907C140.4 63.1367 140.295 62.7391 140.8 62.1754C139.088 63.3612 133.785 66.0849 135.542 67.4493C134.729 66.2998 131.825 70.0397 130.287 72.0565L130.028 70.9785C129.123 73.3039 129.285 73.6672 127.266 75.7315C126.665 76.0411 126.372 75.4723 127.234 75.1132C125.216 76.0501 126.434 77.0358 123.959 78.168L124.387 77.0275C122.531 78.3277 122.883 78.5351 122.285 79.9693C121.382 81.1673 118.784 82.5645 118.06 81.9989C118.092 82.6172 117.612 84.129 116.41 84.7483C116.058 84.5408 116.373 84.1329 116.503 83.8778C113.159 85.6862 112.749 88.4445 110.184 89.3198C109.93 89.0394 109.715 89.0474 109.505 89.0526C111.676 87.3445 113.511 85.8937 113.661 85.7893C113.122 85.0708 111.169 86.4439 112.028 84.1599C110.895 86.0129 109.068 89.3985 107.049 90.6624C106.88 90.629 106.782 90.7019 106.665 90.637L106.789 90.372C106.286 90.6087 105.966 91.0195 105.717 91.5367C105.07 91.8877 104.613 92.083 104.104 92.6496C103.446 92.1932 101.745 94.1864 100.777 94.9355C101.428 95.7218 100.103 96.606 101.675 96.332C101.46 96.34 101.805 96.077 102.362 95.4818C102.506 95.3674 102.63 95.1025 102.676 95.0611C102.676 95.0611 102.63 95.1025 102.701 95.2088C103.329 94.7199 104.08 93.9661 104.93 93.1394C104.432 94.1736 103.934 95.2078 102.596 95.6116C102.462 96.5334 102.343 97.5958 102.263 98.1464C100.196 97.9874 97.356 99.5718 96.4835 99.1235C93.796 101.728 89.9778 105.058 89.2465 108.214C88.6316 109.184 88.0011 108.548 87.5241 108.593C87.8711 108.003 88.4471 107.545 88.5521 107.143C87.2563 108.972 83.975 111.556 84.3495 113.039C82.0123 114.387 84.7409 110.943 82.1243 113.654L82.2316 112.924C75.7724 116.226 75.4742 123.895 68.1792 127.364C68.6821 127.127 68.9241 126.94 69.159 127.083C65.533 129.93 62.2814 133.46 59.0251 136.992C55.7688 140.524 52.5833 144.163 48.7955 146.647C46.7689 148.241 47.0607 149.15 46.3386 150.849L45.2972 150.367L44.1221 153.399C42.0014 157.003 38.07 156.209 35.7361 161.286L36.6156 161.405C35.3338 162.574 33.1281 165.932 32.8363 165.023C32.7584 165.247 32.8861 166.119 32.2145 166.322L31.8885 165.923L29.5708 170.013C27.1005 172.282 28.5976 167.712 25.3142 171.424C24.1895 172.96 22.8503 176.756 23.522 176.553C24.0319 175.986 24.9727 175.416 25.2974 175.803L24.3875 177.331C25.2119 178.948 25.3304 181.277 28.6756 179.129L29.9736 176.172L31.0431 176.135L29.4864 178.014C30.8191 177.6 30.9652 176.359 31.3451 175.247C31.7489 175.423 32.1739 175.41 32.6626 175.032L33.559 171.572C34.1966 171.878 33.4697 173.58 34.9204 172.444C35.3344 170.823 33.212 172.162 34.3709 170.117C35.7095 169.714 35.7663 170.48 36.4932 168.778C36.897 168.954 36.8582 169.466 36.5112 170.056C37.1602 168.577 38.9307 167.03 38.902 165.745C40.4343 165.522 42.0273 162.007 42.8728 163.435C42.9388 162.744 43.8579 160.559 44.7396 159.55C44.1913 162.881 48.1541 156.044 48.8274 158.106C49.0288 155.365 52.7398 152.765 54.4167 149.836C54.4097 150.166 54.3296 150.717 54.0627 150.756C55.3445 149.586 56.0092 149.713 57.0008 149.099C56.3842 147.803 58.0412 145.525 58.5283 143.683C60.7784 143.216 58.6008 146.054 59.7543 146.603C59.0436 145.718 61.7062 142.966 60.6437 142.673C62.2952 142.188 61.8913 142.012 63.1227 142.338C62.3503 140.69 64.0067 141.003 64.3817 139.093C66.5571 138.183 65.743 139.964 67.302 137.759C68.4765 137.319 67.1737 139.478 67.1737 139.478C69.0633 137.669 67.3338 137.576 67.284 136.481C69.3316 133.897 68.8576 136.219 70.0251 136.109C71.177 134.394 71.5731 132.295 72.6649 131.281C72.8999 131.424 73.0946 131.265 72.9896 131.668C73.8899 129.346 77.4288 127.379 78.4079 124.493C78.6287 124.495 78.7409 124.563 78.7869 124.521C78.1081 124.254 77.7112 123.748 77.4845 123.288C78.3344 122.462 78.6185 121.096 79.4202 121.438C78.8442 121.895 79 122.248 78.9719 122.767L79.6599 121.577C81.1474 121.857 78.698 123.137 79.1846 123.887C80.7224 121.87 82.2034 119.087 83.7249 118.057C84.6824 118.753 80.8274 121.467 83.2237 120.559L80.8594 122.086C83.5664 122.223 79.5067 123.149 82.1406 123.507C85.0879 121.193 84.8692 120.064 87.7705 117.791C87.9815 116.646 86.9759 117.119 87.2389 115.942C90.4866 111.276 92.0872 115.679 94.098 111.68C94.3882 110.324 93.8448 108.808 96.2941 107.528L96.3286 109.27C99.1131 106.933 96.7471 106.195 100.156 104.483C99.9709 105.436 98.2843 106.77 98.7871 106.533C101.268 105.872 99.6533 104.72 101.084 103.433L102.113 104.247C104.95 101.526 107.607 97.9757 110.784 94.9938C110.801 95.4714 110.429 96.2535 111.459 95.9278C115.478 92.449 120.601 89.2242 125.05 86.5298L126.046 84.4613C126.43 84.1469 127.003 84.3563 126.683 84.7671C128.486 83.8382 126.43 84.1469 126.882 83.1541C127.732 82.3273 128.436 82.7423 127.991 83.4053C130.308 80.4554 134.853 75.4234 138.54 74.1396L138.101 74.8124C140.695 73.4181 139.533 70.9338 142.281 70.2326L141.961 70.6434C144.618 68.8849 147.221 66.8337 149.807 64.9689C152.336 63.1384 154.839 61.4872 157.279 60.8641C157.178 59.0121 162.764 57.8539 161.922 55.7591C165.465 54.5896 164.78 55.4527 169.415 53.2692C170.617 52.6499 170.386 51.053 171.673 49.8803L172.292 50.8487L173.574 48.5387L175.251 49.0021L176.439 47.9024C175.891 48.1806 175.03 48.1999 174.986 47.9143C176.712 46.0688 180.412 45.2654 180.743 45.6621L185.117 41.724C185.233 42.1286 184.872 42.578 184.454 43.0617C185.985 41.3748 185.288 44.022 187.02 41.8467C186.591 41.8627 186.872 41.1635 186.776 40.9094C188.302 40.6769 191.071 38.9861 192.888 37.3975L192.913 38.3457C196.642 36.2229 200.464 33.2297 204.624 30.7639C202.993 31.3992 202.567 29.9481 203.748 29.1783L204.876 29.9198C205.256 28.8079 203.368 30.2902 204.52 28.575C206.133 27.8019 206.272 29.1419 205.586 30.0049L207.259 28.5307C207.559 28.7697 207.193 29.2219 207.309 29.6265C207.684 28.5175 211.152 28.6961 211.66 27.005L211.965 27.2539C214.303 25.9062 215.87 24.8347 217.335 23.839C217.237 23.9119 217.093 24.0263 217.001 24.1091C215.909 25.1231 215.052 26.2797 214.476 27.5375L214.606 27.2824C213.696 28.8103 212.735 30.3697 211.759 31.7884C210.034 33.2941 212.331 30.1937 210.77 30.9353C209.321 33.536 207.818 35.0437 206.275 36.2629C204.722 37.4751 203.225 38.6529 201.954 40.6301C199.978 40.7281 197.677 42.6912 195.422 44.9527C193.166 47.2142 190.695 49.4709 188.494 50.2337L189.035 50.6252C188.459 51.883 187.711 51.1697 186.966 51.5936C187.342 51.9489 188.258 51.2313 187.89 52.0105C180.497 58.9441 171.054 63.9444 162.366 69.3282C159.211 71.3205 162.402 73.3356 157.787 74.8693L158.228 73.0691C152.788 78.6295 145.516 81.9218 140.159 87.2686C140.362 86.7929 140.201 86.4297 140.731 86.0137C139.04 86.21 136.001 89.4074 136.35 89.9419C135.359 90.556 135.811 89.5632 135.021 89.6888C133.488 90.2512 132.436 93.0179 131.322 92.7568C131.159 92.7333 131.349 92.5776 131.479 92.3226C130.551 93.3728 127.906 94.7986 129.189 95.0931C126.683 96.4074 125.19 98.7225 123.055 99.5818C122.522 101.465 118.94 102.006 119.458 103.714C118.704 102.203 114.9 105.674 113.917 107.423C114.116 106.61 112.43 107.944 112.615 106.99C111.091 108.347 109.848 109.806 110.552 110.221C106.571 110.936 105.815 116.536 102.81 115.832C98.8846 120.692 95.1115 125.121 91.6039 129.498C90.7936 128.021 95.7311 124.949 94.5917 123.74C92.976 125.98 91.849 127.843 90.5992 129.631C89.4155 131.529 88.2177 133.285 86.374 135.053C85.3154 135.898 86.4742 133.853 86.6712 133.367C83.5627 137.922 79.9344 141.097 77.6535 145.802C77.5826 145.696 77.7655 145.07 77.9625 144.584C77.4208 145.333 76.5249 146.201 76.9725 146.662L77.4386 145.81C78.9401 145.43 76.5081 150.579 76.755 151.19C76.3695 148.099 73.7844 154.82 73.5863 150.45C73.3622 151.115 73.0602 152.003 73.4829 152.317C72.875 152.956 72.5622 153.037 72.7083 151.796C71.0704 155.013 72.128 154.508 70.4782 157.257C70.2704 156.935 70.5005 156.28 70.4165 155.693C70.0002 157.641 69.6252 159.551 68.0414 161.609C67.9964 161.311 67.7816 161.319 67.9326 160.875C66.8717 162.847 66.1886 164.834 65.5115 166.832C64.7965 169.001 63.9045 171.007 62.6064 173.163C62.3401 170.611 61.4827 174.359 60.5712 173.622L59.631 176.797L60.5199 176.258C59.3799 178.441 59.2034 181.329 58.0976 183.003L58.4289 180.808L56.8445 185.458L57.9714 183.595C57.6423 184.663 57.5233 185.725 56.2415 186.895L56.5154 187.326C56.4695 187.367 56.4423 187.547 56.3963 187.588L58.8997 190.793C58.9457 190.752 59.0437 190.679 59.0188 190.531L59.3495 190.928C59.4415 190.845 59.4687 190.666 59.5667 190.593C59.4687 190.666 59.2998 190.632 59.0708 190.499C59.1168 190.458 59.2148 190.385 59.1947 190.235C59.1487 190.276 59.0507 190.349 58.948 190.425C58.765 190.251 58.628 190.035 58.5913 189.42C59.028 189.074 59.4849 188.878 59.9558 188.824C60.1317 188.527 60.3028 188.234 60.4078 187.831C60.3558 187.863 60.4267 187.969 60.4267 187.969C60.4538 187.79 60.4998 187.748 60.5317 187.566C60.6508 187.304 60.7807 187.049 61.0227 186.862C61.0368 187.002 61.0157 187.192 60.9177 187.264C60.6935 187.929 60.4928 188.078 60.4267 187.969C60.2415 188.922 59.8617 190.034 60.5864 189.459L60.4375 188.776C61.0454 188.137 61.9185 185.994 62.3303 185.5C62.8322 185.603 62.921 186.987 63.2527 187.044C63.381 185.325 66.6553 183.07 67.0303 181.161C66.8333 181.647 67.249 182.29 67.4071 182.317L67.5331 180.924C68.4468 180.534 68.6569 180.528 68.7916 181.071C71.163 179.214 67.1174 180.281 70.2455 178.467C70.0756 178.774 70.2905 178.766 69.8726 179.25C71.3421 178.251 72.5389 176.834 73.7687 175.696C75.0505 174.526 76.2202 173.289 77.6639 172.482C79.1951 173.047 75.6031 174.585 77.0906 174.864C78.9071 173.276 80.4969 171.227 82.3594 169.597C84.1511 167.861 86.0136 166.231 87.9412 165.05L87.1964 165.474C86.9505 164.524 87.7662 164.206 88.844 163.852C89.9407 163.635 91.2982 163.37 92.011 162.327C91.6452 162.779 91.9417 163.685 91.9487 163.355C94.7569 161.953 97.0855 159.471 101.039 156.683L100.768 157.39C102.624 156.89 105.183 155.204 107.077 154.532C107.347 153.826 108.475 153.427 107.459 153.093C111.006 153.061 113.438 151.304 115.802 149.777C118.277 148.305 120.637 146.781 123.753 146.752C123.153 147.061 122.499 147.742 123.002 147.505C124.347 146.772 125.81 146.103 127.221 145.479C126.498 144.913 126.374 145.178 125.167 145C125.508 144.4 126.573 143.565 127.702 143.167C125.938 144.384 128.345 144.283 129.435 144.396C129.2 144.253 129.305 143.851 129.116 143.667C132.2 144.16 128.716 142.036 132.408 141.89L132.472 142.326C133.576 141.78 134.471 140.911 135.835 140.655C136.844 141.319 134.699 141.384 134.971 142.142C136.766 141.543 137.802 139.423 139.965 139.836C139.333 140.328 138.138 140.617 137.516 141.116C139.903 141.664 139.956 141.293 141.437 141.102L141.268 141.069C142.435 140.958 143.532 140.742 144.653 140.673L143.676 140.628C144.942 137.853 148.343 139.062 150.88 136.902C148.441 138.99 150.747 137.824 151.011 138.912C151.937 138.989 153.385 138.98 153.118 139.359C154.306 138.259 156.039 139.489 157.712 138.015C157.966 138.295 159.396 137.808 159.407 138.616C161.366 138.04 158.637 138.092 158.64 137.765C159.919 136.922 161.962 136.933 164.107 136.869C166.312 136.903 168.621 136.875 170.567 135.832C174.274 134.686 174.557 133.659 178.094 132.82C179.606 133.247 177.57 134.046 177.57 134.046C179.82 134.379 181.346 134.147 183.161 133.685C182.939 134.023 183.389 134.158 184.143 134.528C185.671 134.309 184.668 133.315 186.989 133.754C186.767 134.092 186.589 134.716 185.943 135.067C187.659 134.678 189.239 134.087 191.079 133.774C191.848 134.298 190.229 134.601 189.74 134.978C191.8 134.666 195.2 134.412 195.502 133.523L194.342 133.304C194.693 133.511 194.613 134.062 194.138 134.119C192.577 134.861 191.314 133.916 191.04 133.485L192.346 133.264C190.151 131.432 186.918 133.648 184.067 133.625L184.618 132.219C183.803 132.537 183.083 133.109 182.267 133.426C181.465 133.084 180.764 132.342 182.024 132.149C179.801 131.637 180.495 132.709 178.533 132.147C178.299 132.017 178.345 131.976 178.489 131.861L176.746 132.429C176.967 132.091 176.024 131.536 177.216 131.574C173.422 130.996 172.145 132.963 170.406 132.076L170.596 131.921C166.178 132.969 170.58 132.907 167.642 134.565L164.169 132.448L164.153 133.435C163.671 133.483 162.648 133.478 162.636 133.011C161.146 133.859 163.176 133.389 162.424 134.143C159.719 133.679 156.406 135.645 155.1 134.075C154.634 134.927 157.551 134.259 155.364 135.163C153.848 133.598 152.668 135.833 150.315 135.575C150.505 134.619 152.646 134.557 150.245 134.329C149.739 136.033 146.194 134.937 144.567 135.57C145.113 136.759 141.094 136.846 138.522 138.051C138.51 137.583 132.943 138.879 130.151 139.295L130.112 139.006C130.252 140.346 127.551 141.019 125.795 141.907C125.477 141.19 125.699 140.852 126.573 140.173L124.773 140.775C124.524 141.292 124.092 141.635 122.989 142.181L122.939 141.086C120.594 141.963 118.842 143.988 115.593 144.599C115.884 145.494 119.223 145.941 116.362 147.714C115.99 147.356 115.458 146.648 116.182 146.073C115.94 146.26 115.431 146.827 114.791 146.848L115.623 145.544C114.096 145.776 115.269 146.464 114.146 146.872C113.781 146.184 113.103 146.717 112.973 146.172C113.215 145.985 114.023 145.997 114.286 145.621C113 145.993 111.375 146.298 110.645 146.063C110.898 146.343 111.151 146.963 110.354 147.419C108.147 148.511 109.175 147.061 107.643 147.284C107.373 147.99 105.682 148.186 106.137 149.118C105.49 149.469 105.113 149.114 104.715 148.948C103.768 149.848 99.5429 151.877 101.297 152.117L101.61 152.036C101.558 152.068 101.512 152.109 101.466 152.151C99.9625 153.658 97.9451 154.595 95.9077 155.382C93.9423 156.287 91.971 157.183 90.3303 158.475L90.1225 158.153C89.2267 159.021 88.0451 159.791 87.0312 160.581C86.0185 161.385 85.1227 162.253 84.6518 163.108C84.0698 163.555 82.8882 163.525 82.9163 163.006C81.4858 164.293 81.6205 164.835 79.0295 165.903C80.2522 164.294 78.1547 165.781 80.375 164.369C78.2278 165.561 77.451 165.366 75.8743 167.895C76.1185 166.58 73.8062 168.076 73.0272 169.009L75.4213 169.228C74.4275 170.169 73.5636 170.855 72.572 171.469L72.3603 170.01C69.97 170.928 68.6152 173.119 67.3194 174.949C66.6844 175.767 66.1014 176.555 65.4476 177.235C67.3675 173.78 65.61 175.007 66.954 172.009C68.2818 170.798 67.5824 173.772 68.8165 170.379C70.0593 168.921 69.689 170.827 69.57 171.89C70.03 170.227 70.77 169.006 71.549 168.073C72.3928 167.236 73.0986 166.523 73.6605 165.925L73.0364 167.552C73.4303 166.58 73.8233 165.949 74.1975 165.18L73.1928 165.313C73.8006 164.674 74.1748 163.905 74.3826 164.226C74.5228 162.975 73.1311 163.75 73.6773 161.547C74.5919 160.816 75.3622 157.948 76.3009 158.506C74.2012 161.121 76.5454 159.443 75.9414 161.22C76.2093 160.841 76.5244 160.433 76.8443 160.022C77.0131 160.055 76.8833 160.31 76.8101 160.531C79.4906 158.256 77.0044 158.121 79.1322 154.987C79.2092 155.903 80.3387 155.165 80.6397 154.616C79.8018 155.911 79.5712 154.314 80.0514 152.802C81.8219 151.255 81.4333 150.432 82.211 149.486L81.2232 150.437C81.1415 149.523 81.8745 148.632 82.7843 147.104C82.9012 147.169 82.8693 147.351 82.8482 147.54C83.6871 145.906 85.9513 145.579 87.0393 143.428C88.0261 142.817 87.8068 144.279 88.6496 143.782C89.9476 140.825 91.158 142.141 92.7356 139.272C91.6413 139.162 91.6863 139.46 92.6101 137.273L89.7235 141.49L91.1157 138.123C90.1468 139.212 89.3078 140.846 88.7 141.486C89.258 139.751 89.2969 140.039 88.3714 139.962C90.4526 139.461 90.5841 136.275 92.6994 135.265L93.8756 137.09C95.2944 136.135 96.2291 134.755 97.2511 133.295C98.279 131.845 99.2667 130.093 101.072 128.838L99.7779 129.54C99.728 128.444 101.745 127.507 102.577 126.202C102.895 126.919 103.692 126.464 104.378 126.401C104.058 126.011 106.802 124.173 106.329 122.763L108.34 122.156C111.26 120.021 110.333 117.679 113.109 115.659C112.702 116.95 114.231 116.39 112.739 118.366C113.659 117.645 114.482 116.998 114.274 116.676C115.012 116.582 116.166 113.739 117.38 113.588C117.558 112.964 117.311 112.354 118.376 111.519C118.488 111.587 118.559 111.693 118.559 111.693C118.612 111.322 119.777 110.087 118.614 110.195C122.593 109.82 126.346 103.789 129.869 103.609C131.783 101.947 134.059 99.8363 135.848 98.4269C135.887 98.7154 136.056 98.7488 135.645 98.9026C138.572 97.578 136.089 95.975 139.42 94.4866C141.559 94.4121 138.202 96.0925 139.344 95.8346C141.044 97.5732 142.704 93.0268 145.347 92.7284L144.94 93.2191C146.872 92.8356 148.164 89.8688 150.672 88.2275C150.672 88.2275 150.711 88.5159 150.88 88.5493C151.897 86.2917 154.922 83.754 157.1 81.716C156.856 83.0307 156.243 82.8726 157.233 83.3859C158.18 82.4862 156.113 82.3273 158.12 80.5829C159.072 80.4808 160.868 79.8817 161.55 80.4858L159.545 81.8904C161.272 82.3096 162.126 80.0285 163.276 79.4407L163.411 79.9832C166.404 77.6276 165.696 76.4151 169.021 74.1163L168.474 74.0675C169.523 71.6278 170.411 73.6811 171.591 71.4469L172.886 72.2091C173.907 71.0888 176.25 67.9469 178.263 66.2125C177.653 67.9793 175.514 70.3057 174.25 71.9531C175.402 71.0383 178.107 68.9114 178.395 67.8823C177.977 68.366 177.604 69.1481 177.035 69.2757C177.881 67.3116 179.439 65.4455 181.759 63.6201C182.894 66.2837 188.115 59.594 190.932 60.1265C194.391 56.1184 199.092 54.0313 203.433 49.8147C200.63 49.4229 204.714 48.6449 203.179 46.9426C204.107 45.8924 204.539 45.5493 204.708 45.5827L204.395 45.6637C204.487 45.5808 204.539 45.5493 204.708 45.5827L208.522 43.707C209.618 43.4905 207.854 45.0476 208.225 45.3929C210.571 43.3883 209.659 45.2432 211.528 44.4235C210.772 44.04 211.661 42.7013 213.079 41.747L210.729 42.6143C213.165 38.602 214.437 41.4811 216.807 37.3596L216.224 38.9472C217.618 37.0448 221.957 32.8154 222.305 29.6337C222.716 29.4799 223.381 29.6064 222.858 30.4929C224.662 28.4366 226.448 25.89 227.995 23.2164C229.547 20.5399 231.092 18.1933 232.672 16.8019L232.723 17.558C233.221 16.5238 233.152 15.2901 234.231 14.596C234.327 14.8501 234.288 15.362 234.608 14.9513C234.759 14.5071 235.264 13.143 235.854 12.0259C236.096 11.8386 236.357 11.7892 236.501 11.6748L236.343 12.4489C236.968 12.287 237.231 11.9106 237.478 11.7204ZM102.614 93.4975C102.614 93.4975 102.639 93.6453 102.587 93.6768C102.497 93.4326 102.523 93.2406 102.55 93.0613C103.112 92.4633 103.425 92.3823 103.654 92.515C103.366 92.7437 103.046 93.1545 102.614 93.4975ZM109.933 96.1603C110.123 96.0046 110.345 95.6667 110.875 95.2508C110.443 95.5938 110.169 95.9632 109.933 96.1603ZM113.077 93.3605C112.725 93.1531 112.661 92.7169 113.098 92.371C112.993 92.7738 114.026 92.1211 114.796 91.8449C114.266 92.2608 113.639 92.7625 113.077 93.3605ZM59.0708 190.499C59.0188 190.531 58.9269 190.614 58.8748 190.645L56.5132 187.653C56.5592 187.611 56.5863 187.432 56.6323 187.391L57.283 188.177C57.237 188.218 57.185 188.25 57.2098 188.398L58.3222 189.786C58.3742 189.755 58.4202 189.713 58.4662 189.672L59.0708 190.499ZM222.579 18.4244C222.84 18.3749 223.082 18.1877 223.343 18.1382C222.741 18.7876 222.067 19.3179 221.459 19.9574C221.825 19.5052 222.355 19.0892 222.579 18.4244ZM236.697 11.529C236.795 11.4561 236.872 11.2325 236.964 11.1497L236.834 11.7445L236.697 11.529Z" fill="#829CFF"/>
</g>
</g>
</g>
</svg>
