<svg width="269" height="82" viewBox="0 0 269 82" fill="none" xmlns="http://www.w3.org/2000/svg">
    <path
        d="M237.862 80.0041H40.5413C24.4651 80.0041 11.2905 65.0844 11.2905 46.8764C11.2905 28.637 24.4651 13.7487 40.5413 13.7487H237.833C253.938 13.7487 267.111 28.637 267.111 46.8764C267.111 65.1008 253.938 80.0041 237.862 80.0041Z"
        fill="#EDD136" />
    <mask id="mask0_2_22" style="mask-type:luminance" maskUnits="userSpaceOnUse" x="7" y="10"
        width="262" height="72">
        <path d="M7.09332 10.9363H268.432V81.3543H7.09332V10.9363Z" fill="white" />
    </mask>
    <g mask="url(#mask0_2_22)">
        <path
            d="M260.819 24.2924L260.834 24.276L250.044 10.9512L248.278 12.7893L250.476 15.5062C246.626 13.5055 242.344 12.382 237.833 12.382H40.5413C23.7606 12.382 10.1135 27.8717 10.1135 46.8764C10.1135 50.8629 10.7165 54.7033 11.8222 58.2661L9.19386 55.0285L7.42712 56.8666L16.9087 68.5652C22.482 76.3592 31.0017 81.3543 40.5413 81.3543H237.862C254.641 81.3543 268.261 65.8647 268.261 46.86C268.261 38.2364 265.46 30.3454 260.819 24.2924ZM230.98 78.6703L221.254 66.6778L219.487 68.5174L227.719 78.6703H214.042L204.331 66.6942L202.564 68.5338L210.782 78.6703H197.263L187.537 66.6614L185.77 68.501L194.015 78.6539H180.454L170.729 66.6614L168.96 68.501L177.192 78.6539H163.358L153.632 66.6614L151.866 68.501L160.098 78.6539H146.262L136.551 66.6778L134.784 68.5174L143.002 78.6539H129.195L119.469 66.6614L117.703 68.501L125.935 78.6539H112.099L102.373 66.6614L100.606 68.501L108.839 78.6539H95.0028L85.2917 66.6778L83.5249 68.5174L91.7424 78.6539H77.9357L68.2101 66.6614L66.4434 68.5174L74.6754 78.6703H60.841L51.1285 66.6778L49.3618 68.5174L57.5938 78.6539H43.8016L34.076 66.6614L32.2802 68.501L40.5123 78.6539C32.8265 78.6375 25.8585 75.1224 20.801 69.4275L20.8301 69.3962L18.5751 66.6301C14.7672 61.2112 12.4832 54.3452 12.4832 46.8764C12.4832 29.3368 25.0536 15.1004 40.5123 15.1004H237.833C245.648 15.1004 252.716 18.7289 257.816 24.5699L259.052 26.0992C262.012 29.9873 264.166 34.69 265.201 39.8641L257.816 30.7527L256.049 32.5908L265.818 44.6474C265.862 45.3799 265.891 46.1289 265.891 46.8764C265.891 49.8215 265.531 52.6697 264.871 55.3702L256.193 44.6802L254.426 46.5183L263.994 58.3317C262.73 62.0244 260.877 65.3932 258.55 68.2727L249.369 56.9487L247.602 58.7868L256.854 70.2093C254.211 72.9754 251.093 75.188 247.66 76.6517L238.121 64.889L236.354 66.7271L245.145 77.5632C242.803 78.2794 240.346 78.6703 237.804 78.6703H230.98Z"
            fill="#040000" />
    </g>
    <path
        d="M227.834 67.6223H30.499C14.4229 67.6223 1.26404 52.7175 1.26404 34.4946C1.26404 16.2553 14.4229 1.35046 30.499 1.35046H227.82C243.896 1.35046 257.069 16.2717 257.069 34.4782C257.069 52.7175 243.91 67.6223 227.834 67.6223Z"
        fill="#F4F4F4" />
    <mask id="mask1_2_22" style="mask-type:luminance" maskUnits="userSpaceOnUse" x="0" y="0"
        width="259" height="69">
        <path d="M0 0H258.401V68.9917H0V0Z" fill="white" />
    </mask>
    <g mask="url(#mask1_2_22)">
        <path
            d="M227.834 0H30.4989C13.7195 0 0.071167 15.4255 0.071167 34.4615C0.071167 53.4991 13.7195 68.9559 30.4989 68.9559H227.82C244.599 68.9559 258.247 53.4663 258.247 34.4615C258.247 15.4583 244.614 0 227.834 0ZM73.5116 66.2554H30.528C15.0403 66.2554 2.46992 51.9862 2.46992 34.4779C2.46992 16.9712 15.0403 2.71688 30.4989 2.71688H73.5116L75.8536 2.68555H227.82C243.306 2.68555 255.878 16.9548 255.878 34.4615C255.878 52.0011 243.278 66.239 227.82 66.239H73.5116V66.2554Z"
            fill="#3A3A3A" />
    </g>
</svg>