<svg width="56" height="157" viewBox="0 0 56 157" fill="none" xmlns="http://www.w3.org/2000/svg">
<path d="M30.6755 4.33923C23.7184 7.43128 17.1774 14.3981 11.5687 19.347C7.98513 22.5089 2.34349 26.8082 4.49451 32.3053C5.19179 34.0872 5.60372 35.8581 6.01512 37.7266C7.12068 42.7477 10.3081 46.7916 13.3207 50.8501C20.3491 60.319 28.6178 69.7906 34.1134 80.2376C38.0717 87.7624 38.8916 96.454 41.9148 104.336C43.6155 108.77 44.14 112.413 44.8899 117.129C46.1771 125.225 47.7984 133.272 49.3195 141.327C49.9932 144.894 51.0179 155.606 51.4682 152.004C52.0076 147.689 51.6599 143.178 52.0963 138.814" stroke="#F6CD46" stroke-width="7" stroke-linecap="round"/>
</svg>
