<svg width="52" height="169" viewBox="0 0 52 169" fill="none" xmlns="http://www.w3.org/2000/svg">
<path d="M36.8046 161.572C34.5646 162.201 33.456 164.192 33.7815 166.675C34.0707 168.872 35.7351 169.063 37.2737 168.834C40.5663 168.346 43.8694 168.14 47.1533 167.478C51.4959 166.598 52.8283 162.713 50.8354 157.409C49.5194 153.906 47.8203 150.83 46.1223 147.738C45.3358 146.306 44.5198 145.05 43.1484 146.277C41.6335 147.63 41.4464 149.54 42.2429 151.628C42.6276 152.638 42.8833 153.756 43.4311 155.621C38.8544 153.992 35.6061 150.565 32.4269 147.367C28.7917 143.71 25.263 139.758 22.1118 135.17C14.0472 123.424 8.05414 110.038 6.46542 92.9148C4.88132 75.8576 7.56824 59.8525 14.4778 44.7845C21.9459 28.493 32.2671 16.9378 43.8223 7.37597C44.4131 6.88727 45.1938 6.59292 45.5573 5.88062C46.1309 4.75722 47.502 4.06013 46.7372 1.96867C46.012 -0.0138909 44.9118 0.429966 43.9469 1.11739C40.1028 3.85397 36.142 6.36161 32.5455 9.71704C23.2435 18.3983 15.1948 29.0943 9.2694 42.6904C2.1289 59.0828 -1.06414 76.6625 0.944848 94.8816C2.67526 110.565 7.05839 124.518 14.4462 136.341C20.8641 146.612 28.4394 154.534 36.8046 161.572Z" fill="black"/>
</svg>
