<svg width="162" height="216" viewBox="0 0 162 216" fill="none" xmlns="http://www.w3.org/2000/svg">
<path d="M44.8206 3.99292C42.2262 5.79768 40.1187 8.46198 37.8013 10.5931C32.8318 15.1633 27.5993 19.4358 22.7676 24.1601C16.3277 30.4569 11.6274 37.2586 8.51958 45.7941C5.82975 53.1816 3.34929 62.1158 4.22422 70.0995C5.00705 77.2429 7.50956 84.51 9.35769 91.4191C11.7986 100.544 13.7351 109.618 15.3817 118.92C19.0536 139.664 25.3587 158.637 36.8061 176.436C42.1181 184.695 47.5195 193.553 55.4542 199.589C61.1664 203.934 67.9996 207.634 74.9405 209.541C88.5203 213.273 104.219 212.188 116.427 204.722C128.276 197.477 138.049 183.302 142.985 170.412C146.973 159.998 146.249 145.561 139.214 136.52C132.206 127.516 120.332 122.786 109.618 120.02C103.714 118.496 96.5933 116.764 90.4456 116.667C88.9659 116.644 87.0438 117.198 86.7789 118.92C86.7515 119.098 86.4025 119.53 86.517 119.391C88.735 116.706 92.2529 114.365 95.0029 112.32C101.639 107.384 109.158 103.834 116.584 100.272C122.634 97.37 129.273 93.4159 135.809 91.6287C138.015 91.0254 139.462 95.0148 140.314 96.3431C142.768 100.171 145.458 103.853 147.7 107.815C151.907 115.251 154.216 123.782 157.967 131.282" stroke="#F6CD46" stroke-width="7" stroke-linecap="round"/>
</svg>
