<svg width="274" height="226" viewBox="0 0 274 226" fill="none" xmlns="http://www.w3.org/2000/svg">
<g clip-path="url(#clip0_116_1521)">
<path d="M243.523 96.6838C243.443 96.5192 243.371 96.3513 243.307 96.1795C243.243 96.0081 243.188 95.8339 243.141 95.6569C243.094 95.4799 243.056 95.3006 243.027 95.1201C242.998 94.9396 242.977 94.758 242.966 94.5748C242.955 94.3924 242.952 94.2102 242.959 94.0263C242.965 93.8437 242.98 93.6616 243.005 93.48C243.029 93.2988 243.062 93.1193 243.104 92.9415C243.146 92.7629 243.197 92.5877 243.256 92.4149C243.315 92.241 243.384 92.0716 243.459 91.9051C243.535 91.7391 243.619 91.5763 243.711 91.4178C243.802 91.2604 243.901 91.1064 244.008 90.9578C244.116 90.81 244.23 90.6671 244.35 90.53C244.471 90.3921 244.599 90.2616 244.732 90.1364C244.866 90.0125 245.006 89.8943 245.15 89.7831C245.296 89.6724 245.446 89.5685 245.602 89.4721C245.757 89.3761 245.917 89.2879 246.082 89.2075L244.228 85.4132C244.064 85.4924 243.896 85.5642 243.725 85.6274C243.553 85.6911 243.38 85.7465 243.203 85.7922C243.027 85.8387 242.848 85.8761 242.668 85.9055C242.488 85.9336 242.306 85.9543 242.124 85.9652C241.941 85.9762 241.76 85.9778 241.577 85.9708C241.395 85.9642 241.212 85.9478 241.032 85.9233C240.85 85.8984 240.672 85.8649 240.494 85.8229C240.316 85.7801 240.141 85.7295 239.968 85.6696C239.795 85.6101 239.626 85.5417 239.46 85.4655C239.294 85.3894 239.132 85.3051 238.975 85.2135C238.816 85.1215 238.664 85.0215 238.515 84.9145C238.367 84.8071 238.225 84.6928 238.088 84.5721C237.951 84.4514 237.82 84.3234 237.696 84.1893C237.572 84.0552 237.454 83.9159 237.343 83.7701C237.233 83.6252 237.13 83.4746 237.033 83.3188C236.938 83.1625 236.85 83.0027 236.77 82.8389C236.689 82.6742 236.617 82.5064 236.553 82.3358C236.49 82.1639 236.434 81.9901 236.387 81.8132C236.341 81.637 236.303 81.4585 236.274 81.278C236.245 81.0975 236.224 80.9159 236.213 80.7335C236.202 80.5512 236.199 80.3689 236.205 80.1863C236.212 80.0033 236.227 79.8216 236.252 79.64C236.276 79.4587 236.309 79.2792 236.351 79.1015C236.393 78.9237 236.444 78.7488 236.503 78.5757C236.562 78.4029 236.629 78.2331 236.705 78.0671C236.782 77.901 236.865 77.7387 236.957 77.581C237.048 77.4228 237.148 77.2696 237.254 77.1214C237.361 76.9736 237.474 76.8311 237.595 76.694C237.716 76.5569 237.844 76.4256 237.977 76.3016C238.111 76.1773 238.25 76.0595 238.395 75.9483C238.54 75.838 238.69 75.7342 238.846 75.6378C239.001 75.5426 239.161 75.4536 239.324 75.3735L237.008 70.6306C236.843 70.7118 236.676 70.7837 236.504 70.8481C236.333 70.9114 236.159 70.9668 235.982 71.0137C235.805 71.0606 235.626 71.0985 235.446 71.1278C235.265 71.1571 235.084 71.1774 234.901 71.1888C234.719 71.2005 234.536 71.2029 234.353 71.1959C234.17 71.1897 233.988 71.1742 233.808 71.1497C233.626 71.1248 233.446 71.0917 233.267 71.0493C233.09 71.0072 232.914 70.9559 232.741 70.8964C232.569 70.8377 232.398 70.7697 232.232 70.6935C232.065 70.6177 231.903 70.5335 231.745 70.4415C231.587 70.3491 231.434 70.2494 231.285 70.1416C231.136 70.0346 230.994 69.9204 230.857 69.7988C230.72 69.6781 230.588 69.5505 230.464 69.4164C230.34 69.2823 230.221 69.1422 230.111 68.9964C230 68.8507 229.896 68.7005 229.8 68.5446C229.704 68.3884 229.616 68.2278 229.536 68.0639C229.455 67.8993 229.383 67.7306 229.318 67.5592C229.255 67.3882 229.2 67.2132 229.153 67.0362C229.106 66.8592 229.068 66.6799 229.039 66.4994C229.01 66.3189 228.99 66.1369 228.979 65.9545C228.968 65.7713 228.965 65.5891 228.972 65.4061C228.979 65.223 228.994 65.0409 229.019 64.8597C229.043 64.6781 229.076 64.4986 229.119 64.3196C229.161 64.1418 229.212 63.9666 229.272 63.7934C229.331 63.6203 229.399 63.4505 229.475 63.2844C229.551 63.1172 229.636 62.9553 229.728 62.7975C229.819 62.6394 229.919 62.4862 230.026 62.3383C230.133 62.1897 230.248 62.0472 230.369 61.9102C230.491 61.7727 230.618 61.6426 230.752 61.5182C230.886 61.3939 231.026 61.2757 231.172 61.165C231.318 61.0542 231.468 60.9512 231.624 60.8556C231.779 60.7596 231.94 60.6722 232.104 60.5918L229.788 55.8489C229.623 55.9293 229.455 56.0019 229.284 56.0656C229.113 56.1296 228.939 56.1851 228.762 56.232C228.585 56.2788 228.406 56.3167 228.225 56.346C228.045 56.3754 227.864 56.3957 227.681 56.407C227.499 56.418 227.315 56.4212 227.132 56.4142C226.95 56.408 226.768 56.3924 226.587 56.3671C226.406 56.343 226.226 56.3091 226.047 56.2675C225.869 56.2255 225.694 56.1741 225.521 56.1146C225.348 56.0551 225.178 55.9879 225.012 55.9109C224.845 55.8352 224.683 55.7509 224.524 55.6589C224.367 55.5665 224.213 55.4669 224.065 55.3599C223.916 55.2529 223.774 55.1386 223.637 55.0171C223.5 54.8963 223.368 54.7687 223.244 54.6347C223.119 54.4998 223.001 54.3605 222.891 54.2147C222.78 54.0689 222.676 53.9179 222.579 53.7621C222.484 53.6058 222.395 53.446 222.315 53.2814C222.235 53.1167 222.163 52.9489 222.098 52.7775C222.035 52.6056 221.98 52.4314 221.933 52.2544C221.886 52.0775 221.848 51.8981 221.819 51.7176C221.79 51.5371 221.77 51.3551 221.758 51.1719C221.747 50.9896 221.744 50.8065 221.751 50.6235C221.758 50.4405 221.774 50.2584 221.798 50.0772C221.823 49.8956 221.856 49.7161 221.899 49.5379C221.941 49.3601 221.992 49.184 222.051 49.0109C222.111 48.8377 222.178 48.6688 222.254 48.5019C222.331 48.3354 222.415 48.1735 222.507 48.015C222.599 47.8576 222.699 47.7044 222.806 47.5558C222.913 47.408 223.028 47.2647 223.149 47.1284C223.27 46.9909 223.398 46.8608 223.531 46.7357C223.665 46.6113 223.806 46.494 223.952 46.3832C224.097 46.2724 224.248 46.1695 224.404 46.0731C224.559 45.9779 224.719 45.8896 224.884 45.81L222.181 40.2766C221.772 40.4755 221.354 40.6542 220.927 40.813C220.501 40.9717 220.067 41.1083 219.627 41.2249C219.186 41.3407 218.741 41.4344 218.292 41.5065C217.843 41.579 217.39 41.6286 216.936 41.6566C216.482 41.6838 216.027 41.6897 215.572 41.6725C215.117 41.6552 214.664 41.6167 214.213 41.5551C213.762 41.4934 213.315 41.4106 212.871 41.3045C212.428 41.1993 211.992 41.0725 211.561 40.9238C211.13 40.7762 210.708 40.6068 210.294 40.4174C209.88 40.2273 209.476 40.0176 209.082 39.7889C208.689 39.559 208.307 39.3112 207.938 39.044C207.568 38.7771 207.213 38.4929 206.872 38.1909C206.531 37.8889 206.204 37.5715 205.894 37.2379C205.584 36.9044 205.291 36.5555 205.014 36.1933C204.738 35.8312 204.481 35.4557 204.241 35.0674C204.002 34.6799 203.782 34.2811 203.582 33.8715L33.5646 116.917C33.7647 117.326 33.9435 117.744 34.1018 118.17C34.2613 118.596 34.3988 119.029 34.5154 119.47C34.6312 119.91 34.7261 120.354 34.7986 120.803C34.8719 121.253 34.922 121.704 34.9512 122.159C34.9792 122.613 34.9851 123.067 34.9695 123.521C34.9535 123.977 34.915 124.43 34.855 124.88C34.7941 125.331 34.7121 125.778 34.6077 126.22C34.5033 126.663 34.3777 127.1 34.231 127.531C34.0839 127.961 33.9157 128.383 33.7275 128.797C33.539 129.211 33.331 129.614 33.1031 130.007C32.8752 130.401 32.6282 130.782 32.3631 131.151C32.0975 131.521 31.8145 131.876 31.5141 132.217C31.2141 132.558 30.8975 132.884 30.566 133.194C30.2337 133.505 29.8869 133.798 29.5259 134.075C29.1645 134.351 28.7911 134.608 28.4052 134.849C28.0189 135.088 27.621 135.308 27.2138 135.509L29.8662 140.939C30.0301 140.859 30.1979 140.787 30.3689 140.724C30.5399 140.66 30.7141 140.606 30.8911 140.559C31.0677 140.513 31.2462 140.476 31.4267 140.446C31.6063 140.418 31.7875 140.398 31.9699 140.387C32.1523 140.376 32.3349 140.374 32.5175 140.38C32.6997 140.388 32.8818 140.403 33.0626 140.429C33.243 140.453 33.4229 140.487 33.6007 140.529C33.7777 140.571 33.9537 140.622 34.1261 140.682C34.2992 140.742 34.4682 140.809 34.6342 140.886C34.8003 140.962 34.9622 141.046 35.1199 141.138C35.2777 141.231 35.4309 141.33 35.5787 141.438C35.7269 141.544 35.869 141.658 36.0065 141.78C36.1428 141.901 36.2741 142.029 36.3984 142.163C36.5223 142.296 36.6397 142.436 36.7501 142.581C36.8608 142.727 36.9646 142.877 37.0602 143.034C37.1562 143.189 37.2444 143.348 37.3249 143.513C37.4049 143.677 37.4767 143.845 37.5404 144.017C37.6044 144.187 37.6595 144.362 37.7059 144.538C37.7528 144.715 37.7911 144.893 37.8204 145.074C37.8498 145.254 37.8697 145.436 37.8814 145.618C37.8924 145.801 37.8952 145.983 37.8882 146.166C37.882 146.349 37.8664 146.531 37.8419 146.711C37.8178 146.892 37.7848 147.072 37.7428 147.25C37.7007 147.427 37.6506 147.603 37.5911 147.776C37.5324 147.949 37.464 148.118 37.389 148.285C37.3129 148.451 37.2286 148.613 37.1374 148.771C37.0459 148.928 36.9462 149.081 36.84 149.23C36.733 149.378 36.6192 149.521 36.4985 149.658C36.3777 149.795 36.2505 149.926 36.1177 150.05C35.9836 150.175 35.8443 150.292 35.6993 150.403C35.554 150.514 35.4034 150.617 35.2484 150.713C35.0934 150.809 34.9335 150.898 34.7697 150.978L37.0864 155.721C37.2506 155.641 37.4184 155.569 37.5895 155.506C37.7605 155.443 37.9343 155.388 38.1117 155.341C38.2878 155.295 38.4663 155.258 38.6468 155.228C38.8269 155.2 39.0077 155.18 39.1901 155.169C39.3724 155.158 39.5551 155.156 39.7381 155.163C39.9199 155.169 40.1024 155.186 40.2828 155.21C40.4636 155.236 40.6431 155.269 40.8208 155.311C40.9982 155.354 41.1739 155.404 41.3462 155.464C41.5193 155.524 41.6887 155.592 41.8548 155.668C42.0208 155.744 42.1827 155.829 42.3401 155.92C42.4978 156.013 42.651 156.112 42.7988 156.22C42.9475 156.327 43.0895 156.441 43.2266 156.562C43.3629 156.683 43.4942 156.81 43.6186 156.944C43.7429 157.078 43.8598 157.218 43.9706 157.364C44.081 157.509 44.1848 157.659 44.2804 157.815C44.3768 157.971 44.465 158.131 44.545 158.295C44.6254 158.459 44.6973 158.627 44.7605 158.798C44.825 158.97 44.8796 159.144 44.9265 159.321C44.973 159.497 45.0113 159.675 45.0406 159.856C45.0699 160.036 45.0898 160.218 45.1016 160.4C45.1125 160.582 45.1153 160.765 45.1083 160.948C45.1021 161.13 45.0866 161.312 45.0625 161.494C45.0384 161.675 45.0053 161.854 44.9633 162.032C44.9213 162.21 44.8707 162.385 44.8112 162.558C44.7526 162.731 44.6845 162.901 44.6092 163.067C44.533 163.233 44.4492 163.395 44.3576 163.553C44.2664 163.711 44.1667 163.864 44.0602 164.011C43.9532 164.16 43.8393 164.303 43.7186 164.44C43.5979 164.577 43.4711 164.708 43.3378 164.832C43.2037 164.956 43.0644 165.074 42.9199 165.185C42.7741 165.296 42.6239 165.4 42.4689 165.496C42.3135 165.591 42.1541 165.68 41.9902 165.76L44.3069 170.503C44.4704 170.422 44.6382 170.35 44.8096 170.286C44.9815 170.222 45.1553 170.167 45.3322 170.12C45.5092 170.073 45.6877 170.036 45.8682 170.006C46.0487 169.977 46.2303 169.956 46.4135 169.945C46.5955 169.933 46.7781 169.931 46.9611 169.938C47.1438 169.944 47.3259 169.96 47.5075 169.985C47.6887 170.009 47.8682 170.042 48.0464 170.085C48.225 170.126 48.4002 170.178 48.5734 170.237C48.7461 170.296 48.9163 170.364 49.0824 170.44C49.2484 170.516 49.4115 170.601 49.5689 170.693C49.7274 170.785 49.8806 170.884 50.0297 170.992C50.1775 171.099 50.3204 171.213 50.4579 171.335C50.595 171.456 50.7255 171.584 50.8506 171.717C50.975 171.851 51.0931 171.991 51.2039 172.137C51.3147 172.283 51.4185 172.433 51.514 172.589C51.6105 172.745 51.6991 172.906 51.7791 173.07C51.8595 173.234 51.9317 173.403 51.9954 173.575C52.0598 173.746 52.1145 173.92 52.1614 174.097C52.2082 174.274 52.2461 174.454 52.2754 174.634C52.3039 174.815 52.3247 174.997 52.3356 175.179C52.347 175.362 52.3489 175.545 52.3428 175.728C52.3358 175.911 52.3206 176.094 52.2953 176.274C52.2712 176.456 52.2377 176.636 52.1957 176.814C52.1537 176.992 52.1023 177.167 52.0428 177.34C51.9833 177.513 51.9161 177.683 51.8391 177.85C51.7633 178.016 51.6791 178.178 51.5867 178.336C51.4947 178.495 51.395 178.648 51.2876 178.796C51.1807 178.944 51.0664 179.086 50.9457 179.224C50.8241 179.361 50.6961 179.492 50.562 179.616C50.428 179.74 50.2886 179.858 50.1429 179.969C49.9971 180.079 49.8465 180.182 49.6903 180.278C49.5345 180.374 49.3742 180.462 49.2104 180.542L51.0637 184.336C51.2292 184.255 51.3979 184.183 51.5705 184.119C51.7432 184.055 51.9178 183.999 52.096 183.953C52.2738 183.905 52.4539 183.867 52.6357 183.838C52.817 183.809 52.9998 183.788 53.1842 183.777C53.3674 183.766 53.5509 183.764 53.7351 183.771C53.9189 183.778 54.1022 183.794 54.2847 183.818C54.4671 183.843 54.6482 183.877 54.8272 183.919C55.0062 183.962 55.1835 184.013 55.3571 184.074C55.531 184.133 55.7016 184.202 55.8697 184.278C56.0374 184.355 56.2005 184.44 56.3595 184.533C56.5184 184.625 56.6728 184.725 56.8219 184.833C56.9709 184.941 57.1146 185.057 57.2525 185.179C57.3908 185.3 57.5225 185.429 57.6477 185.564C57.7732 185.699 57.8918 185.84 58.003 185.986C58.1149 186.132 58.2187 186.285 58.3155 186.441C58.4123 186.598 58.5014 186.759 58.5822 186.925C58.663 187.09 58.7356 187.26 58.7997 187.433C58.8637 187.605 58.92 187.781 58.9664 187.959C59.0137 188.137 59.052 188.317 59.0813 188.499C59.111 188.681 59.1313 188.863 59.1423 189.048C59.1536 189.231 59.1564 189.415 59.1498 189.599C59.1432 189.783 59.1276 189.967 59.1031 190.15C59.0786 190.332 59.0451 190.513 59.0026 190.692C58.9594 190.871 58.9088 191.048 58.8489 191.222C58.7898 191.396 58.7209 191.567 58.6448 191.735C58.5682 191.902 58.4835 192.065 58.3907 192.224C58.2983 192.384 58.1978 192.538 58.0904 192.688C57.9826 192.837 57.8679 192.98 57.7468 193.118C57.6244 193.256 57.4959 193.388 57.3615 193.513C57.2266 193.638 57.0856 193.757 56.9394 193.869C56.7928 193.98 56.6418 194.084 56.4852 194.181C56.3281 194.277 56.1675 194.365 56.002 194.446L58.9753 200.533C59.3841 200.334 59.8016 200.154 60.2283 199.995C60.6551 199.837 61.0893 199.7 61.5295 199.583C61.9693 199.468 62.4142 199.373 62.8638 199.301C63.3134 199.228 63.7656 199.178 64.22 199.151C64.6741 199.123 65.1292 199.117 65.5844 199.134C66.0393 199.151 66.4927 199.19 66.9439 199.252C67.3955 199.312 67.8424 199.396 68.2854 199.502C68.7285 199.607 69.166 199.734 69.5964 199.882C70.0272 200.031 70.4497 200.2 70.8638 200.389C71.2783 200.579 71.6821 200.789 72.075 201.018C72.4692 201.247 72.8505 201.496 73.2203 201.763C73.5889 202.03 73.9442 202.315 74.2855 202.617C74.6277 202.918 74.9533 203.236 75.2634 203.57C75.5738 203.904 75.8666 204.252 76.1425 204.616C76.4188 204.978 76.6763 205.353 76.9157 205.741C77.1547 206.129 77.374 206.528 77.5741 206.938L247.56 123.908C247.36 123.498 247.18 123.08 247.022 122.653C246.862 122.226 246.725 121.792 246.608 121.352C246.492 120.91 246.397 120.465 246.324 120.015C246.252 119.565 246.202 119.113 246.173 118.658C246.145 118.203 246.139 117.747 246.156 117.293C246.172 116.838 246.211 116.383 246.271 115.933C246.333 115.481 246.416 115.033 246.52 114.589C246.626 114.146 246.752 113.709 246.899 113.278C247.047 112.848 247.215 112.425 247.405 112.011C247.595 111.596 247.803 111.192 248.032 110.799C248.262 110.405 248.509 110.023 248.776 109.654C249.042 109.285 249.326 108.929 249.628 108.588C249.929 108.246 250.246 107.921 250.58 107.611C250.913 107.301 251.261 107.008 251.623 106.732C251.986 106.456 252.36 106.199 252.747 105.96C253.135 105.721 253.534 105.501 253.943 105.302L250.969 99.2144C250.806 99.294 250.639 99.3654 250.468 99.4287C250.299 99.4923 250.125 99.5466 249.949 99.593C249.774 99.6391 249.596 99.677 249.417 99.7059C249.237 99.7348 249.057 99.7548 248.875 99.7665C248.694 99.7779 248.513 99.7803 248.331 99.7737C248.149 99.7671 247.968 99.752 247.788 99.7283C247.608 99.7038 247.429 99.6716 247.252 99.63C247.075 99.5888 246.9 99.5382 246.728 99.48C246.556 99.4213 246.387 99.3545 246.221 99.2791C246.056 99.2046 245.894 99.1216 245.736 99.0312C245.579 98.9397 245.425 98.842 245.278 98.7367C245.129 98.6305 244.987 98.5175 244.851 98.3984C244.713 98.2789 244.582 98.1521 244.457 98.0204C244.332 97.8876 244.214 97.7495 244.103 97.6058C243.991 97.4616 243.887 97.3126 243.791 97.1588C243.694 97.0051 243.604 96.846 243.523 96.6838Z" fill="#F24C00"/>
<mask id="mask0_116_1521" style="mask-type:luminance" maskUnits="userSpaceOnUse" x="20" y="26" width="241" height="188">
<path d="M20.1378 122.771L216.422 26.8958L260.979 118.117L64.6951 213.992L20.1378 122.771Z" fill="white"/>
</mask>
<g mask="url(#mask0_116_1521)">
<path d="M247.874 124.548L77.8561 207.593C77.7734 207.634 77.6851 207.657 77.5937 207.663C77.502 207.668 77.4128 207.656 77.325 207.625C77.2384 207.596 77.1602 207.55 77.091 207.489C77.0218 207.429 76.9671 207.356 76.9267 207.273C76.737 206.885 76.5289 206.507 76.3024 206.138C76.0754 205.771 75.8312 205.415 75.569 205.071C75.3076 204.727 75.0297 204.397 74.7358 204.08C74.4415 203.764 74.1328 203.462 73.8093 203.176C73.485 202.89 73.1483 202.62 72.7983 202.367C72.4484 202.114 72.0869 201.879 71.7134 201.66C71.3395 201.443 70.9573 201.244 70.5639 201.064C70.1717 200.884 69.7708 200.724 69.3623 200.584C68.9547 200.443 68.5399 200.323 68.1196 200.223C67.6994 200.122 67.2753 200.044 66.8481 199.985C66.4197 199.927 65.9899 199.89 65.5591 199.874C65.1271 199.858 64.6957 199.864 64.2649 199.89C63.8337 199.917 63.4051 199.964 62.9792 200.033C62.5529 200.101 62.1309 200.19 61.714 200.301C61.2959 200.41 60.8849 200.541 60.4803 200.691C60.076 200.842 59.6798 201.011 59.2915 201.201C59.2088 201.241 59.1217 201.264 59.0299 201.27C58.9377 201.276 58.8486 201.264 58.7616 201.233C58.6742 201.204 58.5959 201.158 58.5276 201.097C58.458 201.036 58.4037 200.964 58.3632 200.881L55.3708 194.755C55.3303 194.672 55.3071 194.585 55.3018 194.493C55.2954 194.401 55.3076 194.312 55.3378 194.224C55.3675 194.137 55.4127 194.059 55.4741 193.99C55.5347 193.921 55.6065 193.866 55.6892 193.826C55.8265 193.752 55.9594 193.671 56.0894 193.584C56.2183 193.496 56.3435 193.404 56.4635 193.305C56.5843 193.205 56.6998 193.101 56.8105 192.991C56.9208 192.88 57.0258 192.765 57.1256 192.645C57.225 192.525 57.3183 192.4 57.4055 192.271C57.4936 192.142 57.5747 192.009 57.6498 191.872C57.724 191.735 57.7926 191.595 57.8535 191.452C57.9155 191.309 57.9699 191.163 58.0178 191.013C58.0652 190.865 58.1049 190.714 58.1382 190.562C58.1714 190.41 58.1977 190.256 58.2154 190.101C58.234 189.946 58.2452 189.79 58.2491 189.634C58.2518 189.478 58.2479 189.322 58.2367 189.166C58.2255 189.011 58.207 188.856 58.1803 188.702C58.1548 188.548 58.1212 188.396 58.0806 188.244C58.0396 188.094 57.9924 187.945 57.9375 187.8C57.8822 187.653 57.8203 187.51 57.7519 187.37C57.6835 187.23 57.6085 187.093 57.527 186.959C57.4459 186.826 57.3574 186.697 57.2639 186.572C57.1697 186.448 57.0705 186.328 56.9643 186.212C56.8594 186.097 56.7491 185.988 56.6331 185.883C56.517 185.779 56.3964 185.679 56.2717 185.586C56.1462 185.493 56.0165 185.406 55.8827 185.325C55.7497 185.244 55.6122 185.17 55.4718 185.103C55.3309 185.035 55.1876 184.974 55.0413 184.92C54.8946 184.867 54.7458 184.819 54.5945 184.78C54.4444 184.74 54.2914 184.708 54.1379 184.682C53.9836 184.657 53.8289 184.639 53.6728 184.629C53.5176 184.619 53.3618 184.616 53.206 184.621C53.0498 184.625 52.8944 184.637 52.7397 184.657C52.585 184.677 52.4314 184.703 52.279 184.738C52.127 184.772 51.9766 184.813 51.829 184.861C51.6801 184.91 51.5348 184.965 51.392 185.028C51.3092 185.068 51.2218 185.091 51.1304 185.097C51.0378 185.103 50.9486 185.09 50.8616 185.06C50.7742 185.03 50.696 184.985 50.6276 184.924C50.5585 184.863 50.5037 184.79 50.4633 184.708L48.6099 180.913C48.5691 180.83 48.5455 180.742 48.5398 180.649C48.535 180.556 48.5476 180.466 48.5782 180.379C48.6084 180.291 48.6552 180.212 48.717 180.144C48.7796 180.074 48.8527 180.02 48.9366 179.98C49.08 179.91 49.221 179.834 49.3567 179.75C49.4932 179.666 49.6254 179.575 49.7527 179.478C49.8808 179.381 50.0032 179.279 50.1204 179.17C50.2376 179.061 50.3492 178.947 50.4559 178.826C50.5618 178.707 50.662 178.582 50.7558 178.452C50.8496 178.322 50.9364 178.188 51.0176 178.049C51.0984 177.911 51.1719 177.769 51.2389 177.623C51.3055 177.477 51.3648 177.328 51.4167 177.177C51.4687 177.026 51.5133 176.872 51.5507 176.716C51.5872 176.56 51.6168 176.403 51.6386 176.244C51.6597 176.086 51.673 175.926 51.679 175.766C51.6849 175.605 51.6827 175.445 51.6736 175.285C51.6633 175.125 51.6456 174.966 51.6198 174.807C51.5943 174.649 51.5615 174.493 51.5202 174.338C51.4792 174.183 51.4309 174.03 51.3748 173.88C51.3195 173.729 51.256 173.583 51.1856 173.439C51.1152 173.294 51.0382 173.154 50.9534 173.017C50.8695 172.881 50.779 172.75 50.6819 172.621C50.5852 172.494 50.4816 172.371 50.3726 172.254C50.2636 172.137 50.1488 172.024 50.0291 171.919C49.9082 171.812 49.7832 171.712 49.6532 171.618C49.5231 171.524 49.3894 171.438 49.2515 171.357C49.1124 171.276 48.97 171.202 48.8247 171.135C48.6789 171.069 48.5298 171.009 48.3786 170.957C48.2274 170.905 48.0737 170.861 47.9179 170.824C47.7617 170.787 47.6046 170.758 47.4458 170.736C47.2861 170.715 47.1273 170.701 46.9671 170.695C46.8073 170.69 46.647 170.692 46.4875 170.702C46.3268 170.712 46.168 170.729 46.0104 170.756C45.8524 170.781 45.6959 170.814 45.5406 170.855C45.3861 170.896 45.2332 170.944 45.083 171.001C44.9337 171.056 44.7863 171.12 44.6429 171.19C44.5602 171.231 44.4732 171.254 44.3805 171.259C44.2892 171.265 44.1996 171.252 44.1122 171.223C44.0256 171.193 43.9474 171.147 43.8782 171.087C43.8095 171.025 43.7543 170.954 43.7139 170.871L41.3972 166.128C41.3568 166.045 41.3343 165.958 41.3278 165.865C41.3226 165.774 41.3344 165.684 41.3642 165.597C41.3943 165.509 41.4395 165.431 41.5005 165.363C41.5619 165.294 41.6337 165.239 41.7165 165.199C41.8598 165.129 41.9996 165.051 42.1361 164.967C42.2727 164.883 42.404 164.793 42.5313 164.696C42.6582 164.599 42.7806 164.496 42.8978 164.387C43.0151 164.278 43.1262 164.163 43.2329 164.043C43.3388 163.923 43.4382 163.799 43.532 163.669C43.6258 163.539 43.7126 163.405 43.793 163.266C43.8738 163.128 43.9473 162.986 44.0135 162.841C44.08 162.695 44.1393 162.546 44.1913 162.395C44.2432 162.244 44.2879 162.09 44.3244 161.934C44.3617 161.778 44.3905 161.621 44.4124 161.462C44.4334 161.304 44.4471 161.145 44.4531 160.985C44.4591 160.824 44.4569 160.664 44.4469 160.505C44.4366 160.344 44.4189 160.186 44.3935 160.028C44.368 159.87 44.3348 159.712 44.2939 159.558C44.2529 159.403 44.2046 159.25 44.1485 159.1C44.0924 158.95 44.0297 158.803 43.9593 158.659C43.8893 158.516 43.8115 158.375 43.7276 158.238C43.644 158.103 43.5531 157.971 43.4564 157.843C43.3593 157.715 43.2561 157.593 43.1471 157.476C43.0381 157.359 42.9234 157.246 42.8037 157.14C42.684 157.035 42.5589 156.934 42.4289 156.841C42.2989 156.747 42.1651 156.66 42.0269 156.578C41.8882 156.498 41.7466 156.424 41.6008 156.358C41.4555 156.291 41.3068 156.232 41.1552 156.179C41.004 156.127 40.8503 156.083 40.6945 156.046C40.5391 156.008 40.382 155.98 40.2231 155.958C40.0647 155.937 39.9055 155.922 39.7457 155.917C39.5855 155.911 39.4261 155.913 39.2661 155.922C39.1058 155.932 38.947 155.95 38.789 155.975C38.631 156.001 38.4745 156.034 38.32 156.075C38.1655 156.116 38.0134 156.163 37.8633 156.22C37.7131 156.276 37.5662 156.338 37.4228 156.408C37.3401 156.449 37.253 156.472 37.1604 156.478C37.0686 156.483 36.9794 156.471 36.892 156.441C36.8051 156.411 36.7272 156.366 36.6577 156.304C36.5893 156.243 36.5341 156.172 36.4937 156.089L34.177 151.346C34.1366 151.263 34.1138 151.175 34.1077 151.084C34.1024 150.992 34.1143 150.902 34.144 150.815C34.1742 150.728 34.2194 150.65 34.2799 150.581C34.3417 150.512 34.4132 150.457 34.4959 150.416C34.6401 150.346 34.7819 150.268 34.9189 150.183C35.0562 150.099 35.1884 150.008 35.3169 149.91C35.445 149.813 35.5679 149.709 35.6867 149.599C35.8044 149.489 35.9167 149.374 36.023 149.253C36.1302 149.132 36.2304 149.007 36.3246 148.876C36.4192 148.745 36.5065 148.61 36.5877 148.471C36.6685 148.331 36.7428 148.188 36.8102 148.042C36.8772 147.895 36.9365 147.746 36.9889 147.593C37.0408 147.44 37.0859 147.285 37.1232 147.129C37.1602 146.972 37.1894 146.814 37.2116 146.654C37.2327 146.493 37.2468 146.333 37.2524 146.172C37.258 146.011 37.2562 145.85 37.2463 145.688C37.2359 145.528 37.2183 145.367 37.1924 145.208C37.1666 145.049 37.133 144.891 37.0924 144.735C37.0507 144.579 37.002 144.426 36.9455 144.275C36.8898 144.123 36.8255 143.975 36.7547 143.83C36.6839 143.685 36.6069 143.544 36.5217 143.407C36.4374 143.27 36.3461 143.137 36.2486 143.008C36.1507 142.88 36.0467 142.756 35.9373 142.638C35.8275 142.52 35.7119 142.408 35.5914 142.3C35.4705 142.194 35.3442 142.093 35.2138 141.998C35.0834 141.904 34.948 141.816 34.8089 141.735C34.669 141.654 34.5262 141.579 34.3796 141.512C34.2331 141.445 34.0832 141.385 33.9307 141.333C33.7783 141.28 33.6242 141.235 33.4672 141.198C33.3102 141.161 33.1514 141.131 32.9918 141.109C32.8322 141.088 32.6721 141.074 32.5111 141.068C32.3497 141.062 32.189 141.063 32.0279 141.074C31.8671 141.083 31.7071 141.101 31.5483 141.127C31.3886 141.153 31.2313 141.186 31.0756 141.227C30.9195 141.268 30.7666 141.317 30.6152 141.372C30.4642 141.429 30.3156 141.492 30.1714 141.563C30.0887 141.603 30.0016 141.626 29.909 141.632C29.8177 141.638 29.7285 141.626 29.6407 141.596C29.5541 141.566 29.4759 141.52 29.4067 141.459C29.338 141.398 29.2828 141.326 29.2424 141.243L26.59 135.813C26.5561 135.731 26.5385 135.646 26.5373 135.558C26.5365 135.469 26.5515 135.384 26.5829 135.3C26.6138 135.218 26.6598 135.144 26.7195 135.079C26.7788 135.014 26.8486 134.961 26.9281 134.923C27.3151 134.733 27.6918 134.523 28.0576 134.296C28.4246 134.069 28.7787 133.824 29.1212 133.561C29.4641 133.299 29.7929 133.021 30.1075 132.726C30.4234 132.432 30.7231 132.123 31.0082 131.799C31.2934 131.475 31.5619 131.138 31.8139 130.788C32.0658 130.438 32.3004 130.077 32.5167 129.703C32.7334 129.33 32.931 128.948 33.1104 128.555C33.2893 128.163 33.4496 127.762 33.5892 127.354C33.7296 126.945 33.8488 126.531 33.9481 126.111C34.0482 125.691 34.1268 125.268 34.1845 124.84C34.2432 124.412 34.2802 123.983 34.296 123.552C34.3122 123.12 34.3077 122.689 34.2807 122.258C34.2549 121.827 34.2079 121.398 34.1397 120.972C34.0723 120.545 33.9841 120.124 33.8742 119.706C33.7648 119.288 33.6357 118.877 33.4865 118.472C33.3374 118.066 33.1678 117.669 32.9802 117.281C32.9394 117.198 32.9157 117.11 32.91 117.017C32.9036 116.925 32.9154 116.835 32.9448 116.748C32.9741 116.66 33.0197 116.581 33.0799 116.511C33.14 116.441 33.2123 116.386 33.2947 116.344L203.305 33.3028C203.387 33.2624 203.475 33.2387 203.568 33.2339C203.661 33.2282 203.751 33.2409 203.838 33.2714C203.927 33.3024 204.005 33.3484 204.074 33.411C204.143 33.4728 204.197 33.5467 204.237 33.6307C204.428 34.0173 204.638 34.3948 204.865 34.7614C205.093 35.128 205.338 35.4822 205.6 35.8259C205.863 36.1683 206.141 36.4971 206.436 36.813C206.731 37.1284 207.04 37.4289 207.364 37.7141C207.688 37.9992 208.024 38.2682 208.375 38.521C208.725 38.7729 209.086 39.0075 209.459 39.225C209.832 39.4417 210.215 39.6401 210.607 39.8199C211 39.9993 211.4 40.1592 211.808 40.2999C212.216 40.4403 212.63 40.5608 213.049 40.6605C213.469 40.7606 213.893 40.84 214.32 40.8981C214.747 40.9572 215.176 40.9942 215.608 41.0108C216.039 41.0274 216.469 41.0233 216.9 40.9975C217.331 40.9718 217.759 40.926 218.185 40.8578C218.611 40.7908 219.032 40.7026 219.449 40.5943C219.867 40.4856 220.278 40.357 220.683 40.2078C221.087 40.0591 221.484 39.8907 221.872 39.7023C221.955 39.6606 222.043 39.637 222.135 39.6305C222.228 39.6236 222.318 39.6355 222.406 39.6644C222.494 39.6946 222.573 39.7402 222.643 39.8016C222.713 39.8626 222.768 39.9352 222.809 40.0188L225.461 45.449C225.501 45.533 225.523 45.6208 225.528 45.7134C225.533 45.8056 225.52 45.896 225.489 45.983C225.459 46.0699 225.413 46.1482 225.352 46.2178C225.29 46.2865 225.217 46.3421 225.135 46.3825C224.991 46.4525 224.85 46.5295 224.715 46.6139C224.579 46.6978 224.447 46.7875 224.32 46.885C224.192 46.9821 224.07 47.0853 223.953 47.1943C223.835 47.3033 223.724 47.4177 223.618 47.5374C223.512 47.6571 223.413 47.7817 223.319 47.9117C223.225 48.0417 223.138 48.1755 223.058 48.3142C222.977 48.4529 222.904 48.5945 222.837 48.7407C222.771 48.8856 222.711 49.0343 222.66 49.1855C222.607 49.3371 222.563 49.4904 222.526 49.6466C222.489 49.8024 222.46 49.9595 222.438 50.1183C222.417 50.2767 222.403 50.4368 222.398 50.5966C222.392 50.7568 222.394 50.9162 222.404 51.0766C222.414 51.2361 222.432 51.3948 222.458 51.5537C222.483 51.7117 222.516 51.8682 222.557 52.0227C222.598 52.178 222.646 52.3301 222.702 52.4803C222.758 52.6304 222.821 52.7774 222.891 52.9215C222.962 53.0657 223.039 53.2055 223.123 53.342C223.207 53.4786 223.298 53.6099 223.395 53.738C223.491 53.8653 223.595 53.9873 223.704 54.1054C223.813 54.2226 223.927 54.3341 224.047 54.44C224.167 54.5467 224.292 54.6462 224.422 54.7399C224.551 54.8341 224.686 54.9214 224.824 55.0022C224.963 55.0825 225.104 55.1564 225.25 55.2234C225.396 55.29 225.544 55.3497 225.696 55.4012C225.847 55.4532 226.001 55.4979 226.156 55.5356C226.312 55.5721 226.469 55.6017 226.628 55.6227C226.786 55.6446 226.945 55.6583 227.106 55.6643C227.266 55.6702 227.425 55.6685 227.585 55.6585C227.744 55.6486 227.903 55.6309 228.061 55.6055C228.219 55.58 228.375 55.5472 228.531 55.5058C228.686 55.4657 228.837 55.417 228.988 55.3617C229.137 55.306 229.285 55.2421 229.428 55.1721C229.511 55.1305 229.599 55.1068 229.691 55.1003C229.784 55.0935 229.874 55.1053 229.962 55.1343C230.05 55.1644 230.129 55.21 230.199 55.2714C230.269 55.3324 230.324 55.4051 230.365 55.4886L232.682 60.2316C232.721 60.3147 232.743 60.4034 232.748 60.4952C232.753 60.5882 232.74 60.6777 232.71 60.7647C232.679 60.8525 232.633 60.9308 232.572 60.9995C232.51 61.0691 232.438 61.1238 232.355 61.1642C232.212 61.2343 232.071 61.3121 231.935 61.3956C231.799 61.4796 231.667 61.5701 231.54 61.6667C231.412 61.7638 231.29 61.8671 231.173 61.9761C231.055 62.0851 230.944 62.1994 230.838 62.3191C230.733 62.4396 230.633 62.5643 230.539 62.6943C230.445 62.8235 230.359 62.958 230.278 63.0959C230.198 63.2346 230.124 63.3762 230.057 63.5224C229.991 63.6673 229.932 63.816 229.88 63.9672C229.827 64.1196 229.783 64.2729 229.746 64.4291C229.709 64.5841 229.68 64.7413 229.659 64.9009C229.638 65.0593 229.623 65.2186 229.618 65.3784C229.612 65.5385 229.614 65.6988 229.624 65.8583C229.634 66.0178 229.652 66.1774 229.678 66.3354C229.703 66.4935 229.736 66.6499 229.777 66.8052C229.818 66.9597 229.867 67.1127 229.922 67.262C229.979 67.4122 230.042 67.5599 230.112 67.7033C230.182 67.8475 230.259 67.9872 230.343 68.1238C230.427 68.2603 230.518 68.3924 230.615 68.5197C230.712 68.647 230.815 68.7699 230.924 68.8871C231.033 69.0043 231.148 69.1159 231.268 69.2226C231.387 69.3285 231.512 69.4287 231.642 69.5225C231.772 69.6166 231.906 69.7031 232.044 69.7839C232.183 69.8643 232.324 69.9382 232.47 70.0052C232.616 70.0718 232.764 70.1314 232.916 70.183C233.067 70.235 233.221 70.2796 233.376 70.3173C233.532 70.3538 233.689 70.3834 233.848 70.4045C234.007 70.4263 234.166 70.44 234.326 70.446C234.486 70.452 234.645 70.4502 234.805 70.4403C234.965 70.4311 235.124 70.4135 235.282 70.388C235.44 70.3626 235.596 70.329 235.751 70.2884C235.906 70.2474 236.058 70.1995 236.208 70.1434C236.357 70.0877 236.505 70.0247 236.649 69.9547C236.731 69.9122 236.819 69.8886 236.911 69.8821C237.004 69.8752 237.094 69.887 237.183 69.9168C237.27 69.9462 237.35 69.9917 237.419 70.0531C237.489 70.1141 237.544 70.1868 237.585 70.2704L239.902 75.0133C239.942 75.0973 239.963 75.1851 239.969 75.2769C239.973 75.3699 239.96 75.4595 239.93 75.5473C239.9 75.6342 239.854 75.7125 239.792 75.7821C239.73 75.8508 239.658 75.9056 239.575 75.946C239.432 76.016 239.291 76.0938 239.155 76.1774C239.019 76.2613 238.888 76.3518 238.76 76.4485C238.633 76.5464 238.51 76.6488 238.393 76.7578C238.276 76.8668 238.164 76.9811 238.059 77.1017C237.953 77.2214 237.853 77.346 237.76 77.476C237.666 77.606 237.579 77.7398 237.499 77.8785C237.418 78.0164 237.344 78.1588 237.277 78.3041C237.211 78.4499 237.152 78.5986 237.1 78.7498C237.047 78.9014 237.004 79.0547 236.966 79.2109C236.93 79.3667 236.901 79.5238 236.879 79.6826C236.858 79.841 236.844 80.0003 236.838 80.1601C236.832 80.3203 236.835 80.4805 236.845 80.64C236.855 80.8004 236.873 80.9591 236.898 81.1172C236.923 81.2752 236.957 81.4325 236.998 81.587C237.039 81.7415 237.087 81.8944 237.143 82.0446C237.199 82.1947 237.262 82.3417 237.332 82.4858C237.402 82.6292 237.48 82.7698 237.564 82.9063C237.648 83.0421 237.738 83.1742 237.835 83.3015C237.932 83.4296 238.035 83.5516 238.144 83.6689C238.253 83.7861 238.368 83.8984 238.488 84.0043C238.608 84.1102 238.733 84.2105 238.863 84.3042C238.992 84.3984 239.126 84.4848 239.264 84.5656C239.403 84.6468 239.545 84.7207 239.69 84.7869C239.836 84.8535 239.984 84.9132 240.136 84.9655C240.288 85.0175 240.441 85.0622 240.596 85.0991C240.752 85.1364 240.91 85.1652 241.068 85.187C241.227 85.2081 241.386 85.2226 241.546 85.2286C241.706 85.2337 241.865 85.2319 242.025 85.2228C242.185 85.2129 242.344 85.1952 242.502 85.1698C242.66 85.1443 242.816 85.1115 242.971 85.0701C243.126 85.0292 243.278 84.9813 243.428 84.9252C243.578 84.8695 243.725 84.8064 243.869 84.7364C243.952 84.6948 244.039 84.6703 244.132 84.6638C244.225 84.6569 244.315 84.6688 244.403 84.6986C244.491 84.7279 244.57 84.7735 244.639 84.8349C244.71 84.8959 244.764 84.9686 244.805 85.0521L246.659 88.8465C246.699 88.93 246.723 89.0179 246.728 89.1109C246.733 89.2035 246.721 89.2939 246.691 89.3817C246.659 89.4691 246.613 89.5473 246.551 89.6165C246.489 89.686 246.416 89.74 246.332 89.78C246.195 89.8541 246.062 89.9344 245.933 90.0217C245.803 90.1086 245.678 90.202 245.558 90.3012C245.437 90.4 245.322 90.5049 245.211 90.6148C245.1 90.7246 244.995 90.8399 244.896 90.9604C244.796 91.0802 244.703 91.2049 244.616 91.3338C244.528 91.463 244.446 91.596 244.372 91.7327C244.297 91.8698 244.229 92.0107 244.168 92.1532C244.106 92.297 244.052 92.4432 244.005 92.592C243.956 92.7404 243.916 92.8909 243.883 93.0439C243.85 93.1961 243.824 93.3499 243.806 93.5047C243.788 93.6599 243.776 93.8155 243.773 93.9713C243.769 94.1274 243.774 94.2836 243.785 94.4394C243.796 94.5953 243.815 94.7496 243.841 94.9031C243.867 95.0579 243.9 95.2099 243.941 95.3607C243.982 95.5111 244.03 95.66 244.084 95.806C244.139 95.9525 244.201 96.0958 244.27 96.2359C244.338 96.3759 244.413 96.5128 244.495 96.6465C244.576 96.7789 244.664 96.9078 244.758 97.0334C244.852 97.1578 244.951 97.2778 245.057 97.3925C245.162 97.5085 245.272 97.618 245.388 97.7226C245.504 97.8273 245.625 97.9266 245.751 98.0195C245.875 98.1128 246.005 98.1997 246.139 98.2804C246.272 98.3616 246.409 98.4354 246.55 98.5028C246.691 98.5709 246.834 98.6318 246.981 98.6849C247.127 98.7393 247.276 98.7864 247.427 98.8253C247.577 98.8654 247.73 98.8982 247.884 98.9225C248.037 98.948 248.192 98.9657 248.348 98.9757C248.504 98.9861 248.659 98.9892 248.815 98.9849C248.971 98.9799 249.127 98.9678 249.282 98.9489C249.437 98.9291 249.59 98.9028 249.742 98.868C249.894 98.8343 250.044 98.7925 250.193 98.7441C250.341 98.6953 250.487 98.6404 250.63 98.5777C250.713 98.5361 250.8 98.5116 250.892 98.5052C250.985 98.4983 251.075 98.5101 251.164 98.5399C251.251 98.5692 251.33 98.6148 251.4 98.6762C251.47 98.7372 251.525 98.8099 251.566 98.8935L254.551 105.004C254.59 105.088 254.612 105.176 254.618 105.268C254.623 105.361 254.61 105.451 254.579 105.538C254.549 105.625 254.503 105.704 254.441 105.772C254.38 105.842 254.307 105.897 254.224 105.937C253.838 106.128 253.46 106.336 253.094 106.564C252.728 106.792 252.374 107.037 252.031 107.298C251.689 107.561 251.36 107.839 251.044 108.134C250.729 108.428 250.429 108.738 250.144 109.061C249.859 109.385 249.591 109.722 249.338 110.072C249.086 110.422 248.852 110.784 248.636 111.157C248.419 111.53 248.221 111.913 248.042 112.305C247.863 112.698 247.703 113.099 247.563 113.507C247.423 113.915 247.303 114.329 247.203 114.749C247.104 115.169 247.025 115.593 246.967 116.021C246.909 116.448 246.873 116.878 246.856 117.309C246.84 117.741 246.845 118.172 246.871 118.602C246.897 119.033 246.945 119.462 247.012 119.888C247.08 120.314 247.169 120.737 247.278 121.154C247.387 121.573 247.517 121.983 247.666 122.389C247.815 122.794 247.984 123.19 248.173 123.579C248.22 123.663 248.249 123.752 248.259 123.848C248.27 123.944 248.261 124.037 248.233 124.129C248.204 124.22 248.159 124.303 248.096 124.376C248.034 124.449 247.96 124.506 247.874 124.548ZM77.8612 206.044L246.655 123.596C246.478 123.183 246.32 122.763 246.182 122.335C246.043 121.907 245.924 121.475 245.826 121.037C245.727 120.598 245.649 120.156 245.591 119.711C245.532 119.264 245.495 118.817 245.478 118.368C245.461 117.919 245.464 117.47 245.489 117.022C245.514 116.574 245.559 116.126 245.624 115.682C245.69 115.238 245.775 114.797 245.881 114.361C245.987 113.925 246.113 113.494 246.259 113.068C246.404 112.643 246.569 112.226 246.753 111.816C246.937 111.407 247.14 111.007 247.36 110.616C247.581 110.225 247.819 109.845 248.075 109.475C248.331 109.107 248.603 108.75 248.892 108.406C249.181 108.062 249.484 107.732 249.804 107.416C250.122 107.101 250.455 106.8 250.802 106.515C251.148 106.229 251.507 105.96 251.879 105.709C252.25 105.456 252.633 105.222 253.026 105.005L250.617 100.072C250.437 100.136 250.254 100.192 250.069 100.239C249.885 100.287 249.698 100.325 249.509 100.356C249.321 100.386 249.132 100.408 248.942 100.421C248.751 100.434 248.561 100.438 248.37 100.433C248.179 100.429 247.99 100.416 247.799 100.394C247.61 100.372 247.422 100.342 247.235 100.303C247.048 100.264 246.864 100.217 246.681 100.161C246.499 100.105 246.319 100.041 246.142 99.9692C245.966 99.8971 245.793 99.8172 245.623 99.7287C245.453 99.6411 245.288 99.545 245.127 99.442C244.967 99.3398 244.811 99.2291 244.66 99.1123C244.509 98.9951 244.365 98.871 244.225 98.7405C244.086 98.6096 243.952 98.4738 243.826 98.3307C243.698 98.188 243.578 98.0397 243.464 97.8862C243.351 97.7327 243.245 97.5743 243.145 97.4111C243.046 97.2483 242.955 97.0807 242.871 96.9087C242.788 96.7375 242.711 96.5627 242.643 96.3839C242.576 96.2047 242.516 96.0239 242.465 95.8399C242.414 95.656 242.371 95.4701 242.336 95.2818C242.302 95.0947 242.276 94.9053 242.259 94.7152C242.242 94.5254 242.233 94.3349 242.233 94.1441C242.234 93.9521 242.243 93.7622 242.26 93.5719C242.278 93.3817 242.303 93.1927 242.338 93.0051C242.374 92.8175 242.417 92.6319 242.468 92.4477C242.52 92.2639 242.58 92.0834 242.648 91.9051C242.716 91.7267 242.792 91.5517 242.876 91.3808C242.961 91.2095 243.053 91.042 243.152 90.879C243.252 90.7165 243.358 90.558 243.472 90.405C243.586 90.2519 243.706 90.1042 243.833 89.9627C243.961 89.8203 244.094 89.6842 244.233 89.5542C244.374 89.4238 244.519 89.3012 244.669 89.1839C244.821 89.0675 244.977 88.9576 245.138 88.8556L243.86 86.2384C243.68 86.304 243.496 86.361 243.311 86.4098C243.126 86.4587 242.939 86.4985 242.75 86.5298C242.561 86.5615 242.371 86.5842 242.18 86.5983C241.989 86.6124 241.797 86.618 241.605 86.6142C241.414 86.6112 241.223 86.5988 241.032 86.5774C240.842 86.5569 240.652 86.5266 240.464 86.4886C240.277 86.4502 240.091 86.4032 239.907 86.3476C239.724 86.2929 239.543 86.2293 239.366 86.1567C239.188 86.0853 239.014 86.005 238.844 85.9174C238.673 85.8294 238.507 85.7341 238.345 85.6306C238.184 85.5276 238.027 85.4177 237.876 85.2997C237.724 85.1821 237.578 85.0584 237.437 84.9274C237.297 84.7969 237.163 84.6595 237.036 84.5168C236.908 84.3733 236.787 84.2254 236.673 84.0711C236.559 83.9167 236.452 83.7579 236.352 83.5935C236.253 83.4291 236.161 83.2611 236.077 83.089C235.993 82.917 235.917 82.741 235.848 82.5614C235.78 82.3826 235.72 82.1997 235.669 82.015C235.617 81.831 235.575 81.6439 235.54 81.4548C235.506 81.2665 235.48 81.0763 235.463 80.8857C235.446 80.6939 235.438 80.503 235.439 80.311C235.439 80.1194 235.449 79.9278 235.466 79.7376C235.484 79.5461 235.511 79.3564 235.547 79.1675C235.582 78.9799 235.626 78.7932 235.679 78.609C235.731 78.4243 235.792 78.2431 235.861 78.0643C235.93 77.8855 236.008 77.7097 236.093 77.5384C236.178 77.3668 236.271 77.1988 236.372 77.0359C236.473 76.8729 236.58 76.7141 236.695 76.5614C236.81 76.408 236.932 76.2599 237.061 76.118C237.189 75.976 237.324 75.8403 237.465 75.7103C237.606 75.5807 237.753 75.4573 237.905 75.3413C238.057 75.2253 238.215 75.1159 238.377 75.0142L236.64 71.4566C236.46 71.5222 236.276 71.5792 236.091 71.6281C235.906 71.6769 235.718 71.7168 235.53 71.748C235.34 71.7797 235.151 71.8024 234.96 71.8165C234.769 71.8307 234.577 71.8362 234.385 71.8324C234.193 71.8286 234.003 71.8162 233.812 71.7957C233.621 71.7744 233.432 71.7449 233.244 71.7068C233.057 71.6684 232.871 71.6214 232.687 71.5659C232.504 71.5104 232.323 71.4467 232.146 71.375C231.968 71.3036 231.793 71.2233 231.623 71.1349C231.453 71.0476 231.287 70.9523 231.125 70.8489C230.964 70.7459 230.806 70.636 230.656 70.5179C230.504 70.4003 230.358 70.2759 230.217 70.1457C230.077 70.0152 229.943 69.8777 229.816 69.7351C229.688 69.5916 229.566 69.4429 229.452 69.2885C229.338 69.1341 229.231 68.9754 229.132 68.8118C229.033 68.6473 228.94 68.4793 228.856 68.3073C228.772 68.1344 228.696 67.9584 228.628 67.7796C228.56 67.6 228.5 67.418 228.448 67.2332C228.397 67.0485 228.354 66.8613 228.32 66.6731C228.285 66.484 228.26 66.2945 228.242 66.1032C228.226 65.9122 228.218 65.7205 228.219 65.5293C228.219 65.3376 228.228 65.1461 228.246 64.955C228.264 64.7644 228.291 64.5746 228.327 64.3858C228.362 64.1973 228.406 64.0114 228.458 63.8264C228.511 63.6426 228.572 63.4605 228.641 63.2817C228.71 63.103 228.788 62.928 228.872 62.7567C228.958 62.5842 229.05 62.4171 229.151 62.2541C229.252 62.0903 229.36 61.9323 229.474 61.7789C229.589 61.6262 229.712 61.4781 229.84 61.3362C229.969 61.1935 230.103 61.0577 230.245 60.9278C230.385 60.7982 230.532 60.6756 230.685 60.5596C230.837 60.4428 230.995 60.3341 231.157 60.2317L229.404 56.6429C229.224 56.7085 229.041 56.7656 228.855 56.8144C228.67 56.8632 228.483 56.9031 228.294 56.9344C228.105 56.966 227.915 56.9887 227.724 57.0029C227.533 57.017 227.341 57.0225 227.149 57.0187C226.958 57.0149 226.767 57.0025 226.576 56.982C226.385 56.9607 226.196 56.9312 226.008 56.8932C225.821 56.8547 225.635 56.8077 225.452 56.7522C225.268 56.6967 225.087 56.6339 224.91 56.5613C224.732 56.4899 224.558 56.4096 224.388 56.3212C224.217 56.234 224.051 56.1386 223.889 56.0352C223.728 55.9322 223.571 55.8223 223.42 55.7043C223.268 55.5867 223.122 55.463 222.981 55.332C222.841 55.2015 222.707 55.064 222.58 54.9214C222.452 54.7779 222.331 54.6292 222.217 54.4748C222.103 54.3213 221.996 54.1617 221.896 53.9981C221.797 53.8337 221.705 53.6656 221.621 53.4936C221.536 53.3208 221.46 53.1447 221.392 52.9659C221.324 52.7863 221.264 52.6043 221.213 52.4195C221.161 52.2348 221.119 52.0485 221.084 51.8594C221.05 51.6703 221.024 51.4808 221.007 51.2903C220.99 51.0985 220.982 50.9068 220.983 50.7156C220.983 50.5239 220.993 50.3324 221.01 50.1413C221.028 49.9507 221.056 49.761 221.091 49.5721C221.126 49.3837 221.17 49.1977 221.223 49.0127C221.275 48.8289 221.336 48.6468 221.405 48.468C221.474 48.2893 221.552 48.1143 221.637 47.943C221.722 47.7705 221.815 47.6034 221.916 47.4404C222.016 47.2767 222.124 47.1186 222.239 46.9652C222.354 46.8125 222.476 46.6644 222.605 46.5225C222.733 46.3806 222.867 46.244 223.009 46.1149C223.15 45.9853 223.297 45.8619 223.449 45.7459C223.601 45.6291 223.759 45.5205 223.921 45.418L221.856 41.1895C221.443 41.3667 221.023 41.5242 220.596 41.6626C220.169 41.8013 219.736 41.9192 219.298 42.0175C218.861 42.1166 218.419 42.1944 217.974 42.2527C217.529 42.3097 217.081 42.3475 216.633 42.3638C216.184 42.38 215.736 42.3758 215.287 42.3513C214.839 42.3267 214.393 42.281 213.949 42.2157C213.505 42.1496 213.065 42.0632 212.628 41.9568C212.192 41.85 211.761 41.7237 211.337 41.577C210.912 41.4312 210.496 41.2655 210.086 41.0811C209.676 40.8966 209.277 40.6931 208.886 40.4722C208.495 40.25 208.115 40.0116 207.746 39.7546C207.377 39.4984 207.021 39.2248 206.677 38.9362C206.334 38.6464 206.004 38.3416 205.688 38.0223C205.373 37.7025 205.072 37.3683 204.787 37.0215C204.502 36.6739 204.234 36.3139 203.982 35.9417C203.73 35.5696 203.496 35.187 203.279 34.7936L34.4854 117.241C34.6626 117.654 34.8214 118.074 34.9602 118.502C35.0989 118.929 35.2172 119.362 35.3159 119.801C35.4154 120.239 35.4932 120.681 35.5519 121.127C35.6093 121.573 35.6471 122.02 35.6637 122.47C35.6808 122.918 35.677 123.367 35.6529 123.816C35.6283 124.265 35.583 124.712 35.5169 125.156C35.452 125.601 35.366 126.042 35.2596 126.478C35.1532 126.915 35.0269 127.346 34.8815 127.771C34.7356 128.195 34.5703 128.613 34.3859 129.022C34.2014 129.432 33.9992 129.832 33.7774 130.224C33.5561 130.614 33.3177 130.994 33.0615 131.363C32.8044 131.732 32.532 132.088 32.2434 132.432C31.9536 132.775 31.6501 133.105 31.3303 133.421C31.0106 133.736 30.6772 134.036 30.3304 134.321C29.9824 134.606 29.6236 134.874 29.2514 135.126C28.8793 135.378 28.4971 135.611 28.1037 135.828L30.1691 140.056C30.3495 139.991 30.5315 139.934 30.717 139.886C30.9022 139.837 31.0897 139.797 31.2788 139.765C31.4674 139.733 31.6577 139.712 31.8486 139.697C32.0404 139.683 32.2316 139.678 32.4228 139.681C32.6144 139.685 32.8059 139.697 32.9961 139.718C33.1868 139.739 33.3757 139.768 33.5641 139.807C33.7513 139.846 33.9372 139.892 34.1206 139.947C34.3039 140.003 34.4852 140.066 34.6623 140.138C34.8406 140.21 35.0144 140.29 35.1852 140.378C35.3552 140.466 35.5215 140.562 35.6832 140.664C35.8445 140.768 36.0017 140.878 36.1535 140.996C36.3041 141.113 36.451 141.237 36.5912 141.368C36.7311 141.499 36.8648 141.635 36.9927 141.779C37.1206 141.922 37.2415 142.07 37.3555 142.225C37.4694 142.379 37.5764 142.538 37.676 142.702C37.776 142.865 37.8674 143.034 37.9518 143.207C38.0359 143.379 38.1125 143.554 38.1802 143.734C38.2482 143.913 38.3077 144.095 38.3594 144.28C38.4111 144.465 38.4538 144.652 38.4883 144.841C38.5225 145.029 38.5484 145.219 38.5654 145.41C38.5828 145.601 38.59 145.793 38.5902 145.984C38.5897 146.176 38.5797 146.368 38.5621 146.558C38.544 146.75 38.517 146.939 38.4818 147.127C38.4462 147.316 38.4025 147.503 38.3494 147.687C38.2975 147.871 38.2359 148.053 38.167 148.231C38.098 148.41 38.0206 148.586 37.9358 148.757C37.8502 148.929 37.7573 149.096 37.6567 149.26C37.5566 149.422 37.4483 149.581 37.3335 149.734C37.2187 149.888 37.0971 150.035 36.9677 150.178C36.8392 150.32 36.7046 150.455 36.564 150.585C36.4225 150.715 36.2758 150.838 36.1235 150.954C35.9711 151.07 35.8144 151.179 35.6519 151.281L37.4049 154.87C37.5853 154.805 37.7672 154.748 37.9528 154.7C38.138 154.651 38.3251 154.61 38.5145 154.578C38.7032 154.547 38.893 154.524 39.0843 154.511C39.2761 154.497 39.4674 154.491 39.6586 154.494C39.8502 154.498 40.0417 154.51 40.2319 154.532C40.4225 154.553 40.6114 154.582 40.7998 154.621C40.987 154.659 41.1729 154.705 41.3563 154.761C41.5397 154.816 41.7209 154.88 41.898 154.952C42.0764 155.024 42.2501 155.104 42.421 155.192C42.591 155.28 42.7573 155.375 42.919 155.478C43.0803 155.582 43.2375 155.692 43.3893 155.809C43.5399 155.927 43.6867 156.051 43.8266 156.181C43.9668 156.313 44.1005 156.449 44.2284 156.593C44.3559 156.735 44.4773 156.884 44.5912 157.038C44.7052 157.193 44.8122 157.352 44.9118 157.516C45.0118 157.679 45.1032 157.848 45.1876 158.02C45.2716 158.192 45.3483 158.368 45.4159 158.548C45.484 158.727 45.5434 158.909 45.5951 159.094C45.6468 159.278 45.6895 159.466 45.7237 159.654C45.7582 159.843 45.7842 160.033 45.8012 160.224C45.8181 160.414 45.8257 160.606 45.826 160.798C45.8254 160.99 45.8155 161.182 45.7978 161.372C45.7798 161.563 45.7527 161.753 45.7175 161.941C45.6819 162.13 45.6382 162.316 45.5851 162.5C45.5329 162.684 45.4716 162.866 45.4027 163.045C45.3338 163.224 45.2563 163.4 45.1715 163.571C45.086 163.743 44.9931 163.91 44.8925 164.074C44.7923 164.236 44.684 164.395 44.5692 164.548C44.4545 164.701 44.3328 164.849 44.2035 164.991C44.0749 165.133 43.9404 165.269 43.7997 165.399C43.6583 165.529 43.5116 165.652 43.3592 165.768C43.2069 165.884 43.0501 165.993 42.8877 166.095L44.6406 169.684C44.8206 169.618 45.003 169.561 45.1882 169.512C45.3737 169.464 45.5608 169.424 45.7503 169.392C45.939 169.361 46.1288 169.338 46.3201 169.325C46.5119 169.31 46.7031 169.305 46.8943 169.308C47.0859 169.312 47.2774 169.324 47.4677 169.346C47.6583 169.366 47.8472 169.396 48.0352 169.434C48.2228 169.473 48.4087 169.519 48.5921 169.575C48.7754 169.63 48.9567 169.694 49.1338 169.766C49.3121 169.838 49.4859 169.917 49.6567 170.005C49.8267 170.094 49.993 170.189 50.1547 170.292C50.316 170.396 50.4732 170.505 50.625 170.623C50.7756 170.74 50.9225 170.864 51.0623 170.995C51.2026 171.126 51.3363 171.263 51.4642 171.406C51.5917 171.549 51.713 171.698 51.827 171.852C51.941 172.006 52.0479 172.165 52.1475 172.33C52.2475 172.493 52.3389 172.661 52.4234 172.834C52.5074 173.006 52.584 173.182 52.6517 173.362C52.7197 173.541 52.7792 173.723 52.8309 173.907C52.8826 174.092 52.9253 174.279 52.9594 174.468C52.994 174.657 53.0195 174.846 53.0369 175.037C53.0539 175.228 53.0615 175.42 53.0617 175.612C53.0612 175.804 53.0513 175.995 53.0336 176.186C53.0155 176.377 52.9885 176.567 52.9533 176.754C52.9177 176.943 52.874 177.13 52.8209 177.314C52.7686 177.498 52.7074 177.68 52.6385 177.859C52.5695 178.038 52.4921 178.213 52.4073 178.385C52.3217 178.556 52.2288 178.723 52.1282 178.887C52.0281 179.05 51.9198 179.208 51.805 179.362C51.6902 179.515 51.5686 179.663 51.4392 179.805C51.3107 179.947 51.1761 180.083 51.0355 180.212C50.894 180.342 50.7473 180.466 50.595 180.582C50.4426 180.698 50.2859 180.807 50.1235 180.908L51.4014 183.525C51.5814 183.461 51.7634 183.406 51.9481 183.358C52.1328 183.311 52.3191 183.272 52.5082 183.242C52.6964 183.212 52.8854 183.19 53.0759 183.177C53.2665 183.164 53.4573 183.16 53.6473 183.165C53.838 183.169 54.0287 183.181 54.2181 183.203C54.4075 183.225 54.5956 183.255 54.7832 183.295C54.9696 183.333 55.1538 183.38 55.3364 183.436C55.5189 183.492 55.6994 183.556 55.8756 183.628C56.0519 183.701 56.2249 183.78 56.3949 183.869C56.5645 183.956 56.7291 184.053 56.8901 184.156C57.0506 184.258 57.2069 184.368 57.3575 184.485C57.5081 184.603 57.6529 184.727 57.7928 184.857C57.9318 184.988 58.0651 185.124 58.1918 185.267C58.3193 185.41 58.4394 185.558 58.553 185.711C58.6665 185.865 58.7731 186.023 58.8723 186.187C58.9711 186.349 59.0621 186.517 59.1461 186.689C59.2297 186.86 59.306 187.035 59.3741 187.214C59.4421 187.393 59.5012 187.574 59.5525 187.758C59.6038 187.942 59.6469 188.128 59.681 188.316C59.7156 188.503 59.7411 188.692 59.759 188.882C59.7755 189.072 59.7844 189.263 59.7842 189.454C59.7845 189.645 59.775 189.835 59.7573 190.026C59.7396 190.216 59.7142 190.405 59.6791 190.593C59.6439 190.78 59.6006 190.966 59.5495 191.15C59.4981 191.333 59.4373 191.514 59.3692 191.693C59.3011 191.871 59.2252 192.046 59.1413 192.217C59.0565 192.388 58.9649 192.556 58.8659 192.719C58.7665 192.881 58.6595 193.04 58.5455 193.193C58.4324 193.345 58.312 193.493 58.1842 193.635C58.0569 193.777 57.9236 193.913 57.7841 194.043C57.6439 194.174 57.4988 194.296 57.3481 194.414C57.197 194.53 57.0415 194.64 56.8803 194.742L59.2742 199.643C59.6872 199.466 60.1066 199.309 60.5339 199.17C60.9613 199.032 61.3938 198.914 61.8326 198.815C62.2706 198.717 62.7124 198.639 63.1582 198.582C63.6028 198.524 64.0504 198.487 64.499 198.47C64.9477 198.454 65.3969 198.458 65.8452 198.483C66.2939 198.508 66.7403 198.554 67.1845 198.62C67.6287 198.686 68.0695 198.772 68.506 198.878C68.9425 198.985 69.3727 199.111 69.7974 199.258C70.2229 199.404 70.6397 199.57 71.0494 199.754C71.4591 199.939 71.8596 200.142 72.2502 200.364C72.6412 200.585 73.0218 200.824 73.3909 201.081C73.7595 201.337 74.1162 201.611 74.4605 201.9C74.8039 202.19 75.1342 202.494 75.4497 202.814C75.766 203.133 76.0662 203.468 76.3517 203.815C76.6367 204.162 76.9057 204.522 77.1579 204.895C77.4097 205.267 77.6442 205.649 77.8612 206.044Z" fill="#111111"/>
</g>
<path d="M48.4999 125.611L200.484 51.374C200.655 51.2904 200.83 51.215 201.01 51.1485C201.189 51.0813 201.371 51.0239 201.555 50.9754C201.74 50.9266 201.927 50.8871 202.116 50.8567C202.304 50.8266 202.494 50.8051 202.685 50.7931C202.876 50.7818 203.066 50.7791 203.257 50.7861C203.449 50.7932 203.638 50.8101 203.828 50.8363C204.018 50.8613 204.205 50.8965 204.391 50.9406C204.577 50.9847 204.76 51.0382 204.941 51.1002C205.123 51.1627 205.299 51.2336 205.473 51.3131C205.647 51.3934 205.817 51.481 205.981 51.5771C206.147 51.6737 206.307 51.7783 206.462 51.8902C206.617 52.0022 206.766 52.1214 206.91 52.2479C207.053 52.3748 207.189 52.5082 207.319 52.6484C207.45 52.7887 207.573 52.9345 207.689 53.0869C207.805 53.2392 207.913 53.3964 208.013 53.5596C208.114 53.7224 208.206 53.8896 208.29 54.0616L235.538 109.846C235.622 110.018 235.697 110.194 235.764 110.373C235.831 110.552 235.888 110.734 235.937 110.92C235.986 111.105 236.026 111.291 236.056 111.48C236.086 111.67 236.108 111.859 236.12 112.05C236.131 112.241 236.134 112.432 236.127 112.623C236.12 112.814 236.104 113.004 236.078 113.194C236.053 113.383 236.018 113.571 235.974 113.758C235.93 113.944 235.877 114.127 235.815 114.308C235.753 114.489 235.682 114.666 235.603 114.84C235.523 115.014 235.436 115.183 235.339 115.348C235.243 115.514 235.14 115.674 235.028 115.829C234.916 115.984 234.797 116.133 234.67 116.276C234.543 116.42 234.41 116.556 234.27 116.686C234.13 116.816 233.984 116.939 233.832 117.055C233.68 117.171 233.523 117.279 233.36 117.379C233.197 117.48 233.03 117.572 232.859 117.656L80.8752 191.892C80.7032 191.976 80.528 192.051 80.3483 192.118C80.17 192.185 79.988 192.242 79.8028 192.291C79.6185 192.339 79.431 192.379 79.2428 192.409C79.0537 192.44 78.8643 192.461 78.6738 192.472C78.4829 192.484 78.2924 192.487 78.1013 192.48C77.9101 192.473 77.7195 192.456 77.5301 192.43C77.3412 192.405 77.1535 192.37 76.9676 192.325C76.7817 192.281 76.5975 192.228 76.417 192.166C76.2362 192.103 76.0587 192.033 75.8849 191.953C75.7107 191.873 75.5419 191.785 75.3765 191.689C75.2114 191.592 75.0509 191.488 74.8958 191.376C74.7415 191.264 74.5922 191.145 74.449 191.018C74.3059 190.891 74.1689 190.758 74.0385 190.618C73.9081 190.478 73.7851 190.332 73.6699 190.179C73.5539 190.027 73.4457 189.87 73.3448 189.707C73.2448 189.544 73.153 189.376 73.069 189.204L45.8209 133.42C45.7369 133.248 45.6614 133.072 45.5942 132.893C45.5278 132.714 45.4703 132.532 45.4215 132.346C45.3718 132.162 45.3324 131.975 45.3019 131.786C45.2715 131.597 45.2508 131.407 45.2387 131.216C45.2266 131.025 45.2247 130.834 45.231 130.644C45.2381 130.453 45.2545 130.262 45.2795 130.072C45.3057 129.883 45.3401 129.696 45.3838 129.509C45.428 129.323 45.4814 129.139 45.5431 128.958C45.6051 128.778 45.6764 128.6 45.7559 128.426C45.8354 128.252 45.923 128.083 46.0191 127.918C46.1149 127.753 46.2191 127.592 46.331 127.437C46.443 127.282 46.5622 127.133 46.6887 126.989C46.8148 126.847 46.9481 126.71 47.0884 126.58C47.2278 126.45 47.3745 126.327 47.526 126.211C47.6784 126.095 47.8355 125.987 47.9979 125.887C48.1607 125.786 48.3279 125.695 48.4999 125.611Z" fill="#F9F6F2"/>
<path d="M233.16 118.292L81.1915 192.521C80.9998 192.614 80.8025 192.699 80.6024 192.773C80.4012 192.847 80.1975 192.912 79.9907 192.966C79.7839 193.021 79.5739 193.064 79.3632 193.098C79.1513 193.132 78.9386 193.155 78.7257 193.168C78.5119 193.181 78.2983 193.184 78.0843 193.176C77.8703 193.168 77.6572 193.149 77.4451 193.12C77.2325 193.092 77.0225 193.052 76.8146 193.003C76.6055 192.953 76.4001 192.894 76.1977 192.824C75.9949 192.754 75.7967 192.674 75.6022 192.585C75.4074 192.496 75.2175 192.398 75.0325 192.289C74.8472 192.182 74.6681 192.065 74.4943 191.94C74.3206 191.814 74.1538 191.681 73.9933 191.539C73.8327 191.397 73.6788 191.248 73.5331 191.091C73.3873 190.934 73.2494 190.77 73.1197 190.6C72.9896 190.429 72.8681 190.253 72.7556 190.071C72.6423 189.889 72.5389 189.702 72.4448 189.509L45.2007 133.733C45.1067 133.54 45.0225 133.343 44.9489 133.142C44.8742 132.941 44.8096 132.737 44.7553 132.53C44.7005 132.322 44.6564 132.113 44.622 131.902C44.5877 131.69 44.5648 131.477 44.5517 131.264C44.5386 131.05 44.5357 130.836 44.5434 130.621C44.5515 130.407 44.5694 130.195 44.5983 129.982C44.6268 129.77 44.6662 129.56 44.7154 129.351C44.7647 129.143 44.8237 128.937 44.8932 128.735C44.9628 128.532 45.0421 128.333 45.1316 128.138C45.2202 127.944 45.3182 127.754 45.4263 127.568C45.5341 127.384 45.6503 127.204 45.7755 127.031C45.9006 126.857 46.0343 126.69 46.1756 126.529C46.3165 126.369 46.466 126.215 46.6231 126.07C46.7789 125.923 46.9429 125.786 47.1129 125.656C47.2829 125.526 47.4589 125.405 47.6414 125.292C47.8231 125.18 48.0108 125.076 48.2021 124.982L200.17 50.7529C200.363 50.6597 200.56 50.5759 200.76 50.5011C200.961 50.4268 201.165 50.3626 201.371 50.3082C201.579 50.2535 201.788 50.2094 202 50.1759C202.21 50.1419 202.423 50.1182 202.637 50.1051C202.851 50.0928 203.065 50.0899 203.279 50.098C203.493 50.1061 203.706 50.1248 203.917 50.1533C204.13 50.1826 204.34 50.222 204.548 50.2713C204.756 50.3209 204.962 50.3807 205.164 50.4503C205.367 50.5198 205.566 50.5992 205.761 50.6886C205.956 50.7781 206.145 50.8765 206.33 50.9838C206.515 51.0923 206.694 51.2086 206.868 51.3337C207.042 51.4597 207.209 51.5933 207.37 51.7351C207.53 51.8768 207.683 52.0263 207.829 52.1834C207.976 52.3401 208.113 52.5032 208.243 52.674C208.373 52.844 208.495 53.0209 208.607 53.2034C208.719 53.385 208.823 53.5727 208.917 53.7652L236.161 109.542C236.255 109.734 236.339 109.931 236.414 110.132C236.489 110.333 236.553 110.537 236.608 110.744C236.662 110.951 236.707 111.161 236.74 111.373C236.774 111.584 236.798 111.797 236.811 112.011C236.824 112.224 236.827 112.438 236.819 112.652C236.811 112.866 236.793 113.08 236.764 113.292C236.735 113.505 236.697 113.714 236.647 113.923C236.598 114.131 236.538 114.336 236.469 114.54C236.399 114.742 236.32 114.94 236.231 115.136C236.142 115.331 236.044 115.52 235.936 115.705C235.829 115.89 235.713 116.07 235.587 116.244C235.462 116.417 235.329 116.584 235.187 116.745C235.045 116.905 234.896 117.058 234.74 117.204C234.583 117.35 234.42 117.489 234.249 117.619C234.079 117.748 233.903 117.869 233.721 117.982C233.539 118.094 233.352 118.198 233.16 118.292ZM48.8163 126.239C48.6655 126.313 48.5176 126.394 48.3741 126.483C48.2305 126.571 48.0923 126.666 47.9584 126.768C47.8237 126.87 47.6951 126.979 47.5717 127.094C47.4487 127.208 47.3314 127.329 47.2193 127.455C47.1077 127.581 47.0025 127.713 46.9038 127.849C46.8051 127.986 46.7136 128.127 46.6287 128.273C46.5442 128.417 46.4661 128.567 46.3962 128.721C46.3259 128.874 46.2641 129.03 46.2092 129.19C46.1539 129.349 46.1072 129.511 46.0685 129.674C46.0291 129.839 45.9982 130.004 45.9754 130.171C45.9535 130.338 45.9381 130.506 45.932 130.675C45.926 130.843 45.9281 131.011 45.9384 131.18C45.9486 131.348 45.9666 131.516 45.994 131.682C46.0206 131.849 46.0554 132.013 46.0975 132.177C46.1404 132.339 46.1915 132.5 46.2496 132.658C46.3085 132.816 46.3743 132.972 46.4483 133.123L73.6924 188.9C73.7664 189.051 73.8483 189.198 73.9366 189.342C74.0258 189.485 74.1212 189.624 74.2235 189.759C74.3262 189.892 74.4347 190.021 74.5497 190.144C74.664 190.268 74.7852 190.385 74.9118 190.497C75.0384 190.608 75.1699 190.714 75.3064 190.812C75.4429 190.911 75.5847 191.002 75.7299 191.087C75.8755 191.172 76.0252 191.25 76.1791 191.32C76.3321 191.39 76.4881 191.452 76.6479 191.507C76.8076 191.561 76.9686 191.609 77.1326 191.647C77.2965 191.686 77.4626 191.716 77.6291 191.74C77.7965 191.762 77.9635 191.776 78.1323 191.783C78.3006 191.789 78.469 191.787 78.6371 191.776C78.8056 191.766 78.9729 191.747 79.1387 191.72C79.3053 191.694 79.4695 191.658 79.633 191.615C79.7961 191.573 79.956 191.522 80.1139 191.463C80.2718 191.404 80.427 191.338 80.5777 191.264L232.546 117.035C232.697 116.961 232.844 116.88 232.988 116.792C233.132 116.704 233.271 116.608 233.404 116.505C233.538 116.404 233.667 116.296 233.79 116.181C233.914 116.066 234.031 115.945 234.142 115.819C234.254 115.693 234.36 115.562 234.458 115.425C234.557 115.288 234.648 115.148 234.733 115.002C234.818 114.856 234.896 114.707 234.966 114.553C235.036 114.4 235.099 114.244 235.154 114.084C235.208 113.925 235.256 113.764 235.294 113.6C235.333 113.436 235.363 113.27 235.387 113.103C235.409 112.936 235.424 112.768 235.43 112.6C235.437 112.431 235.435 112.263 235.425 112.094C235.414 111.926 235.395 111.758 235.369 111.592C235.342 111.425 235.307 111.261 235.265 111.098C235.222 110.934 235.171 110.773 235.112 110.615C235.054 110.457 234.988 110.303 234.914 110.151L207.67 54.3746C207.596 54.2231 207.514 54.0751 207.425 53.932C207.337 53.7885 207.241 53.6494 207.139 53.5159C207.037 53.3821 206.928 53.2534 206.813 53.1301C206.698 53.0067 206.578 52.8889 206.451 52.7773C206.325 52.6656 206.193 52.5604 206.056 52.4621C205.919 52.3634 205.778 52.272 205.632 52.187C205.486 52.1021 205.337 52.0249 205.184 51.9545C205.031 51.8842 204.874 51.822 204.715 51.7675C204.555 51.7126 204.393 51.6659 204.229 51.6273C204.065 51.5878 203.9 51.5569 203.733 51.535C203.566 51.5122 203.398 51.4976 203.23 51.4916C203.061 51.4855 202.893 51.4876 202.725 51.4979C202.557 51.5086 202.39 51.5266 202.223 51.554C202.057 51.5806 201.892 51.6153 201.729 51.6583C201.567 51.7012 201.406 51.7523 201.248 51.8112C201.09 51.8701 200.936 51.9363 200.784 52.0103L48.8163 126.239Z" fill="#111111"/>
<path d="M60.7775 119.613L62.025 119.004L94.4003 185.285L93.1527 185.895L60.7775 119.613Z" fill="#111111"/>
<path d="M187.234 57.8453L188.482 57.236L220.857 123.517L219.61 124.127L187.234 57.8453Z" fill="#111111"/>
<path d="M83.7252 120.506L93.9727 141.485L107.024 135.11L104.712 130.375L96.3185 134.475L88.3838 118.23L83.7252 120.506Z" fill="#F24C00"/>
<path d="M107.329 135.734L94.2776 142.109C94.1949 142.15 94.1078 142.173 94.016 142.178C93.9246 142.184 93.8342 142.172 93.7477 142.142C93.6607 142.111 93.582 142.067 93.5137 142.006C93.4441 141.944 93.3897 141.872 93.3493 141.79L83.1019 120.81C83.0615 120.727 83.0382 120.64 83.0326 120.548C83.0265 120.456 83.0391 120.366 83.0689 120.279C83.0982 120.192 83.1442 120.114 83.2052 120.045C83.2658 119.976 83.3376 119.922 83.4204 119.882L88.0789 117.606C88.1625 117.565 88.2496 117.542 88.3422 117.536C88.4344 117.53 88.5244 117.542 88.6118 117.571C88.6995 117.601 88.7782 117.646 88.8486 117.707C88.9186 117.767 88.9738 117.839 89.0154 117.922L96.6449 133.542L104.406 129.75C104.49 129.71 104.577 129.687 104.67 129.681C104.762 129.675 104.852 129.687 104.94 129.716C105.027 129.746 105.106 129.791 105.176 129.851C105.246 129.912 105.302 129.984 105.343 130.067L107.66 134.81C107.7 134.893 107.721 134.981 107.726 135.073C107.73 135.164 107.717 135.254 107.686 135.341C107.655 135.427 107.609 135.505 107.547 135.573C107.485 135.641 107.413 135.696 107.329 135.734ZM94.292 140.556L106.08 134.798L104.396 131.351L96.6427 135.139C96.5596 135.178 96.4709 135.2 96.3791 135.205C96.2869 135.21 96.1965 135.197 96.1095 135.167C96.0222 135.135 95.9439 135.089 95.8752 135.027C95.8056 134.966 95.7512 134.894 95.7104 134.811L88.0653 119.159L84.6544 120.825L94.292 140.556Z" fill="#111111"/>
<path d="M114.218 105.611L122.142 121.832L114.775 125.431L106.852 109.21L102.193 111.485L112.441 132.464L129.133 124.311L118.885 103.332L114.218 105.611Z" fill="#F24C00"/>
<path d="M129.438 124.935L112.746 133.089C112.664 133.131 112.575 133.155 112.483 133.161C112.391 133.168 112.3 133.156 112.212 133.126C112.124 133.097 112.045 133.052 111.975 132.99C111.906 132.929 111.85 132.856 111.809 132.773L101.562 111.793C101.523 111.709 101.5 111.622 101.496 111.529C101.49 111.437 101.503 111.347 101.533 111.259C101.565 111.172 101.611 111.094 101.672 111.025C101.733 110.956 101.806 110.901 101.888 110.861L106.547 108.585C106.63 108.545 106.717 108.522 106.809 108.516C106.901 108.51 106.99 108.522 107.078 108.552C107.164 108.582 107.243 108.628 107.312 108.689C107.38 108.75 107.436 108.822 107.476 108.905L115.09 124.493L121.209 121.504L113.595 105.916C113.556 105.833 113.534 105.746 113.528 105.654C113.523 105.562 113.535 105.473 113.565 105.387C113.596 105.3 113.64 105.221 113.7 105.152C113.761 105.083 113.832 105.028 113.914 104.987L118.58 102.707C118.663 102.667 118.75 102.644 118.842 102.639C118.933 102.632 119.023 102.644 119.11 102.675C119.197 102.705 119.275 102.751 119.344 102.811C119.414 102.873 119.468 102.944 119.509 103.027L129.756 124.007C129.797 124.089 129.82 124.176 129.825 124.269C129.831 124.361 129.818 124.45 129.789 124.537C129.759 124.624 129.714 124.703 129.653 124.771C129.592 124.841 129.52 124.895 129.438 124.935ZM112.76 131.535L128.188 123.999L118.535 104.237L115.116 105.907L122.734 121.503C122.774 121.586 122.798 121.673 122.803 121.766C122.809 121.857 122.797 121.947 122.767 122.034C122.738 122.121 122.692 122.199 122.631 122.268C122.57 122.337 122.498 122.392 122.415 122.432L115.064 126.023C114.982 126.063 114.895 126.086 114.803 126.092C114.711 126.098 114.621 126.086 114.534 126.055C114.447 126.026 114.369 125.98 114.3 125.919C114.231 125.858 114.176 125.786 114.136 125.703L106.533 110.138L103.122 111.804L112.76 131.535Z" fill="#111111"/>
<path d="M139.768 99.0355L137.44 94.2688L124.664 100.509L134.912 121.489L147.687 115.248L145.363 110.49L137.435 114.362L131.841 102.908L139.768 99.0355Z" fill="#F24C00"/>
<path d="M147.992 115.872L135.217 122.113C135.134 122.153 135.047 122.176 134.955 122.181C134.863 122.188 134.773 122.175 134.687 122.145C134.599 122.115 134.521 122.07 134.453 122.009C134.383 121.947 134.329 121.876 134.288 121.793L124.041 100.813C124.001 100.731 123.977 100.643 123.972 100.551C123.966 100.459 123.977 100.37 124.008 100.283C124.037 100.195 124.083 100.117 124.144 100.049C124.205 99.9794 124.277 99.925 124.359 99.8846L137.135 93.6443C137.218 93.6039 137.305 93.5807 137.397 93.5754C137.488 93.5693 137.578 93.5812 137.665 93.6117C137.752 93.6415 137.831 93.6871 137.899 93.7481C137.969 93.8095 138.023 93.8813 138.063 93.964L140.38 98.707C140.42 98.7897 140.444 98.8768 140.449 98.9694C140.455 99.0608 140.443 99.1512 140.413 99.2377C140.384 99.3251 140.338 99.4034 140.277 99.4717C140.216 99.5409 140.144 99.5953 140.062 99.6357L132.758 103.203L137.739 113.401L145.043 109.833C145.125 109.793 145.213 109.769 145.306 109.764C145.399 109.759 145.489 109.771 145.577 109.802C145.664 109.833 145.743 109.879 145.812 109.942C145.881 110.004 145.935 110.077 145.975 110.161L148.292 114.904C148.339 114.987 148.368 115.077 148.379 115.172C148.389 115.268 148.38 115.361 148.352 115.453C148.324 115.545 148.278 115.627 148.216 115.7C148.153 115.773 148.078 115.83 147.992 115.872ZM135.231 120.559L146.758 114.929L145.044 111.419L137.74 114.986C137.658 115.025 137.57 115.048 137.478 115.052C137.387 115.057 137.298 115.045 137.212 115.015C137.125 114.985 137.046 114.941 136.977 114.88C136.908 114.819 136.853 114.748 136.812 114.666L131.217 103.212C131.177 103.129 131.153 103.042 131.148 102.95C131.142 102.858 131.154 102.768 131.184 102.681C131.213 102.594 131.259 102.516 131.32 102.447C131.381 102.378 131.453 102.324 131.536 102.283L138.839 98.7159L137.121 95.1976L125.593 100.828L135.231 120.559Z" fill="#111111"/>
<path d="M166.377 102.536L154.153 99.2546L158.614 88.685L153.737 86.6117L149.964 95.5437L147.049 89.5753L142.201 91.9432L152.448 112.923L157.296 110.555L154.501 104.831L165.003 107.652L166.377 102.536Z" fill="#F24C00"/>
<path d="M165.308 108.276C165.152 108.35 164.991 108.367 164.824 108.327L155.805 105.879L157.928 110.227C157.969 110.309 157.991 110.397 157.997 110.488C158.003 110.581 157.991 110.67 157.961 110.757C157.931 110.844 157.886 110.922 157.825 110.991C157.764 111.061 157.692 111.115 157.609 111.156L152.761 113.524C152.679 113.564 152.592 113.587 152.5 113.593C152.407 113.598 152.318 113.586 152.231 113.556C152.144 113.526 152.066 113.481 151.997 113.419C151.928 113.359 151.873 113.287 151.833 113.204L141.593 92.24C141.553 92.1573 141.53 92.0702 141.524 91.9776C141.518 91.8863 141.53 91.7963 141.56 91.7093C141.59 91.6219 141.635 91.544 141.697 91.4753C141.757 91.4061 141.829 91.3518 141.912 91.3114L146.759 88.9434C146.842 88.903 146.929 88.8798 147.022 88.8741C147.113 88.868 147.202 88.8803 147.29 88.9105C147.377 88.9402 147.455 88.9862 147.524 89.0468C147.593 89.1086 147.648 89.18 147.689 89.2628L149.936 93.8632L153.107 86.342C153.142 86.2563 153.191 86.1813 153.256 86.1163C153.321 86.0512 153.396 86.0014 153.481 85.9659C153.566 85.9312 153.654 85.9136 153.746 85.9145C153.838 85.9149 153.926 85.9329 154.011 85.9687L158.926 88.0232C159.105 88.0938 159.229 88.2201 159.295 88.4005C159.37 88.5782 159.368 88.7555 159.291 88.9313L155.148 98.7879L166.595 101.861C166.685 101.885 166.766 101.925 166.84 101.981C166.914 102.037 166.974 102.105 167.02 102.186C167.067 102.266 167.096 102.352 167.109 102.444C167.12 102.536 167.115 102.627 167.09 102.716L165.685 107.847C165.634 108.035 165.524 108.177 165.355 108.273L165.308 108.276ZM154.196 104.207C154.351 104.129 154.512 104.113 154.679 104.157L164.511 106.805L165.523 103.031L153.97 99.921C153.922 99.908 153.876 99.8908 153.832 99.8676C153.789 99.8443 153.747 99.8179 153.709 99.7857C153.671 99.7548 153.636 99.7198 153.606 99.68C153.575 99.6413 153.548 99.5995 153.527 99.5553C153.505 99.511 153.488 99.4644 153.477 99.4162C153.465 99.3684 153.458 99.319 153.457 99.2696C153.455 99.2199 153.46 99.171 153.468 99.1221C153.477 99.0733 153.492 99.0265 153.511 98.9807L157.725 89.0893L154.091 87.496L150.606 95.8175C150.552 95.9426 150.469 96.0429 150.355 96.1197C150.242 96.1961 150.117 96.2358 149.982 96.2402C149.845 96.2438 149.719 96.2104 149.603 96.1392C149.486 96.0684 149.399 95.971 149.341 95.8481L146.73 90.5039L143.129 92.2629L152.782 112.025L156.383 110.266L153.893 105.168C153.832 105.046 153.81 104.917 153.825 104.782C153.841 104.647 153.891 104.527 153.978 104.421C154.034 104.333 154.107 104.262 154.196 104.207Z" fill="#111111"/>
<path d="M180.703 76.9267L175.823 74.8644L171.628 84.7959L161.845 81.4278L160.127 86.4382L171.444 90.3286L176.696 101.079L181.544 98.711L176.158 87.6834L180.703 76.9267Z" fill="#F24C00"/>
<path d="M181.849 99.335L177.001 101.703C176.918 101.744 176.831 101.767 176.739 101.772C176.648 101.778 176.557 101.766 176.471 101.736C176.384 101.705 176.306 101.66 176.237 101.6C176.167 101.538 176.113 101.466 176.072 101.384L170.948 90.8934L159.901 87.0961C159.815 87.0643 159.738 87.0175 159.67 86.9565C159.602 86.8952 159.548 86.8225 159.507 86.7406C159.467 86.6578 159.444 86.5708 159.437 86.4798C159.43 86.3876 159.441 86.2984 159.469 86.2106L161.188 81.2009C161.217 81.1135 161.263 81.0345 161.323 80.9653C161.385 80.8957 161.457 80.8414 161.539 80.801C161.623 80.7601 161.71 80.7369 161.802 80.7312C161.894 80.726 161.985 80.7386 162.072 80.7692L171.241 83.9261L175.18 74.5907C175.258 74.4137 175.386 74.2893 175.564 74.2172C175.742 74.1446 175.919 74.1463 176.096 74.2225L181.006 76.2688C181.093 76.3038 181.168 76.3543 181.234 76.4193C181.3 76.4848 181.35 76.5607 181.385 76.6458C181.421 76.7321 181.438 76.8208 181.438 76.9133C181.438 77.0067 181.42 77.0958 181.384 77.1811L176.936 87.6562L182.183 98.3987C182.224 98.4831 182.247 98.5713 182.253 98.6648C182.259 98.7586 182.245 98.8494 182.214 98.9376C182.182 99.0262 182.134 99.1044 182.072 99.1735C182.008 99.2423 181.934 99.2966 181.849 99.335ZM177.015 100.15L180.615 98.3915L175.534 87.9881C175.442 87.8006 175.437 87.6101 175.519 87.418L179.787 77.2947L176.189 75.7731L172.27 85.0695C172.238 85.1512 172.192 85.2242 172.132 85.2888C172.073 85.3535 172.003 85.4047 171.925 85.4431C171.845 85.4819 171.762 85.5052 171.674 85.5125C171.587 85.5194 171.501 85.5109 171.417 85.4861L162.293 82.3443L161.027 86.0371L171.686 89.7011C171.865 89.7668 171.997 89.8859 172.084 90.0555L177.015 100.15Z" fill="#111111"/>
<path d="M111.97 139.088L104.074 142.944L114.322 163.923L127.049 157.707L116.802 136.727L111.97 139.088ZM119.893 155.309L115.251 157.576L109.656 146.122L114.282 143.862L119.893 155.309Z" fill="#F24C00"/>
<path d="M127.351 158.324L114.591 164.556C114.509 164.596 114.421 164.619 114.33 164.625C114.237 164.631 114.148 164.618 114.061 164.589C113.974 164.558 113.896 164.513 113.826 164.452C113.758 164.391 113.703 164.319 113.663 164.236L103.419 143.264C103.38 143.182 103.358 143.094 103.352 143.003C103.347 142.911 103.359 142.822 103.389 142.735C103.419 142.649 103.464 142.571 103.524 142.502C103.585 142.432 103.655 142.377 103.738 142.336L116.497 136.103C116.58 136.064 116.667 136.042 116.759 136.037C116.851 136.032 116.94 136.044 117.026 136.074C117.113 136.104 117.191 136.149 117.26 136.209C117.329 136.27 117.384 136.341 117.426 136.423L127.673 157.402C127.712 157.485 127.734 157.572 127.739 157.663C127.744 157.754 127.732 157.843 127.701 157.93C127.671 158.015 127.625 158.093 127.564 158.161C127.504 158.229 127.432 158.284 127.351 158.324ZM114.589 163.01L126.117 157.379L116.464 137.617L104.96 143.236L114.589 163.01ZM120.21 155.937L115.559 158.209C115.477 158.249 115.39 158.272 115.297 158.278C115.205 158.283 115.116 158.271 115.029 158.242C114.942 158.211 114.864 158.166 114.794 158.105C114.726 158.044 114.671 157.972 114.63 157.889L109.031 146.427C108.991 146.344 108.969 146.257 108.962 146.164C108.957 146.073 108.969 145.983 108.998 145.896C109.029 145.809 109.074 145.731 109.135 145.662C109.196 145.593 109.268 145.538 109.351 145.498L113.986 143.234C114.068 143.193 114.155 143.17 114.247 143.165C114.339 143.16 114.429 143.172 114.516 143.201C114.602 143.232 114.68 143.277 114.749 143.338C114.819 143.399 114.873 143.471 114.914 143.554L120.509 155.008C120.549 155.09 120.572 155.176 120.578 155.267C120.585 155.357 120.575 155.446 120.547 155.533C120.519 155.62 120.475 155.698 120.417 155.768C120.359 155.838 120.29 155.894 120.21 155.937ZM115.588 156.647L118.968 154.996L113.98 144.784L110.6 146.435L115.588 156.647Z" fill="#111111"/>
<path d="M143.29 150.234L146.263 147.049L139.339 140.562L142.276 139.128L136.422 127.144L122.526 133.931L132.773 154.911L137.511 152.597L133.117 143.602L135.123 142.622L143.29 150.234ZM129.175 135.471L135.492 132.386L138.411 138.362L132.094 141.447L129.175 135.471Z" fill="#F24C00"/>
<path d="M143.595 150.859C143.465 150.921 143.329 150.941 143.187 150.92C143.045 150.898 142.92 150.839 142.814 150.741L135.018 143.447L134.07 143.91L138.159 152.281C138.199 152.363 138.222 152.45 138.228 152.543C138.233 152.635 138.221 152.725 138.192 152.811C138.161 152.899 138.116 152.977 138.055 153.045C137.995 153.114 137.922 153.169 137.839 153.21L133.102 155.524C133.019 155.564 132.932 155.587 132.84 155.592C132.748 155.599 132.659 155.587 132.572 155.556C132.485 155.527 132.406 155.481 132.338 155.42C132.269 155.358 132.214 155.287 132.174 155.204L121.926 134.224C121.886 134.142 121.863 134.055 121.857 133.963C121.851 133.871 121.863 133.781 121.893 133.694C121.923 133.607 121.968 133.529 122.03 133.46C122.09 133.39 122.162 133.336 122.245 133.296L136.141 126.508C136.224 126.468 136.311 126.444 136.403 126.439C136.495 126.433 136.584 126.446 136.672 126.475C136.759 126.506 136.837 126.551 136.906 126.612C136.975 126.673 137.03 126.745 137.07 126.827L142.924 138.812C142.964 138.894 142.987 138.982 142.993 139.073C142.998 139.166 142.986 139.255 142.957 139.342C142.926 139.429 142.881 139.507 142.821 139.576C142.759 139.646 142.687 139.7 142.605 139.741L140.568 140.735L146.759 146.523C146.902 146.649 146.98 146.807 146.99 146.998C146.998 147.191 146.937 147.358 146.805 147.499L143.833 150.684C143.765 150.757 143.685 150.815 143.595 150.859ZM132.835 142.965L134.842 141.985C134.971 141.922 135.108 141.901 135.25 141.923C135.393 141.944 135.517 142.004 135.622 142.103L143.252 149.254L145.28 147.079L138.863 141.069C138.778 140.992 138.717 140.898 138.679 140.79C138.642 140.681 138.633 140.571 138.652 140.457C138.669 140.344 138.711 140.242 138.779 140.15C138.847 140.058 138.932 139.988 139.034 139.938L141.347 138.808L136.108 128.081L123.427 134.275L133.08 154.037L136.586 152.324L132.478 143.914C132.437 143.828 132.414 143.736 132.41 143.641C132.406 143.545 132.421 143.453 132.455 143.363C132.489 143.273 132.538 143.194 132.605 143.125C132.671 143.056 132.748 143.003 132.835 142.965ZM138.716 138.987L132.399 142.072C132.317 142.113 132.228 142.136 132.137 142.142C132.044 142.147 131.954 142.135 131.867 142.106C131.779 142.077 131.7 142.032 131.63 141.971C131.56 141.91 131.505 141.839 131.462 141.756L128.544 135.78C128.503 135.696 128.48 135.608 128.474 135.516C128.469 135.423 128.481 135.333 128.513 135.245C128.543 135.157 128.59 135.079 128.651 135.01C128.713 134.941 128.787 134.886 128.87 134.847L135.187 131.762C135.269 131.722 135.357 131.698 135.449 131.693C135.541 131.687 135.63 131.7 135.718 131.729C135.804 131.76 135.882 131.805 135.951 131.865C136.021 131.927 136.075 131.999 136.116 132.081L139.035 138.057C139.073 138.139 139.096 138.223 139.101 138.313C139.107 138.402 139.097 138.489 139.069 138.575C139.041 138.661 139 138.738 138.942 138.806C138.886 138.876 138.818 138.932 138.74 138.975L138.716 138.987ZM132.386 140.522L137.478 138.034L135.162 133.291L130.069 135.779L132.386 140.522Z" fill="#111111"/>
<path d="M150.233 120.398L141.753 124.54L152 145.52L156.263 143.437L151.344 133.367L155.537 131.318L160.456 141.389L164.751 139.291L154.504 118.312L150.233 120.398ZM154.399 128.928L150.182 130.988L147.904 126.324L152.097 124.275L154.399 128.928Z" fill="#F24C00"/>
<path d="M165.076 139.897L160.781 141.994C160.698 142.035 160.61 142.058 160.519 142.064C160.427 142.069 160.338 142.057 160.25 142.027C160.163 141.997 160.086 141.952 160.016 141.89C159.947 141.83 159.892 141.758 159.852 141.675L155.245 132.244L152.301 133.682L156.911 143.121C156.951 143.204 156.974 143.291 156.98 143.383C156.985 143.475 156.974 143.565 156.944 143.652C156.914 143.739 156.868 143.817 156.807 143.886C156.747 143.955 156.674 144.01 156.591 144.05L152.305 146.144C152.222 146.186 152.134 146.21 152.041 146.217C151.949 146.223 151.858 146.212 151.771 146.182C151.682 146.153 151.604 146.107 151.533 146.046C151.464 145.984 151.408 145.912 151.368 145.828L141.12 124.849C141.081 124.765 141.058 124.677 141.054 124.585C141.049 124.492 141.062 124.402 141.093 124.315C141.123 124.228 141.169 124.149 141.231 124.081C141.292 124.011 141.364 123.957 141.448 123.916L154.222 117.676C154.306 117.636 154.392 117.614 154.484 117.61C154.576 117.605 154.665 117.617 154.752 117.647C154.838 117.676 154.916 117.722 154.985 117.782C155.055 117.843 155.11 117.914 155.151 117.995L165.399 138.975C165.437 139.058 165.46 139.145 165.465 139.236C165.469 139.327 165.456 139.416 165.426 139.502C165.396 139.588 165.351 139.666 165.29 139.734C165.23 139.802 165.158 139.857 165.076 139.897ZM160.803 140.437L163.85 138.948L154.197 119.186L142.67 124.816L152.323 144.579L155.363 143.094L150.729 133.608C150.689 133.525 150.665 133.438 150.66 133.346C150.654 133.254 150.666 133.165 150.696 133.077C150.726 132.991 150.771 132.913 150.832 132.843C150.893 132.774 150.965 132.72 151.048 132.679L155.24 130.631C155.324 130.591 155.411 130.567 155.503 130.562C155.595 130.555 155.685 130.567 155.773 130.597C155.861 130.627 155.939 130.671 156.01 130.732C156.08 130.793 156.135 130.865 156.177 130.947L160.803 140.437ZM154.7 129.544L150.483 131.604C150.401 131.644 150.313 131.667 150.221 131.673C150.13 131.679 150.039 131.666 149.953 131.636C149.866 131.606 149.788 131.561 149.719 131.5C149.649 131.439 149.595 131.367 149.554 131.284L147.276 126.62C147.236 126.537 147.212 126.45 147.207 126.358C147.202 126.266 147.214 126.176 147.243 126.089C147.273 126.002 147.319 125.924 147.379 125.855C147.44 125.786 147.513 125.731 147.595 125.691L151.788 123.643C151.87 123.602 151.959 123.577 152.051 123.57C152.143 123.564 152.234 123.575 152.322 123.605C152.41 123.635 152.489 123.68 152.558 123.741C152.628 123.804 152.684 123.876 152.724 123.959L155.003 128.623C155.043 128.704 155.068 128.791 155.074 128.882C155.082 128.973 155.071 129.062 155.043 129.149C155.016 129.236 154.972 129.314 154.913 129.384C154.855 129.454 154.784 129.51 154.704 129.552L154.7 129.544ZM150.521 130.039L153.466 128.6L151.798 125.185L148.853 126.624L150.521 130.039Z" fill="#111111"/>
<path d="M174.547 108.532L181.547 122.863L174.426 117.413L171.259 118.96L171.146 126.534L164.701 113.341L159.758 115.755L170.002 136.727L174.945 134.312L174.879 122.586L184.79 129.503L190.333 126.796L180.09 105.824L174.547 108.532Z" fill="#F24C00"/>
<path d="M190.635 127.413L185.108 130.112C184.994 130.169 184.874 130.193 184.747 130.185C184.621 130.177 184.505 130.137 184.4 130.066L175.594 123.911L175.648 134.292C175.65 134.426 175.616 134.549 175.547 134.663C175.477 134.778 175.382 134.863 175.261 134.922L170.303 137.343C170.22 137.384 170.133 137.407 170.041 137.413C169.949 137.418 169.86 137.406 169.772 137.376C169.685 137.346 169.607 137.301 169.538 137.239C169.47 137.178 169.414 137.107 169.374 137.024L159.13 116.052C159.09 115.969 159.067 115.882 159.061 115.79C159.055 115.698 159.068 115.609 159.097 115.521C159.128 115.434 159.173 115.356 159.233 115.287C159.295 115.218 159.367 115.163 159.449 115.123L164.392 112.709C164.475 112.668 164.562 112.645 164.654 112.64C164.746 112.634 164.836 112.646 164.922 112.676C165.01 112.706 165.088 112.751 165.157 112.813C165.226 112.874 165.28 112.946 165.32 113.028L170.491 123.614L170.559 118.949C170.564 118.817 170.602 118.697 170.672 118.587C170.743 118.477 170.837 118.393 170.954 118.335L174.112 116.792C174.231 116.734 174.356 116.711 174.488 116.725C174.62 116.738 174.737 116.785 174.843 116.866L179.615 120.528L173.904 108.836C173.864 108.753 173.841 108.664 173.837 108.572C173.832 108.479 173.845 108.39 173.876 108.303C173.906 108.215 173.952 108.137 174.014 108.068C174.075 107.998 174.147 107.944 174.23 107.903L179.757 105.204C179.84 105.163 179.927 105.14 180.019 105.135C180.111 105.129 180.201 105.141 180.287 105.171C180.375 105.201 180.453 105.246 180.522 105.308C180.591 105.369 180.645 105.441 180.685 105.523L190.933 126.503C190.971 126.584 190.993 126.668 190.998 126.757C191.004 126.846 190.993 126.933 190.965 127.018C190.938 127.102 190.895 127.179 190.838 127.247C190.781 127.315 190.712 127.37 190.635 127.413ZM184.845 128.693L189.4 126.468L179.747 106.706L175.452 108.804L182.148 122.511C182.183 122.582 182.207 122.657 182.217 122.734C182.228 122.812 182.226 122.891 182.209 122.968C182.193 123.046 182.164 123.118 182.124 123.186C182.083 123.253 182.032 123.313 181.971 123.363C181.911 123.413 181.843 123.452 181.768 123.479C181.694 123.506 181.618 123.52 181.539 123.522C181.46 123.523 181.383 123.51 181.308 123.485C181.233 123.46 181.165 123.423 181.102 123.374L174.328 118.175L171.888 119.367L171.786 126.504C171.786 126.584 171.773 126.66 171.747 126.735C171.722 126.809 171.684 126.877 171.635 126.939C171.586 127 171.528 127.052 171.462 127.093C171.395 127.135 171.323 127.165 171.247 127.183C171.17 127.2 171.093 127.204 171.015 127.196C170.936 127.186 170.862 127.165 170.792 127.131C170.72 127.097 170.657 127.052 170.601 126.997C170.546 126.941 170.5 126.878 170.467 126.807L164.327 114.238L160.632 116.043L170.285 135.805L174.233 133.877L174.176 122.587C174.178 122.458 174.216 122.339 174.285 122.23C174.355 122.122 174.449 122.039 174.564 121.982C174.68 121.925 174.802 121.903 174.932 121.914C175.06 121.926 175.176 121.97 175.281 122.047L184.845 128.693Z" fill="#111111"/>
<path d="M74.7459 151.915C74.8563 152.141 74.9553 152.372 75.0432 152.608C75.1315 152.845 75.208 153.085 75.2722 153.329C75.3364 153.572 75.3887 153.819 75.4292 154.068C75.4685 154.316 75.4976 154.567 75.5128 154.818C75.5284 155.07 75.5313 155.321 75.5225 155.573C75.5136 155.825 75.4921 156.076 75.458 156.326C75.4247 156.576 75.3792 156.823 75.3202 157.068C75.2625 157.314 75.193 157.556 75.1113 157.793C75.0291 158.032 74.936 158.265 74.8312 158.495C74.7267 158.724 74.6109 158.948 74.4845 159.165C74.3577 159.383 74.2204 159.594 74.0733 159.798C73.9259 160.003 73.7691 160.199 73.6018 160.388C73.4354 160.577 73.2596 160.757 73.0753 160.929C72.8911 161.1 72.6984 161.262 72.498 161.414C72.2976 161.567 72.0904 161.71 71.8767 161.842C71.6623 161.974 71.4414 162.095 71.2153 162.205C70.9892 162.316 70.7579 162.416 70.5218 162.504C70.2858 162.591 70.0457 162.667 69.803 162.731C69.5594 162.795 69.313 162.847 69.0647 162.888C68.8157 162.928 68.5663 162.955 68.3142 162.971C68.0629 162.986 67.8117 162.989 67.5594 162.98C67.3083 162.97 67.0574 162.949 66.8073 162.915C66.5585 162.881 66.3107 162.835 66.0662 162.777C65.8204 162.718 65.5793 162.648 65.3403 162.566C65.1026 162.484 64.869 162.39 64.6392 162.285C64.4106 162.181 64.1875 162.065 63.9693 161.938C63.7519 161.811 63.5408 161.673 63.3366 161.526C63.1325 161.378 62.9362 161.221 62.747 161.054C62.5581 160.887 62.3775 160.711 62.2063 160.526C62.0348 160.341 61.8727 160.149 61.72 159.948C61.5673 159.748 61.4253 159.54 61.2928 159.325C61.1606 159.11 61.0387 158.89 60.9283 158.664C60.8175 158.437 60.7185 158.205 60.6306 157.969C60.5427 157.733 60.4662 157.493 60.4016 157.249C60.3374 157.005 60.285 156.759 60.245 156.511C60.2045 156.262 60.1766 156.012 60.1614 155.76C60.1458 155.508 60.1424 155.256 60.1513 155.004C60.1606 154.753 60.1821 154.502 60.2154 154.253C60.2495 154.003 60.295 153.755 60.3527 153.51C60.4113 153.264 60.4812 153.023 60.5625 152.784C60.645 152.546 60.7377 152.312 60.843 152.083C60.9471 151.854 61.0633 151.631 61.1893 151.413C61.3161 151.195 61.4534 150.984 61.6004 150.78C61.7483 150.576 61.905 150.379 62.0715 150.191C62.2388 150.001 62.4137 149.821 62.5988 149.65C62.7827 149.478 62.9754 149.316 63.1758 149.163C63.3753 149.011 63.583 148.869 63.7974 148.737C64.0119 148.605 64.2324 148.483 64.4585 148.372C64.6846 148.262 64.9163 148.163 65.1523 148.075C65.3876 147.987 65.6272 147.911 65.8708 147.847C66.1144 147.783 66.3608 147.73 66.6094 147.691C66.8577 147.651 67.1079 147.623 67.3592 147.608C67.6113 147.592 67.8625 147.589 68.1144 147.598C68.3654 147.607 68.6164 147.629 68.8664 147.663C69.1156 147.697 69.3631 147.743 69.608 147.802C69.8533 147.86 70.0949 147.93 70.3334 148.012C70.5716 148.094 70.8048 148.187 71.0337 148.293C71.2635 148.397 71.4867 148.514 71.7041 148.641C71.9223 148.768 72.1334 148.905 72.3371 149.052C72.5412 149.2 72.7379 149.357 72.9272 149.525C73.1161 149.691 73.2954 149.867 73.4678 150.052C73.639 150.236 73.8011 150.429 73.9538 150.629C74.1068 150.831 74.2488 151.038 74.381 151.253C74.5131 151.467 74.635 151.688 74.7459 151.915Z" fill="#F24C00"/>
<path d="M71.5207 162.83C71.4002 162.889 71.274 162.911 71.1413 162.897C71.0089 162.881 70.8907 162.833 70.7867 162.749C67.32 159.957 65.3842 159.297 60.946 159.36C60.811 159.362 60.6865 159.328 60.5718 159.257C60.4575 159.187 60.3699 159.091 60.3111 158.97C60.2519 158.849 60.2302 158.722 60.2449 158.588C60.2596 158.454 60.3088 158.334 60.3938 158.23C63.1719 154.768 63.8374 152.827 63.771 148.385C63.7686 148.252 63.8023 148.128 63.8715 148.014C63.9419 147.9 64.0368 147.814 64.1573 147.755C64.2777 147.694 64.4051 147.671 64.5399 147.685C64.6744 147.699 64.7942 147.749 64.8998 147.834C68.3616 150.617 70.2937 151.289 74.7406 151.222C74.8743 151.22 74.9988 151.254 75.1135 151.325C75.229 151.396 75.3154 151.491 75.3746 151.613C75.4334 151.733 75.4563 151.861 75.4404 151.994C75.4257 152.128 75.3765 152.248 75.2927 152.353C72.506 155.818 71.8443 157.747 71.9155 162.197C71.9175 162.332 71.8833 162.457 71.8113 162.572C71.7397 162.687 71.6427 162.773 71.5207 162.83ZM62.3103 157.989C63.0512 157.979 63.7883 158.034 64.5203 158.151C65.2527 158.269 65.9694 158.449 66.6705 158.69C67.372 158.932 68.0472 159.232 68.6967 159.589C69.3465 159.948 69.9612 160.359 70.54 160.823C70.5305 160.08 70.5855 159.343 70.7028 158.611C70.8209 157.879 70.9996 157.163 71.2401 156.461C71.4811 155.76 71.7793 155.084 72.1364 154.434C72.4926 153.784 72.9024 153.169 73.364 152.59C72.6227 152.599 71.886 152.544 71.154 152.427C70.4216 152.309 69.7049 152.13 69.0034 151.888C68.3023 151.647 67.6271 151.347 66.9772 150.988C66.3278 150.631 65.7131 150.22 65.1344 149.756C65.1466 150.495 65.0958 151.231 64.981 151.961C64.8673 152.693 64.6903 153.408 64.453 154.108C64.2145 154.808 63.9184 155.484 63.5645 156.132C63.2099 156.781 62.8022 157.394 62.3414 157.974L62.3103 157.989Z" fill="#111111"/>
<path d="M218.929 81.4883C219.039 81.7144 219.138 81.9461 219.226 82.1822C219.314 82.4191 219.391 82.6587 219.455 82.9023C219.519 83.1459 219.572 83.3923 219.612 83.6413C219.651 83.89 219.68 84.141 219.696 84.3919C219.711 84.644 219.714 84.8952 219.705 85.1471C219.696 85.399 219.675 85.65 219.641 85.9C219.608 86.1496 219.562 86.3971 219.503 86.642C219.445 86.8873 219.376 87.1293 219.294 87.367C219.212 87.606 219.119 87.8392 219.014 88.069C218.91 88.2975 218.794 88.5215 218.667 88.7389C218.541 88.9567 218.403 89.1678 218.256 89.3715C218.109 89.5765 217.952 89.7728 217.785 89.962C217.618 90.1509 217.442 90.3311 217.258 90.5023C217.074 90.6734 216.881 90.8355 216.681 90.9882C216.48 91.1409 216.273 91.2837 216.06 91.4154C215.845 91.5476 215.624 91.6687 215.398 91.7791C215.172 91.8895 214.941 91.9893 214.705 92.0772C214.469 92.1652 214.229 92.2408 213.986 92.3046C213.742 92.3688 213.496 92.4211 213.248 92.4612C212.999 92.5017 212.749 92.5292 212.497 92.5448C212.246 92.56 211.995 92.563 211.742 92.5533C211.491 92.544 211.24 92.5225 210.99 92.4884C210.741 92.4547 210.494 92.4084 210.248 92.3506C210.003 92.2917 209.762 92.2218 209.523 92.1396C209.285 92.0579 209.052 91.964 208.822 91.8591C208.593 91.7547 208.37 91.6384 208.152 91.5117C207.935 91.3845 207.724 91.2471 207.52 91.0993C207.315 90.9514 207.119 90.7947 206.93 90.6274C206.741 90.4609 206.56 90.2843 206.389 90.1001C206.218 89.915 206.056 89.7223 205.903 89.5219C205.75 89.3215 205.608 89.1139 205.476 88.8986C205.343 88.6841 205.222 88.4636 205.111 88.2375C205 88.0106 204.901 87.7789 204.813 87.5429C204.726 87.3068 204.649 87.0672 204.584 86.8227C204.52 86.5791 204.468 86.3328 204.428 86.0845C204.387 85.8355 204.359 85.5853 204.344 85.334C204.329 85.0818 204.325 84.8298 204.334 84.5779C204.343 84.3269 204.365 84.0759 204.398 83.8263C204.432 83.5763 204.478 83.3288 204.536 83.0835C204.594 82.8378 204.664 82.5966 204.745 82.358C204.828 82.1199 204.921 81.8859 205.025 81.6573C205.13 81.4275 205.246 81.2044 205.372 80.9866C205.499 80.7684 205.636 80.5572 205.783 80.3535C205.931 80.1494 206.088 79.9531 206.254 79.7643C206.422 79.575 206.597 79.3952 206.782 79.2236C206.966 79.0516 207.158 78.8895 207.359 78.7369C207.558 78.5846 207.766 78.4426 207.98 78.3104C208.195 78.1783 208.415 78.0564 208.641 77.946C208.867 77.8355 209.099 77.7366 209.335 77.6486C209.57 77.5611 209.81 77.4847 210.054 77.4205C210.297 77.3563 210.544 77.3039 210.792 77.2646C211.041 77.2245 211.291 77.1967 211.542 77.1815C211.794 77.1659 212.045 77.1629 212.297 77.1718C212.548 77.181 212.799 77.2025 213.048 77.2371C213.298 77.2712 213.546 77.3167 213.791 77.3756C214.036 77.4334 214.278 77.5041 214.516 77.5854C214.754 77.668 214.988 77.761 215.217 77.8663C215.446 77.9712 215.67 78.0874 215.887 78.2146C216.105 78.3414 216.316 78.4787 216.52 78.6258C216.724 78.7736 216.921 78.9312 217.11 79.0985C217.298 79.2654 217.478 79.4411 217.651 79.6258C217.822 79.8101 217.984 80.0028 218.137 80.2032C218.29 80.4044 218.432 80.612 218.564 80.8265C218.696 81.0409 218.818 81.2614 218.929 81.4883Z" fill="#F24C00"/>
<path d="M215.703 92.404C215.583 92.4649 215.456 92.4886 215.321 92.4743C215.186 92.4608 215.067 92.4107 214.961 92.3262C211.495 89.5345 209.567 88.8704 205.121 88.938C204.986 88.9396 204.861 88.9054 204.746 88.8346C204.632 88.7647 204.545 88.668 204.486 88.5476C204.427 88.4264 204.405 88.2994 204.42 88.1654C204.434 88.0314 204.484 87.9115 204.568 87.8075C207.355 84.3413 208.013 82.4046 207.946 77.963C207.943 77.8272 207.977 77.702 208.049 77.5877C208.121 77.4725 208.218 77.3866 208.34 77.329C208.46 77.2706 208.587 77.2481 208.719 77.2628C208.852 77.2779 208.97 77.3275 209.074 77.4117C212.537 80.1947 214.477 80.8626 218.915 80.7999C219.049 80.7974 219.174 80.8316 219.289 80.9024C219.404 80.9732 219.49 81.069 219.549 81.1902C219.608 81.3106 219.631 81.4385 219.616 81.5717C219.601 81.7057 219.551 81.8255 219.467 81.9303C216.689 85.3918 216.02 87.3247 216.09 91.7748C216.093 91.9086 216.058 92.0318 215.988 92.1461C215.919 92.2592 215.823 92.3456 215.703 92.404ZM206.493 87.5624C207.234 87.5546 207.971 87.6096 208.703 87.7281C209.434 87.8466 210.151 88.0261 210.852 88.2671C211.553 88.5092 212.228 88.8083 212.879 89.1653C213.528 89.5228 214.142 89.933 214.723 90.3962C214.713 89.6545 214.766 88.917 214.883 88.1842C215 87.4522 215.179 86.7351 215.419 86.0331C215.66 85.3321 215.959 84.6564 216.316 84.0061C216.674 83.3567 217.084 82.7416 217.547 82.1632C216.805 82.1735 216.069 82.1201 215.336 82.0033C214.604 81.886 213.887 81.7064 213.186 81.4647C212.484 81.2229 211.808 80.9231 211.159 80.5644C210.509 80.2061 209.895 79.7947 209.317 79.3294C209.328 80.0699 209.276 80.8054 209.16 81.5366C209.045 82.2678 208.868 82.9833 208.629 83.6832C208.39 84.3843 208.094 85.0588 207.74 85.7087C207.385 86.3577 206.977 86.972 206.517 87.5508L206.493 87.5624Z" fill="#111111"/>
</g>
<defs>
<clipPath id="clip0_116_1521">
<rect width="239.102" height="134.429" fill="white" transform="translate(0 104.94) rotate(-26.0332)"/>
</clipPath>
</defs>
</svg>
