<svg width="174" height="196" viewBox="0 0 174 196" fill="none" xmlns="http://www.w3.org/2000/svg">
<path d="M55.8106 192.154C55.6521 189.142 54.9438 186.325 53.9249 183.485C49.468 171.063 44.5932 158.77 39.9912 146.398C35.481 134.274 31.5452 122.11 27.7337 109.757C24.2333 98.4116 18.1548 88.0358 13.3285 77.2273C7.365 63.8719 2.64252 49.2738 4.21398 34.4571C4.51997 31.5721 5.34882 28.6342 6.59738 26.0236C7.39915 24.3471 9.5524 18.2937 11.3118 17.59C13.4297 16.7428 20.4573 24.406 21.5002 25.4212C28.9206 32.6441 34.8987 41.1242 40.3578 49.8837C47.2074 60.8741 54.5037 71.4199 61.5203 82.3346C72.1047 98.7992 81.0851 116.304 89.4401 134.01C92.8717 141.282 96.0697 148.659 99.0785 156.115C101.107 161.141 95.7311 151.556 95.3594 150.825C90.8747 142.002 89.0839 131.907 86.7424 122.381C82.9209 106.833 79.0181 91.4037 76.4755 75.5773C73.6552 58.0226 71.164 39.0696 75.1397 21.4925C75.9543 17.8912 77.6681 14.6533 79.697 11.5922C80.6198 10.1999 84.5711 3.26719 86.821 3.63008C88.6169 3.91974 91.5449 7.12544 92.6355 8.0302C96.7239 11.4221 100.849 14.7469 105.102 17.9305C112.552 23.5059 121.247 28.7904 126.867 36.3691C135.615 48.1655 141.995 61.6715 149.104 74.4511C153.117 81.6655 157.645 88.4466 160.89 96.0588C162.784 100.503 164.791 105.788 167.438 109.757C168.243 110.965 168.026 113.429 168.223 114.786C168.642 117.668 169.197 120.512 169.9 123.324" stroke="#F6CD46" stroke-width="7" stroke-linecap="round"/>
</svg>
