<svg width="50" height="48" viewBox="0 0 50 48" fill="none" xmlns="http://www.w3.org/2000/svg">
<path fill-rule="evenodd" clip-rule="evenodd" d="M21.6269 0.913691C16.5634 0.0818604 11.8133 0.761588 7.07959 1.04491C6.12832 1.09705 5.65367 1.92439 5.63786 2.87574C5.62204 3.8271 6.09257 4.25122 7.01589 4.48791C11.2416 5.56427 16.6425 4.48169 21.6199 4.36229C22.5712 4.33846 22.9775 3.21675 22.9763 2.26541C22.9808 1.31407 22.5783 0.923842 21.6269 0.913691ZM44.063 28.7748C44.0639 34.0808 45.2086 39.374 46.3194 44.6503C46.5131 45.5844 47.1705 46.0536 48.1104 45.9165C49.0502 45.7738 49.8421 45.082 49.722 44.1364C49.0357 38.5822 48.6719 32.9426 47.4656 28.2383C47.2267 27.31 47.1301 27.0836 46.1903 27.232C45.2561 27.3803 43.9033 27.835 44.063 28.7748ZM23.6766 9.86957C22.092 10.6473 20.1334 11.2783 18.5545 12.0504C12.8782 14.8208 7.58133 17.5794 1.39994 19.4331C0.494243 19.706 0.568943 20.5836 0.847542 21.495C1.12614 22.4063 1.47787 22.9269 2.41764 22.7332C11.2209 20.9386 19.0599 17.7578 25.2263 12.9595C25.9674 12.381 25.5987 11.8831 25.173 11.0286C24.7472 10.174 24.5311 9.44948 23.6766 9.86957ZM34.838 23.7917C31.6077 30.8911 30.9316 38.2421 29.015 45.3455C28.767 46.2632 29.5947 47.0436 30.5067 47.3256C31.4188 47.602 31.9903 47.2389 32.3233 46.3494C35.0042 39.1601 36.371 31.7403 38.0277 25.1298C38.2644 24.2009 37.7541 23.6635 36.8703 23.2909C35.9921 22.9239 35.1993 22.9192 34.838 23.7917ZM29.0544 17.6265C23.7318 22.4804 18.9608 29.2305 13.543 34.9452C12.8926 35.6369 13.1881 36.4463 13.8401 37.142C14.4922 37.8434 15.1664 38.0747 15.9074 37.4792C22.1133 32.4997 27.2699 26.2134 31.7073 19.8543C32.2499 19.0722 31.8021 18.699 31.0709 18.0827C30.3396 17.472 29.6594 16.9009 29.0544 17.6265Z" fill="#FF7A00"/>
</svg>
