<svg width="66" height="49" viewBox="0 0 66 49" fill="none" xmlns="http://www.w3.org/2000/svg">
<mask id="mask0_2_50" style="mask-type:luminance" maskUnits="userSpaceOnUse" x="0" y="0" width="66" height="49">
<path d="M65.3333 0H0V49H65.3333V0Z" fill="white"/>
</mask>
<g mask="url(#mask0_2_50)">
<path d="M64.9499 28.386C63.1099 40.657 53.21 49.396 41.88 48.785C41.46 48.811 41.07 48.824 40.68 48.824C38.9201 48.824 37.1599 48.586 35.4399 48.119C30.0899 46.663 25.51 43.011 22.55 37.834C19.82 33.059 18.68 27.402 19.33 21.807L17.38 21.05L14.76 22.781C13.97 23.306 12.97 23.414 12.09 23.071L2.43994 19.315C1.43994 18.922 0.700005 17.988 0.510005 16.876C0.370005 16.016 0.580053 15.14 1.06005 14.453C0.760053 14.169 0.51997 13.822 0.34997 13.429C0.00997037 12.657 -0.0199955 11.793 0.260005 10.998L1.53002 7.41102C1.97002 6.16401 3.09002 5.37901 4.28002 5.34101C4.35002 4.49001 4.72999 3.68403 5.36999 3.12903C6.20999 2.41003 7.34998 2.20798 8.35998 2.59998L18.01 6.357C18.89 6.699 19.58 7.463 19.85 8.401L20.76 11.506L22.38 12.136C23.7 9.72599 25.39 7.54703 27.36 5.74103C31.7 1.77003 37.12 -0.233006 42.63 0.101994C44.82 0.235994 46.95 0.722025 48.97 1.54602C59.93 4.61602 66.7899 16.121 64.9499 28.386Z" fill="white"/>
<path d="M48.14 4.21503C46.36 3.46803 44.4499 3.021 42.4799 2.901C37.6699 2.608 32.9199 4.36703 29.1199 7.85303C26.7799 9.99403 24.93 12.659 23.68 15.633L18.5899 13.652L17.3 9.22602C17.26 9.11502 17.1799 9.02599 17.0799 8.98499L7.43 5.22803C7.31 5.18203 7.1699 5.20602 7.0799 5.29102C6.9799 5.37502 6.9299 5.50802 6.9499 5.64002L7.53999 9.34998L4.48994 8.16602C4.30994 8.09402 4.09999 8.19199 4.03999 8.38599L2.76997 11.973C2.72997 12.066 2.73998 12.169 2.77998 12.259C2.81998 12.349 2.88993 12.419 2.97993 12.453L6.01997 13.638L3.26997 16.05C3.16997 16.135 3.11997 16.269 3.14997 16.4C3.16997 16.531 3.24994 16.64 3.36994 16.687L13.03 20.444C13.13 20.485 13.2499 20.472 13.3399 20.41L17.0699 17.941L22.3299 19.986C22.2399 20.426 22.1499 20.868 22.0899 21.315C21.2999 26.561 22.2799 31.916 24.8399 36.392C27.4399 40.934 31.4399 44.136 36.1099 45.405C37.6199 45.817 39.15 46.021 40.68 46.021C41.07 46.021 41.4699 46.005 41.8699 45.977C51.5199 46.576 60.62 39.251 62.31 27.95C64.01 16.654 57.5 6.75603 48.14 4.21503ZM17.16 17.176C17.12 17.16 17.08 17.152 17.03 17.152C16.97 17.152 16.8999 17.172 16.8399 17.21L13.1099 19.679L4.1999 16.21L6.9499 13.799C7.0499 13.713 7.08989 13.58 7.06989 13.449C7.04989 13.317 6.95991 13.208 6.83991 13.162L3.56001 11.882L4.5799 8.99597L7.85993 10.275C7.97993 10.321 8.11991 10.298 8.20991 10.213C8.30991 10.128 8.35991 9.99498 8.33991 9.86298L7.74995 6.15302L16.67 9.62097L17.9599 14.048C17.9899 14.16 18.07 14.249 18.18 14.289L39.15 22.453C39.91 22.749 40.3 23.636 40.02 24.432C39.74 25.228 38.8899 25.636 38.13 25.34L17.16 17.176ZM37.91 33.642C38.45 33.757 38.99 33.813 39.52 33.813C41.17 33.813 42.7999 33.276 44.2199 32.241C46.2799 30.743 47.6899 28.325 48.0999 25.606C48.5099 22.887 47.8699 20.13 46.3499 18.042C44.9599 16.129 42.97 14.935 40.76 14.679C37.44 14.294 34.3199 16.106 32.5899 19.099L29.02 17.712C31.28 12.976 35.7299 9.82202 40.6099 9.82202C40.9299 9.82202 41.2499 9.83602 41.5699 9.86402C44.9699 10.154 48.0399 11.909 50.2099 14.803C52.5899 17.972 53.5899 22.202 52.9599 26.408C52.3299 30.614 50.1399 34.316 46.9499 36.567C44.0399 38.623 40.6 39.305 37.28 38.487C30.75 36.879 26.52 29.738 27.64 22.231C27.65 22.175 27.66 22.121 27.67 22.065L31.2199 23.446C30.7599 28.307 33.61 32.718 37.91 33.642ZM39.4 21.753L37.4 20.972C37.45 20.939 37.5099 20.905 37.5699 20.876C37.9999 20.662 38.4699 20.554 38.9399 20.554C39.3299 20.554 39.7199 20.628 40.1099 20.776C41.8799 21.464 42.8199 23.512 42.1999 25.343C41.9099 26.201 41.32 26.877 40.53 27.247C39.71 27.63 38.7899 27.642 37.9399 27.279C37.0599 26.906 36.4 26.181 36.05 25.326L37.89 26.04C38.13 26.138 38.39 26.184 38.64 26.184C39.53 26.184 40.3599 25.613 40.6899 24.692C41.1099 23.51 40.53 22.191 39.4 21.753ZM37.67 27.972C38.17 28.184 38.6899 28.291 39.2099 28.291C39.7599 28.291 40.3099 28.17 40.8199 27.928C41.7899 27.475 42.5099 26.646 42.8699 25.593C43.6299 23.38 42.4999 20.904 40.3499 20.075C39.3299 19.677 38.23 19.722 37.26 20.2C37.01 20.324 36.78 20.475 36.56 20.648L33.27 19.365C34.73 16.928 37.1899 15.375 39.8699 15.375C40.1399 15.375 40.41 15.39 40.68 15.422C42.7 15.655 44.51 16.747 45.78 18.496C47.19 20.422 47.77 22.972 47.4 25.489C47.02 28.008 45.71 30.244 43.81 31.626C42.09 32.88 40.05 33.336 38.06 32.909C34.18 32.075 31.59 28.119 31.91 23.715L35.1899 24.99C35.5099 26.29 36.41 27.434 37.67 27.972ZM59.2399 27.444C58.3199 33.576 55.1099 38.935 50.4399 42.148C46.1499 45.099 41.13 45.998 36.29 44.681C27.14 42.191 21.21 31.978 22.79 21.431C22.85 21.033 22.9199 20.638 22.9999 20.248L26.9899 21.8C26.9699 21.905 26.9499 22.009 26.9399 22.115C25.7499 30.006 30.2299 37.518 37.1199 39.214C38.0899 39.454 39.07 39.572 40.04 39.572C42.6 39.572 45.1199 38.761 47.3499 37.188C50.6999 34.821 53 30.934 53.66 26.524C54.33 22.113 53.27 17.673 50.77 14.341C48.48 11.281 45.2299 9.42602 41.63 9.11902C36.06 8.64202 30.8699 12.097 28.3499 17.45L24.3499 15.895C27.4599 8.60502 34.1499 3.61798 41.4599 3.61798C41.7799 3.61798 42.1099 3.62697 42.4399 3.64697C47.4299 3.95197 51.95 6.42701 55.17 10.617C58.68 15.179 60.1599 21.312 59.2399 27.444Z" fill="black"/>
<path d="M59.24 27.443C58.32 33.576 55.11 38.935 50.44 42.148C46.15 45.099 41.1301 45.998 36.2901 44.681C27.1401 42.191 21.2101 31.978 22.7901 21.431C22.8501 21.033 22.92 20.638 23 20.248L26.99 21.8C26.97 21.905 26.95 22.009 26.94 22.115C25.75 30.006 30.23 37.518 37.12 39.214C38.09 39.454 39.0701 39.572 40.0401 39.572C42.6001 39.572 45.12 38.761 47.35 37.188C50.7 34.821 53.0001 30.934 53.6601 26.524C54.3301 22.113 53.27 17.673 50.77 14.341C48.48 11.281 45.23 9.42598 41.63 9.11798C36.06 8.64198 30.87 12.097 28.35 17.45L24.35 15.895C27.46 8.60502 34.15 3.617 41.46 3.617C41.78 3.617 42.11 3.62697 42.44 3.64697C47.43 3.95197 51.9501 6.427 55.1701 10.617C58.6801 15.179 60.16 21.312 59.24 27.443ZM40.82 27.929C40.31 28.17 39.76 28.291 39.21 28.291C38.69 28.291 38.1701 28.185 37.6701 27.971C36.4101 27.434 35.51 26.29 35.19 24.99L31.9101 23.715C31.5901 28.119 34.1801 32.076 38.0601 32.91C40.0501 33.337 42.0901 32.881 43.8101 31.627C45.7101 30.244 47.0201 28.008 47.4 25.49C47.7701 22.972 47.1801 20.423 45.7801 18.496C44.5101 16.748 42.7001 15.655 40.6801 15.422C40.4101 15.391 40.14 15.375 39.87 15.375C37.19 15.375 34.73 16.929 33.27 19.365L36.5601 20.648C36.7801 20.476 37.01 20.324 37.26 20.2C38.23 19.722 39.33 19.678 40.35 20.075C42.5 20.904 43.63 23.38 42.87 25.594C42.51 26.646 41.79 27.475 40.82 27.929Z" fill="#FF7B58"/>
<path d="M52.9599 26.408C52.3299 30.614 50.1399 34.316 46.9499 36.567C44.0399 38.623 40.6 39.305 37.28 38.487C30.75 36.879 26.52 29.738 27.64 22.231C27.65 22.175 27.66 22.12 27.67 22.064L31.2199 23.445C30.7599 28.307 33.62 32.718 37.91 33.642C38.45 33.757 38.99 33.813 39.52 33.813C41.17 33.813 42.7999 33.276 44.2199 32.241C46.2799 30.743 47.6899 28.324 48.0999 25.606C48.5099 22.887 47.8699 20.13 46.3499 18.042C44.9599 16.129 42.97 14.935 40.76 14.679C37.44 14.294 34.3199 16.106 32.5899 19.099L29.02 17.712C31.28 12.976 35.7299 9.82202 40.6099 9.82202C40.9299 9.82202 41.2499 9.83601 41.5699 9.86401C44.9699 10.154 48.0399 11.909 50.2099 14.803C52.5899 17.972 53.5899 22.202 52.9599 26.408ZM38.64 26.184C38.39 26.184 38.13 26.138 37.89 26.04L36.05 25.326C36.4 26.181 37.0599 26.906 37.9399 27.279C38.7899 27.642 39.71 27.63 40.53 27.247C41.32 26.877 41.9099 26.201 42.1999 25.343C42.8199 23.513 41.8799 21.464 40.1099 20.776C39.7199 20.628 39.3299 20.554 38.9399 20.554C38.4699 20.554 37.9999 20.662 37.5699 20.876C37.5099 20.905 37.45 20.939 37.4 20.972L39.4 21.753C40.53 22.191 41.1099 23.509 40.6899 24.692C40.3599 25.613 39.53 26.184 38.64 26.184Z" fill="white"/>
<path d="M40.02 24.432C39.74 25.228 38.89 25.636 38.13 25.34L17.16 17.176C17.12 17.16 17.08 17.152 17.03 17.152C16.97 17.152 16.9 17.172 16.84 17.21L13.11 19.678L4.19995 16.21L6.94995 13.799C7.04995 13.713 7.08995 13.58 7.06995 13.449C7.04995 13.317 6.95997 13.208 6.83997 13.162L3.56006 11.882L4.57996 8.99597L7.85999 10.275C7.97999 10.321 8.11996 10.298 8.20996 10.213C8.30996 10.128 8.35997 9.99498 8.33997 9.86298L7.75 6.15302L16.67 9.62097L17.96 14.048C17.99 14.16 18.0701 14.249 18.1801 14.289L39.15 22.453C39.91 22.749 40.3 23.636 40.02 24.432Z" fill="#829CFF"/>
</g>
</svg>
