<svg width="108" height="154" viewBox="0 0 108 154" fill="none" xmlns="http://www.w3.org/2000/svg">
<path d="M32.1935 4.25781C26.9004 9.55095 21.6194 14.405 15.5329 18.8028C12.1839 21.2226 8.64255 23.1407 8.42567 27.6951C8.05429 35.4942 7.56279 42.7651 5.97947 50.4381C3.00814 64.8377 3.12769 79.6839 4.22746 94.3045C4.68978 100.45 5.68242 106.729 7.00423 112.75C8.17441 118.081 10.9048 122.681 13.8139 127.229C17.9108 133.634 21.7904 140.544 26.9044 146.204C32.6698 152.584 39.2337 150.009 47.0029 148.187C53.0111 146.778 59.1442 145.332 65.0189 143.427C67.8149 142.52 72.456 141.36 73.3822 138.072C75.4512 130.727 80.9552 125.559 84.5554 119.031C89.4796 110.102 90.3741 100.975 89.547 90.8666C89.1234 85.6891 88.4591 80.2095 82.3737 80.5859C76.3238 80.9601 70.4258 82.3491 64.4569 83.2966C61.303 83.7972 59.6292 83.9739 56.4572 84.2221C54.3919 84.3838 48.5795 85.4244 50.2425 84.1891C53.2799 81.9327 59.2025 81.3885 62.6718 79.9578C68.4338 77.5817 73.987 74.7091 79.3986 71.6275C82.9161 69.6245 84.2315 68.7251 86.9686 71.4622C91.0233 75.517 96.6712 79.066 100.092 83.6271C101.348 85.302 101.551 88.6641 103.596 89.3459" stroke="#F6CD46" stroke-width="7" stroke-linecap="round"/>
</svg>
