<svg width="120" height="51" viewBox="0 0 120 51" fill="none" xmlns="http://www.w3.org/2000/svg">
<path d="M106.139 50.1548H18.328C11.1739 50.1548 5.31091 40.9317 5.31091 29.6758C5.31091 18.4006 11.1739 9.1969 18.328 9.1969H106.126C113.293 9.1969 119.156 18.4006 119.156 29.6758C119.156 40.9418 113.293 50.1548 106.139 50.1548Z" fill="#EDD136"/>
<mask id="mask0_5_19" style="mask-type:luminance" maskUnits="userSpaceOnUse" x="3" y="7" width="117" height="44">
<path d="M3.44312 7.45831H119.743V50.9894H3.44312V7.45831Z" fill="white"/>
</mask>
<g mask="url(#mask0_5_19)">
<path d="M116.355 15.7148L116.362 15.7047L111.561 7.46753L110.774 8.60381L111.753 10.2833C110.039 9.04652 108.134 8.35202 106.126 8.35202H18.328C10.8603 8.35202 4.78717 17.9274 4.78717 29.6758C4.78717 32.1402 5.05551 34.5142 5.54756 36.7167L4.3779 34.7153L3.59167 35.8516L7.81113 43.0834C10.2914 47.9016 14.0828 50.9894 18.328 50.9894H106.139C113.606 50.9894 119.667 41.414 119.667 29.6657C119.667 24.3347 118.421 19.4566 116.355 15.7148ZM103.076 49.3302L98.7483 41.9167L97.9621 43.0539L101.626 49.3302H95.5388L91.2172 41.9268L90.431 43.064L94.0879 49.3302H88.0717L83.7436 41.9065L82.9574 43.0438L86.6267 49.3201H80.5917L76.2636 41.9065L75.4768 43.0438L79.1402 49.3201H72.9836L68.6555 41.9065L67.8693 43.0438L71.5327 49.3201H65.3756L61.054 41.9167L60.2677 43.0539L63.9247 49.3201H57.7804L53.4524 41.9065L52.6661 43.0438L56.3295 49.3201H50.1724L45.8443 41.9065L45.0581 43.0438L48.7215 49.3201H42.5644L38.2427 41.9167L37.4565 43.0539L41.1134 49.3201H34.9692L30.6411 41.9065L29.8549 43.0539L33.5183 49.3302H27.3618L23.0396 41.9167L22.2533 43.0539L25.9167 49.3201H19.779L15.4509 41.9065L14.6517 43.0438L18.3151 49.3201C14.8948 49.3099 11.7939 47.137 9.5433 43.6165L9.55622 43.5971L8.55273 41.8872C6.85814 38.5374 5.84174 34.2929 5.84174 29.6758C5.84174 18.8331 11.4358 10.0325 18.3151 10.0325H106.126C109.604 10.0325 112.75 12.2755 115.019 15.8864L115.569 16.8317C116.886 19.2353 117.845 22.1424 118.305 25.341L115.019 19.7084L114.233 20.8447L118.58 28.2979C118.6 28.7507 118.613 29.2137 118.613 29.6758C118.613 31.4964 118.452 33.2571 118.159 34.9265L114.297 28.3182L113.511 29.4545L117.768 36.7573C117.206 39.04 116.381 41.1226 115.345 42.9026L111.26 35.9023L110.474 37.0386L114.591 44.0998C113.415 45.8098 112.027 47.1775 110.5 48.0823L106.254 40.8108L105.468 41.9471L109.38 48.6459C108.338 49.0886 107.245 49.3302 106.113 49.3302H103.076Z" fill="#040000"/>
</g>
<path d="M101.677 42.5006H13.8591C6.70491 42.5006 0.848999 33.2868 0.848999 22.0217C0.848999 10.7465 6.70491 1.53259 13.8591 1.53259H101.67C108.824 1.53259 114.687 10.7566 114.687 22.0115C114.687 33.2868 108.831 42.5006 101.677 42.5006Z" fill="#F4F4F4"/>
<mask id="mask1_5_19" style="mask-type:luminance" maskUnits="userSpaceOnUse" x="0" y="0" width="116" height="44">
<path d="M0.286499 0.697754H115.279V43.3472H0.286499V0.697754Z" fill="white"/>
</mask>
<g mask="url(#mask1_5_19)">
<path d="M101.677 0.697754H13.8591C6.39193 0.697754 0.318176 10.2335 0.318176 22.0012C0.318176 33.7699 6.39193 43.325 13.8591 43.325H101.67C109.137 43.325 115.211 33.7496 115.211 22.0012C115.211 10.2538 109.144 0.697754 101.677 0.697754ZM33.0004 41.6556H13.872C6.9797 41.6556 1.38566 32.8347 1.38566 22.0114C1.38566 11.189 6.9797 2.37728 13.8591 2.37728H33.0004L34.0427 2.35791H101.67C108.562 2.35791 114.156 11.1789 114.156 22.0012C114.156 32.8439 108.55 41.6455 101.67 41.6455H33.0004V41.6556Z" fill="#3A3A3A"/>
</g>
<mask id="mask2_5_19" style="mask-type:luminance" maskUnits="userSpaceOnUse" x="0" y="0" width="116" height="44">
<path d="M0.286499 0.697754H115.279V43.3472H0.286499V0.697754Z" fill="white"/>
</mask>
<g mask="url(#mask2_5_19)">
<path d="M101.677 0.697754H13.8591C6.39193 0.697754 0.318176 10.2335 0.318176 22.0012C0.318176 33.7699 6.39193 43.325 13.8591 43.325H101.67C109.137 43.325 115.211 33.7496 115.211 22.0012C115.211 10.2538 109.144 0.697754 101.677 0.697754ZM33.0004 41.6556H13.872C6.9797 41.6556 1.38566 32.8347 1.38566 22.0114C1.38566 11.189 6.9797 2.37728 13.8591 2.37728H33.0004L34.0427 2.35791H101.67C108.562 2.35791 114.156 11.1789 114.156 22.0012C114.156 32.8439 108.55 41.6455 101.67 41.6455H33.0004V41.6556Z" fill="#3A3A3A"/>
</g>
</svg>
