<svg width="161" height="58" viewBox="0 0 161 58" fill="none" xmlns="http://www.w3.org/2000/svg">
<path fill-rule="evenodd" clip-rule="evenodd" d="M83.593 55.602C100.858 55.182 114.572 43.236 114.224 28.921C113.875 14.605 99.597 3.34098 82.332 3.76098C79.89 3.81998 77.519 4.11 75.249 4.605C74.403 4.675 73.548 4.83098 72.694 5.08098L8.79902 23.749C0.925018 26.049 1.19903 37.297 9.17603 39.212L73.902 54.751C74.766 54.959 75.626 55.073 76.473 55.102C78.766 55.487 81.15 55.661 83.593 55.602Z" fill="#F7F5D0"/>
<path d="M75.249 4.60502L75.434 6.83702L75.581 6.82503L75.726 6.79301L75.249 4.60502ZM76.473 55.102L76.843 52.893L76.698 52.869L76.55 52.864L76.473 55.102ZM111.984 28.975C112.293 41.679 99.978 52.962 83.538 53.362L83.6469 57.841C101.738 57.401 116.851 44.793 116.463 28.866L111.984 28.975ZM82.386 6.00001C98.825 5.60001 111.675 16.271 111.984 28.975L116.463 28.866C116.076 12.939 100.368 1.08101 82.277 1.52101L82.386 6.00001ZM75.726 6.79301C77.857 6.32901 80.086 6.05601 82.386 6.00001L82.277 1.52101C79.693 1.58401 77.1809 1.891 74.7719 2.416L75.726 6.79301ZM73.322 7.231C74.032 7.024 74.738 6.89502 75.434 6.83702L75.064 2.37202C74.068 2.45402 73.065 2.63801 72.065 2.93001L73.322 7.231ZM9.42796 25.899L73.322 7.231L72.065 2.93001L8.171 21.598L9.42796 25.899ZM9.69895 37.034C3.95495 35.655 3.75796 27.556 9.42796 25.899L8.171 21.598C-1.908 24.543 -1.55701 38.94 8.65299 41.391L9.69895 37.034ZM74.425 52.573L9.69895 37.034L8.65299 41.391L73.379 56.93L74.425 52.573ZM76.55 52.864C75.853 52.84 75.143 52.745 74.425 52.573L73.379 56.93C74.39 57.172 75.399 57.307 76.396 57.341L76.55 52.864ZM83.538 53.362C81.237 53.418 78.996 53.254 76.843 52.893L76.103 57.312C78.536 57.72 81.0619 57.904 83.6469 57.841L83.538 53.362Z" fill="black"/>
<path d="M81.9584 38.5488C87.7212 38.4086 92.2986 34.4214 92.1823 29.6431C92.0661 24.8649 87.3002 21.105 81.5374 21.2452C75.7747 21.3854 71.1973 25.3726 71.3135 30.1509C71.4298 34.9291 76.1956 38.689 81.9584 38.5488Z" fill="black"/>
</svg>
