<svg width="117" height="57" viewBox="0 0 117 57" fill="none" xmlns="http://www.w3.org/2000/svg">
<path fill-rule="evenodd" clip-rule="evenodd" d="M83.5929 54.6017C100.858 54.1817 114.572 42.2361 114.224 27.9206C113.875 13.6051 99.5969 2.34053 82.3317 2.76057C79.8898 2.81997 77.5191 3.10992 75.249 3.6045C74.403 3.67465 73.5481 3.83108 72.6935 4.08075L8.79937 22.7488C0.924958 25.0495 1.19861 36.2973 9.17558 38.2124L73.902 53.7512C74.7661 53.9587 75.6263 54.0733 76.4733 54.1025C78.766 54.4866 81.1495 54.6612 83.5929 54.6017Z" fill="#F7F5D0"/>
<path d="M82.3317 2.76057L82.2772 0.520945L82.3317 2.76057ZM75.249 3.6045L75.4342 5.83713L75.5815 5.82491L75.7259 5.79344L75.249 3.6045ZM72.6935 4.08075L73.3218 6.23113L73.3218 6.23113L72.6935 4.08075ZM8.79937 22.7488L9.42765 24.8992L8.79937 22.7488ZM9.17558 38.2124L9.69855 36.034L9.17558 38.2124ZM73.902 53.7512L73.379 55.9296L73.902 53.7512ZM76.4733 54.1025L76.8434 51.893L76.6979 51.8686L76.5504 51.8635L76.4733 54.1025ZM111.984 27.9751C112.293 40.6793 99.9777 51.9622 83.5384 52.3621L83.6474 56.8414C101.738 56.4012 116.851 43.793 116.463 27.8661L111.984 27.9751ZM82.3862 5.00019C98.8255 4.60024 111.675 15.2709 111.984 27.9751L116.463 27.8661C116.076 11.9392 100.368 0.0808124 82.2772 0.520945L82.3862 5.00019ZM75.7259 5.79344C77.8569 5.32914 80.0863 5.05614 82.3862 5.00019L82.2772 0.520945C79.6934 0.583805 77.1812 0.890697 74.7721 1.41557L75.7259 5.79344ZM73.3218 6.23113C74.0316 6.02376 74.7381 5.89484 75.4342 5.83713L75.0639 1.37188C74.068 1.45446 73.0646 1.6384 72.0653 1.93037L73.3218 6.23113ZM9.42765 24.8992L73.3218 6.23113L72.0653 1.93037L8.17109 20.5984L9.42765 24.8992ZM9.69855 36.034C3.95459 34.655 3.75755 26.5558 9.42765 24.8992L8.17109 20.5984C-1.90763 23.5431 -1.55737 37.9396 8.65262 40.3908L9.69855 36.034ZM74.4249 51.5728L9.69855 36.034L8.65262 40.3908L73.379 55.9296L74.4249 51.5728ZM76.5504 51.8635C75.8534 51.8395 75.1427 51.7452 74.4249 51.5728L73.379 55.9296C74.3896 56.1722 75.3991 56.3071 76.3962 56.3414L76.5504 51.8635ZM83.5384 52.3621C81.2371 52.4181 78.9957 52.2536 76.8434 51.893L76.1031 56.312C78.5362 56.7196 81.062 56.9043 83.6474 56.8414L83.5384 52.3621Z" fill="black"/>
<ellipse cx="81.7482" cy="28.8971" rx="10.4375" ry="8.65433" transform="rotate(-1.39366 81.7482 28.8971)" fill="black"/>
</svg>
