<svg width="408" height="175" viewBox="0 0 408 175" fill="none" xmlns="http://www.w3.org/2000/svg">
<path d="M87.6731 45.5696C87.9611 47.8736 97.7591 45.5696 98.9081 45.5696C103.571 45.5696 105.739 46.7526 109.589 48.7796C113.92 51.0586 120.448 55.2266 122.983 59.5716C126.244 65.1616 128.978 71.3726 131.506 77.0606C134.171 83.0576 134.305 93.0286 134.494 99.1426C134.705 105.961 136.62 113.386 137.483 120.286" stroke="black" stroke-width="3" stroke-linecap="round"/>
<path d="M48.412 46.9976C51.265 46.9976 54.14 45.5856 56.232 43.6326C59.031 41.0196 59.928 38.1536 59.928 34.2026" stroke="black" stroke-width="3" stroke-linecap="round"/>
<path d="M88.5031 46.9976C85.2281 46.9976 83.7141 44.8317 81.9161 42.5197C79.9421 39.9807 79.2491 37.5746 78.2671 34.6296" stroke="black" stroke-width="3" stroke-linecap="round"/>
<path d="M159.37 73.3756C164.478 68.9976 171.741 67.5726 176.835 63.2936C186.392 55.2656 194.521 45.8296 204.878 38.7766C211.769 34.0846 218.385 29.1266 225.345 24.5076C232.445 19.7956 240.244 15.4726 246.667 9.85263C249.669 7.22563 253.314 5.28359 256.225 2.58059C257.1 1.76859 257.528 1.98061 258.815 2.19461C264.414 3.12761 270.092 3.40059 275.729 4.06759C289.994 5.75859 304.07 6.38164 318.233 8.88864C323.079 9.74664 327.988 10.1196 332.833 10.9276C335.51 11.3736 338.041 12.3136 340.767 12.6076C347.817 13.3666 354.968 12.2576 361.978 13.3786C366.275 14.0666 370.589 14.6176 374.87 15.3626C377.356 15.7946 379.815 15.8576 382.335 15.8576C384.23 15.8576 393.261 14.6076 394.18 16.5196C395.176 18.5906 394.401 22.6236 394.401 24.8386C394.401 26.1746 394.452 27.5246 394.401 28.8606C394.351 30.1516 393.626 31.9366 393.354 33.2956C390.983 45.1506 391.25 57.2776 391.811 69.3546C392.167 77.0076 391.426 84.5836 391.426 92.2186C391.426 95.6166 393.174 99.1776 392.803 102.521C392.319 106.877 375.103 103.63 372.528 103.458C361.03 102.689 349.398 102.894 337.874 102.659C327.946 102.456 317.999 102.631 308.069 102.631C301.037 102.631 293.99 102.77 286.968 102.328C278.587 101.801 270.436 99.9106 262.12 98.8846C254.317 97.9216 246.056 98.5836 238.21 98.2786C230.098 97.9636 221.967 98.4526 213.858 98.1406C209.759 97.9826 206.077 96.3336 202.068 95.7996C198.683 95.3476 195.065 95.6886 191.655 95.6886C188.262 95.6886 185.681 94.6976 182.262 94.6976C175.748 94.6976 169.559 91.6306 163.006 91.2816C156.835 90.9526 150.592 91.2266 144.412 91.2266C141.946 91.2266 140.06 91.6946 142.291 89.4636C143.817 87.9376 144.983 86.1166 146.203 84.3396C147.823 81.9786 149.424 81.7246 151.795 80.4836C159.469 76.4636 167.024 72.9876 172.758 66.4346" stroke="black" stroke-width="3" stroke-linecap="round"/>
<path d="M235.212 74.9226C233.929 75.5246 232.496 76.0486 231.346 76.8916C230.846 76.8916 229.184 77.7575 229.202 78.2315C229.231 78.9915 230.16 79.7236 230.233 80.6036C230.298 81.3876 230.502 82.1536 230.604 82.9336C230.759 84.1096 230.663 85.4766 231.058 86.6036C231.082 86.6746 232.115 86.2256 232.264 86.1806C232.699 86.0506 233.16 85.9935 233.573 85.7995C237.77 83.8175 242.558 84.4216 246.635 81.9126C247.943 81.1076 248.869 80.5995 250.377 80.2735C251.063 80.1255 255.821 79.7396 255.821 78.6546C255.821 78.4316 255.469 78.1945 255.336 78.0465C254.473 77.0825 253.756 75.9846 253.037 74.9126C252.498 74.1096 251.951 73.2646 251.48 72.4276C251.065 71.6896 250.339 67.1836 249.779 67.4696C248.748 67.9956 247.667 68.4436 246.656 69.0056C245.341 69.7356 244.109 70.6636 242.728 71.3866C240.27 72.6726 237.722 73.7456 235.212 74.9226Z" stroke="black" stroke-linecap="round"/>
<path d="M242.851 73.5515C242.407 73.5515 242.064 73.7505 241.676 73.9635C240.99 74.3415 239.454 74.8145 239.099 75.5515C238.746 76.2835 238.142 77.2315 238.686 78.0875C239.882 79.9655 240.681 77.6335 242.388 77.6335C243.203 77.6335 245.056 77.0295 245.728 77.5515C246.525 78.1715 245.368 79.1015 244.934 79.5515C244.098 80.4185 243.157 82.0875 241.924 82.0875" stroke="black" stroke-linecap="round"/>
<path d="M237.841 74.4796C239.241 75.8786 239.783 78.0316 241.078 79.5616C241.506 80.0676 242.392 80.4256 242.666 80.9746" stroke="black" stroke-linecap="round"/>
<path d="M240.254 73.5515C240.962 74.1085 242.181 74.5715 242.295 75.5925C242.353 76.1155 242.911 76.6755 243.037 77.2115C243.227 78.0165 243.304 78.6635 243.872 79.2315C245.237 80.5965 245.376 82.9415 246.748 84.3145" stroke="black" stroke-linecap="round"/>
<path d="M232.44 76.5276C232.339 76.6726 232.44 77.0696 232.44 77.2356C232.44 77.5906 232.44 77.9446 232.44 78.2986C232.44 78.6716 231.976 79.0396 231.803 79.3616C231.508 79.9086 230.902 79.8266 230.386 79.9986" stroke="black" stroke-width="0.5" stroke-linecap="round"/>
<path d="M230.527 82.8325C230.643 82.9355 230.78 82.9055 230.921 82.8685C231.226 82.7875 231.576 82.8325 231.889 82.8325C232.1 82.8325 232.262 82.9345 232.424 83.0455C232.795 83.2975 233.102 83.8215 233.255 84.2495C233.355 84.5295 233.516 84.8106 233.574 85.0996" stroke="black" stroke-width="0.5" stroke-linecap="round"/>
<path d="M252.56 75.3936C252.495 75.5986 252.435 75.7575 252.352 75.9525C252.271 76.1425 252.299 76.3025 252.261 76.5115C252.176 76.9835 252.206 77.4615 252.206 77.9445C252.206 78.3965 252.468 78.4595 252.718 78.7005C252.847 78.8245 252.916 79.0425 253.092 79.0815C253.186 79.1025 253.302 79.2145 253.34 79.2905" stroke="black" stroke-width="0.5" stroke-linecap="round"/>
<path d="M248.026 68.3806C248.045 68.8736 248.011 69.7416 248.412 70.0846C248.569 70.2186 248.653 70.5716 248.88 70.6476C249.308 70.7906 249.857 71.0056 250.293 70.8596" stroke="black" stroke-width="0.5" stroke-linecap="round"/>
<path d="M244.635 71.7936C244.752 71.7676 244.855 71.4186 244.922 71.2986C244.994 71.1676 245.046 71.5445 245.049 71.5705C245.086 71.8755 245.14 72.1875 245.156 72.4945C245.186 73.0655 245.355 73.6756 245.469 74.2436" stroke="black" stroke-width="0.5" stroke-linecap="round"/>
<path d="M246.459 72.7836C246.4 72.8296 246.183 72.7136 246.146 72.6506C246.041 72.4656 246.042 72.2756 245.987 72.0836C245.893 71.7546 245.913 71.4876 246.314 71.4806C246.962 71.4706 247.008 71.9296 247.03 72.5206C247.036 72.6906 247.081 73.0056 246.917 73.1366C246.863 73.1796 246.688 73.0327 246.668 72.9927" stroke="black" stroke-width="0.5" stroke-linecap="round"/>
<path d="M248.335 72.7316C248.211 72.7316 247.941 72.4936 247.919 72.3666C247.872 72.1046 247.791 72.0036 247.919 71.7156C248.06 71.3966 248.512 71.5987 248.619 71.8427C248.723 72.0797 248.519 72.3856 248.335 72.5236" stroke="black" stroke-width="0.5" stroke-linecap="round"/>
<path d="M249.69 72.4716C249.48 72.3566 249.287 72.1496 249.273 71.8976C249.264 71.7076 249.633 71.2076 249.821 71.3536C250.122 71.5876 250.176 72.1766 249.795 72.3666" stroke="black" stroke-width="0.5" stroke-linecap="round"/>
<path d="M206.007 74.0696C206.175 72.7296 206.407 71.3846 206.53 70.0386C206.633 68.9256 206.815 67.8096 206.815 66.6886C206.815 65.7856 206.956 64.9696 207.136 64.0786C207.393 62.8076 207.458 61.5416 207.589 60.2566C207.642 59.7326 207.708 59.2336 207.783 58.7086C207.829 58.3856 207.819 58.0686 207.824 57.7446C207.831 57.2626 208.359 57.6706 208.628 57.7706C209.691 58.1646 210.916 57.9286 211.922 58.4846C212.496 58.8016 213.073 58.9256 213.68 59.1276" stroke="black" stroke-linecap="round"/>
<path d="M209.103 74.3397C209.123 73.2067 209.668 72.3337 210.049 71.3027C210.249 70.7627 210.459 70.2307 210.677 69.6987C210.85 69.2787 210.851 68.8356 210.95 68.3976C211.094 67.7626 211.173 66.9877 211.444 66.3967C211.561 66.1417 211.646 65.9967 211.676 65.7017C211.71 65.3627 211.904 65.0706 211.93 64.7516C212.006 63.8166 212.457 62.9197 212.599 61.9957C212.648 61.6817 212.843 61.4526 212.887 61.1396C212.995 60.3826 213.158 59.5986 213.343 58.8586" stroke="black" stroke-linecap="round"/>
<path d="M213.343 58.8586C213.585 59.0256 213.957 59.1926 214.144 59.4156C214.7 60.0796 215.129 60.6727 215.908 61.0947C216.974 61.6717 217.921 62.4266 218.93 63.0986" stroke="black" stroke-linecap="round"/>
<path d="M212.065 75.3486C212.506 73.7956 213.591 72.5406 214.054 70.9816C214.388 69.8566 214.623 68.6846 214.787 67.5186C214.879 66.8626 215.118 66.2726 215.232 65.6306C215.35 64.9616 215.395 64.2566 215.55 63.5996C215.733 62.8206 215.996 62.0876 216.103 61.2816" stroke="black" stroke-linecap="round"/>
<path d="M205.891 74.5435C205.811 74.4535 206.001 74.1105 206.076 74.0355C206.123 73.9885 206.162 73.9985 206.229 73.9955C206.401 73.9895 206.601 73.9995 206.767 73.9455C207.096 73.8395 207.439 73.8235 207.786 73.8235C208.084 73.8235 208.412 73.7805 208.699 73.8725C208.873 73.9285 209.06 73.9205 209.239 73.9595C209.356 73.9855 209.466 74.0365 209.586 74.0605C209.746 74.0925 209.985 74.0985 210.112 74.2125C210.284 74.3655 210.481 74.4755 210.688 74.5765C210.78 74.6215 211.101 74.6935 211.159 74.7915C211.301 75.0315 211.431 75.2295 211.65 75.4125" stroke="black" stroke-linecap="round"/>
<path d="M213.903 76.2575C213.903 75.6355 214.297 75.0595 214.59 74.5375C215.125 73.5815 215.606 72.6305 215.872 71.5625C216.026 70.9445 216.15 70.3115 216.372 69.7135C216.577 69.1635 216.882 68.6676 217.178 68.1646C217.437 67.7236 217.704 67.2885 217.964 66.8485C218.238 66.3875 218.393 65.9086 218.562 65.4046C218.629 65.2076 219.459 63.0116 219.585 63.0476C219.798 63.1086 220.065 63.3925 220.235 63.5195C220.975 64.0685 221.83 64.2995 222.635 64.7185C222.756 64.7805 222.866 64.9226 222.964 65.0086C223.267 65.2746 223.579 65.5225 223.922 65.7335C224.327 65.9815 224.718 66.1315 225.023 66.4865C225.475 67.0125 226.143 67.3055 226.735 67.6355C226.818 67.6815 226.883 67.7866 226.954 67.8496C227.148 68.0226 227.359 68.1736 227.566 68.3286C227.82 68.5186 226.824 69.3865 226.715 69.4845C226.473 69.7055 226.162 69.8636 225.939 70.0996C225.623 70.4326 225.428 70.8765 225.138 71.2335C224.768 71.6895 224.277 72.0335 223.808 72.3775C223.181 72.8375 222.671 73.4755 222.087 73.9915C221.524 74.4895 220.977 75.0075 220.378 75.4645C219.79 75.9125 219.173 76.3175 218.624 76.8175C218.22 77.1865 217.856 77.6245 217.48 78.0235C217.266 78.2515 217.229 78.3815 217.197 78.6885C217.156 79.0775 216.962 78.5985 216.868 78.4785C216.68 78.2405 216.386 77.9955 216.143 77.8065C215.939 77.6475 215.636 77.5996 215.448 77.4356C215.022 77.0626 214.393 76.9315 213.903 76.6865" stroke="black" stroke-linecap="round"/>
<path d="M212.23 75.6145C212.599 75.6555 213.002 75.7185 213.345 75.8625C213.465 75.9115 213.667 75.9145 213.732 76.0435" stroke="black" stroke-linecap="round"/>
<path d="M215.556 75.3886C215.427 75.3806 215.504 74.8806 215.544 74.7706C215.613 74.5766 215.639 74.3386 215.688 74.1386C215.722 73.9986 215.75 74.0976 215.824 74.1976C215.98 74.4096 216.167 74.6146 216.304 74.8386C216.411 75.0146 216.526 75.1946 216.625 75.3756C216.729 75.5666 216.795 75.7636 216.933 75.9386C217.015 76.0426 217.075 76.1586 217.157 76.2656C217.316 76.4746 217.507 76.6736 217.65 76.8876" stroke="black" stroke-width="0.5" stroke-linecap="round"/>
<path d="M218.102 75.7456C218.083 75.6706 218.012 75.6026 217.971 75.5396C217.9 75.4306 217.85 75.3136 217.793 75.1986C217.706 75.0246 217.585 74.8616 217.483 74.6966C217.377 74.5236 217.26 74.3255 217.132 74.1695C216.995 74.0035 216.808 73.7435 216.794 73.5235C216.784 73.3535 216.899 73.0755 217.1 73.1095C217.263 73.1375 217.527 73.1425 217.66 73.2475C217.876 73.4155 218.122 73.5615 218.356 73.7055C218.499 73.7945 218.571 73.9416 218.646 74.0896C218.712 74.2186 218.796 74.3486 218.839 74.4856C218.917 74.7306 219.055 75.1896 218.958 75.4576C218.917 75.5726 218.521 75.4836 218.435 75.4836" stroke="black" stroke-width="0.5" stroke-linecap="round"/>
<path d="M219.934 74.1986C219.887 74.1936 219.834 74.1556 219.794 74.1356C219.68 74.0806 219.559 74.0396 219.45 73.9766C219.395 73.9456 219.331 73.9096 219.278 73.8716C219.053 73.7056 218.928 73.4436 218.778 73.2076C218.518 72.7966 218.37 72.4056 218.387 71.9196C218.394 71.7166 218.515 71.5226 218.622 71.3566C218.692 71.2496 218.706 71.2267 218.837 71.2247C219.001 71.2227 219.11 71.2936 219.244 71.3796C219.353 71.4496 219.44 71.5536 219.533 71.6426C219.658 71.7606 219.806 71.8486 219.933 71.9626C220.065 72.0816 220.175 72.2146 220.32 72.3216C220.396 72.3786 220.503 72.4236 220.564 72.4986C220.729 72.7006 220.701 73.1456 220.649 73.3776C220.638 73.4266 220.596 73.4446 220.568 73.4836C220.545 73.5186 220.558 73.5586 220.529 73.5906C220.482 73.6426 220.471 73.7276 220.399 73.7486C220.246 73.7916 220.117 74.0356 219.981 74.1036" stroke="black" stroke-width="0.5" stroke-linecap="round"/>
<path d="M221.956 72.5335C221.797 72.4005 221.566 72.3235 221.383 72.2295C221.103 72.0865 220.842 71.8735 220.576 71.7055C220.329 71.5495 220.102 71.2795 219.971 71.0235C219.853 70.7945 219.826 70.5815 219.874 70.3245C219.906 70.1535 219.957 70.1215 220.099 70.0145C220.208 69.9335 220.405 69.8155 220.547 69.8205C220.628 69.8235 220.712 69.9075 220.775 69.9475C220.936 70.0505 221.1 70.2285 221.231 70.3695C221.368 70.5175 221.42 70.7735 221.537 70.9455C221.675 71.1475 221.799 71.3575 221.935 71.5605C222.031 71.7025 222.052 71.9205 222.052 72.0935C222.052 72.1765 222.122 72.3435 222.028 72.3905" stroke="black" stroke-width="0.5" stroke-linecap="round"/>
<path d="M223.551 71.1296C223.376 71.1296 223.228 71.0886 223.059 71.0476C222.837 70.9936 222.608 70.9656 222.389 70.9056C222.359 70.8976 222.352 70.8906 222.332 70.8726C222.196 70.7576 222.1 70.6856 222.028 70.5226C221.98 70.4156 221.922 70.3056 221.851 70.2136C221.717 70.0416 221.755 69.6966 221.766 69.4876C221.784 69.1636 222.018 69.0326 222.276 68.8906C222.44 68.7996 222.638 68.9816 222.76 69.0676C222.97 69.2136 223.158 69.3576 223.33 69.5546C223.449 69.6926 223.616 69.8526 223.696 70.0206C223.791 70.2206 223.819 70.4436 223.884 70.6536C223.93 70.8016 224.114 71.2246 223.86 71.2246" stroke="black" stroke-width="0.5" stroke-linecap="round"/>
<path d="M225.335 69.5586C225.246 69.6386 225.05 69.7166 224.936 69.6776C224.811 69.6366 224.7 69.5746 224.569 69.5456C224.522 69.5356 224.5 69.5416 224.468 69.5116C224.325 69.3756 224.107 69.3176 223.974 69.1836C223.9 69.1106 223.834 69.0176 223.778 68.9296C223.668 68.7576 223.578 68.6426 223.574 68.4276C223.571 68.2006 223.503 67.9336 223.744 67.7846C223.945 67.6606 224.075 67.4756 224.336 67.5156C224.459 67.5346 224.56 67.5736 224.665 67.6356C224.81 67.7206 224.938 67.8636 225.014 68.0146C225.064 68.1146 225.086 68.2266 225.155 68.3136C225.325 68.5266 225.573 68.7766 225.573 69.0676C225.573 69.1546 225.633 69.2686 225.582 69.3526C225.538 69.4276 225.5 69.5066 225.454 69.5826" stroke="black" stroke-width="0.5" stroke-linecap="round"/>
<path d="M219.98 65.2026C219.836 65.3886 219.681 65.5326 219.547 65.7256C219.402 65.9356 219.403 66.3087 219.205 66.4827C219.104 66.5717 219.275 67.1327 219.288 67.2147C219.302 67.3047 219.291 67.4467 219.378 67.4957C219.405 67.5107 219.45 67.5406 219.469 67.5646C219.578 67.7016 219.864 67.6027 220.01 67.6627C220.137 67.7147 220.412 67.7716 220.493 67.6226C220.709 67.2266 221.226 66.9747 221.598 66.7557C221.721 66.6827 222.088 66.4176 222.236 66.5026C222.295 66.5376 222.406 66.6827 222.415 66.7587C222.455 67.0967 222.286 67.3646 222.049 67.5876C221.823 67.7996 221.528 67.9696 221.335 68.1946C221.273 68.2676 221.133 68.2687 221.063 68.3317C220.926 68.4537 220.731 68.5146 220.568 68.5936C220.338 68.7046 220.102 68.8526 219.86 68.9326" stroke="black" stroke-width="0.5" stroke-linecap="round"/>
<path d="M218.927 65.7146C219.114 66.0626 219.279 66.3776 219.596 66.6236C219.762 66.7526 219.82 66.9296 219.95 67.0846C220.157 67.3316 220.478 67.5136 220.642 67.7826C220.737 67.9396 220.814 68.0896 220.919 68.2376C221.029 68.3916 221.048 68.5726 221.093 68.7526" stroke="black" stroke-width="0.5" stroke-linecap="round"/>
<path d="M219.679 64.9927C219.884 65.3867 220.121 65.7906 220.384 66.1486C220.482 66.2816 220.542 66.4427 220.637 66.5797C220.849 66.8877 221.1 67.1646 221.364 67.4286C221.485 67.5496 221.512 67.7167 221.591 67.8687C221.68 68.0387 221.76 68.2217 221.845 68.3917" stroke="black" stroke-width="0.5" stroke-linecap="round"/>
<path d="M208.014 63.8997C207.899 64.1047 207.676 64.1717 207.622 64.4147C207.594 64.5407 207.677 64.7897 207.735 64.9067C207.827 65.0897 207.8 65.3276 207.881 65.5156C207.905 65.5726 207.889 65.6397 207.918 65.6937C207.953 65.7587 207.983 65.7616 207.986 65.8436C207.991 65.9656 208.031 66.1026 208.04 66.2286C208.057 66.4566 208.003 66.6926 208.083 66.9086C208.175 67.1526 208.563 67.1656 208.772 67.1996C208.808 67.2056 208.943 67.2506 208.977 67.2086C209.058 67.1056 209.106 66.9827 209.196 66.8837C209.276 66.7977 209.449 66.7366 209.464 66.6096C209.505 66.2666 209.637 65.9076 209.72 65.5706C209.756 65.4236 209.853 65.3006 209.921 65.1686C209.977 65.0576 210.036 64.9086 210.116 64.8126C210.204 64.7066 210.383 64.4256 210.549 64.4026C210.633 64.3906 210.645 64.3336 210.71 64.4286C210.791 64.5446 210.8 64.6937 210.8 64.8297C210.8 64.9307 210.783 65.0046 210.766 65.1006C210.723 65.3406 210.691 65.6297 210.594 65.8547C210.537 65.9867 210.578 66.1796 210.577 66.3206C210.575 66.5606 210.498 66.7826 210.494 67.0226C210.491 67.1726 210.455 67.3857 210.41 67.5217" stroke="black" stroke-width="0.5" stroke-linecap="round"/>
<path d="M207.456 65.9336C208.04 65.9916 208.611 66.1506 209.202 66.1556C209.65 66.1606 210.098 66.2326 210.549 66.2676" stroke="black" stroke-width="0.5" stroke-linecap="round"/>
<path d="M212.249 66.6016C212.229 66.7096 212.125 66.8386 212.074 66.9326C211.945 67.1726 211.775 67.3476 211.775 67.6276C211.775 67.7496 211.77 67.8726 211.775 67.9946C211.778 68.0656 211.906 68.0866 211.955 68.1066C212.115 68.1706 212.229 68.2456 212.4 68.2456C212.775 68.2456 213.15 68.2526 213.518 68.3296C213.693 68.3656 213.809 68.6126 213.809 68.7846C213.809 69.0706 213.741 69.2006 213.583 69.4186C213.511 69.5186 213.471 69.6376 213.407 69.7376C213.378 69.7836 213.385 69.8176 213.348 69.8616C213.28 69.9426 213.201 70.0686 213.168 70.1686" stroke="black" stroke-width="0.5" stroke-linecap="round"/>
<path d="M211.831 67.1316C211.928 67.2696 211.971 67.4326 212.082 67.5646C212.265 67.7856 212.462 68.0416 212.704 68.2006C212.803 68.2656 212.857 68.3496 212.935 68.4266C212.975 68.4676 213.037 68.4916 213.085 68.5216C213.292 68.6496 213.484 68.8016 213.692 68.9296C213.758 68.9716 213.893 68.9856 213.893 69.0816" stroke="black" stroke-width="0.5" stroke-linecap="round"/>
<path d="M208.009 59.6636C208.131 59.6636 208.252 59.6636 208.374 59.6636C208.423 59.6636 208.446 59.6426 208.484 59.6136C208.647 59.4886 208.817 59.3616 209.014 59.2966C209.359 59.1836 209.648 58.9027 209.938 58.6857C210.087 58.5737 210.183 58.4016 210.339 58.3076" stroke="black" stroke-width="0.5" stroke-linecap="round"/>
<path d="M212.635 61.7166C212.794 61.7166 212.941 61.7275 213.099 61.7485C213.242 61.7675 213.354 61.6635 213.482 61.6115C213.712 61.5185 213.91 61.1745 214.054 60.9915C214.138 60.8835 214.215 60.7645 214.243 60.6295C214.26 60.5475 214.259 60.4635 214.305 60.3945" stroke="black" stroke-width="0.5" stroke-linecap="round"/>
<path d="M216.079 63.4556C216.387 63.4936 216.73 63.4886 217.053 63.4706C217.201 63.4626 217.512 62.9716 217.436 62.9336" stroke="black" stroke-width="0.5" stroke-linecap="round"/>
<path d="M240.397 51.6427C239.796 51.8197 239.089 51.9147 238.46 51.9817C238.043 52.0257 237.633 52.1137 237.214 52.1457C237.034 52.1597 236.674 52.1407 236.539 52.2887C236.117 52.7527 235.655 53.1537 235.137 53.5137C234.926 53.6607 234.609 53.7757 234.422 53.9497C234.363 54.0047 234.327 54.1577 234.285 54.2287C234.048 54.6317 233.682 55.1317 233.682 55.6157C233.682 56.0657 234.141 56.6656 234.372 57.0236C234.665 57.4786 234.89 57.5447 235.423 57.6237C236.859 57.8367 238.232 58.3067 239.645 58.6247C239.936 58.6907 240.332 58.6167 240.612 58.5907C242.193 58.4437 243.692 58.0677 245.213 57.6337C245.991 57.4107 246.825 57.2637 247.579 56.9617C247.701 56.9127 247.779 56.7807 247.862 56.6847C248.392 56.0727 249.449 55.3707 249.562 54.5147C249.613 54.1277 249.749 52.9977 249.382 52.7177C248.249 51.8557 246.756 51.6047 245.4 51.3437C244.663 51.2027 244.058 51.0906 243.307 51.1666C242.305 51.2686 241.294 51.6427 240.285 51.6427" stroke="black" stroke-width="0.5" stroke-linecap="round"/>
<path d="M233.549 55.4556C233.58 54.6076 233.909 53.6786 234.088 52.8546C234.304 51.8566 234.401 50.8816 234.502 49.8696C234.835 46.5376 235.041 43.2206 235.041 39.8636C235.041 35.3776 235.414 30.9346 235.414 26.4486" stroke="black" stroke-width="0.5" stroke-linecap="round"/>
<path d="M249.685 53.8705C249.481 53.2825 249.592 52.5505 249.592 51.9325C249.592 51.2885 249.592 50.6435 249.592 49.9995C249.592 47.0165 249.375 43.9355 249.664 40.9675C250.196 35.5125 250.058 29.9795 250.058 24.4895" stroke="black" stroke-width="0.5" stroke-linecap="round"/>
<path d="M235.496 23.9236C235.496 24.3806 235.455 24.8296 235.455 25.2876C235.455 25.6586 235.497 25.9746 235.332 26.3046" stroke="black" stroke-width="0.5" stroke-linecap="round"/>
<path d="M235.209 23.8816C235.458 24.4116 235.869 25.0126 236.363 25.3376C236.662 25.5336 237.024 25.6696 237.346 25.8256C237.749 26.0206 238.113 26.1936 238.571 26.2816C239.321 26.4266 240.069 26.3856 240.816 26.4866C241.589 26.5926 242.323 26.7716 243.113 26.7926C244.122 26.8206 245.313 26.8916 246.313 26.6076C246.689 26.5016 247.007 26.2996 247.353 26.1266C247.557 26.0246 247.583 25.9846 247.722 25.8396C247.894 25.6616 248.15 25.5566 248.37 25.4606C248.543 25.3846 248.718 25.3176 248.877 25.2146C248.934 25.1766 248.972 25.1046 249.027 25.0726C249.366 24.8796 249.524 24.4516 249.826 24.2106" stroke="black" stroke-width="0.5" stroke-linecap="round"/>
<path d="M235.387 23.8365C235.415 23.7425 235.571 23.6595 235.639 23.6035C235.803 23.4665 235.957 23.3305 236.15 23.2365C236.206 23.2085 236.205 23.1705 236.248 23.1315C236.406 22.9895 236.589 22.8675 236.767 22.7525C237.003 22.6005 237.23 22.4425 237.453 22.2735C237.498 22.2385 237.498 22.2275 237.559 22.2225C237.78 22.2075 237.969 22.1195 238.166 22.0245C238.629 21.8015 239.103 21.6255 239.602 21.4975C240.349 21.3065 241.094 21.3485 241.85 21.2595C242.459 21.1885 243.02 21.1195 243.638 21.1435C244.804 21.1875 245.966 21.2045 247.132 21.2095C247.71 21.2125 248.279 21.3165 248.858 21.3225C249.156 21.3255 249.275 21.6115 249.517 21.7855C249.684 21.9045 249.976 22.0545 250.076 22.2395C250.154 22.3835 250.198 22.5445 250.314 22.6645C250.4 22.7555 250.432 22.8595 250.434 22.9855C250.437 23.1015 250.575 23.7405 250.434 23.8285C250.297 23.9145 250.172 24.1365 250.097 24.2865" stroke="black" stroke-width="0.5" stroke-linecap="round"/>
<path d="M235.545 26.6486C235.887 26.7396 236.229 27.0116 236.552 27.1656C236.922 27.3426 237.306 27.4786 237.704 27.6196C238.474 27.8936 239.255 28.0016 240.069 28.0616C241.264 28.1506 242.453 28.1506 243.653 28.1506C243.948 28.1506 244.243 28.1506 244.538 28.1506C244.871 28.1506 245.205 28.1577 245.537 28.1177C245.801 28.0857 246.052 27.9806 246.313 27.9506C246.48 27.9316 246.66 27.9506 246.828 27.9506C247.099 27.9506 247.402 27.7827 247.685 27.7557C248.147 27.7117 248.519 27.6157 248.917 27.4387C249.151 27.3347 249.178 27.1056 249.343 26.9766C249.525 26.8346 249.819 26.6027 249.819 26.3477" stroke="black" stroke-width="0.25" stroke-linecap="round"/>
<path d="M235.305 27.7026C235.334 27.8416 235.484 27.9616 235.581 28.0516C235.769 28.2246 235.981 28.4186 236.206 28.5446C236.432 28.6716 236.677 28.7577 236.905 28.8787C237.296 29.0857 237.812 29.0707 238.238 29.1317C238.592 29.1827 238.937 29.2637 239.295 29.2767C239.754 29.2937 240.215 29.2806 240.674 29.2806C241.329 29.2806 241.982 29.3016 242.636 29.3016C243.134 29.3016 243.654 29.2567 244.149 29.3217C244.544 29.3737 244.956 29.3417 245.354 29.3417C245.555 29.3417 245.755 29.3437 245.956 29.3417C246.428 29.3367 246.881 29.2406 247.343 29.1556C247.77 29.0766 248.232 29.1096 248.647 28.9816C248.739 28.9536 248.804 28.8927 248.87 28.8267C248.956 28.7407 249.125 28.7277 249.189 28.6337C249.23 28.5747 249.268 28.5107 249.31 28.4517C249.466 28.2337 249.765 28.0137 249.832 27.7437" stroke="black" stroke-width="0.25" stroke-linecap="round"/>
<path d="M235.365 29.1396C235.412 29.2796 235.543 29.4397 235.651 29.5347C235.781 29.6507 235.899 29.7706 236.024 29.8906C236.177 30.0376 236.417 30.1447 236.606 30.2407C236.827 30.3537 237.056 30.4827 237.287 30.5717C237.837 30.7817 238.444 30.7786 239.018 30.8726C239.246 30.9096 239.473 30.9636 239.702 30.9896C240.226 31.0496 240.752 31.0656 241.28 31.0776C241.74 31.0876 242.186 31.1737 242.647 31.1807C243.248 31.1897 243.851 31.1916 244.452 31.1816C244.896 31.1746 245.347 31.1707 245.787 31.1127C246.019 31.0817 246.234 31.0237 246.46 30.9697C246.901 30.8647 247.358 30.8236 247.804 30.7416C247.996 30.7056 248.103 30.6356 248.266 30.5306C248.496 30.3846 248.741 30.2606 248.976 30.1226C249.139 30.0286 249.278 29.9017 249.427 29.7897C249.594 29.6647 249.898 29.5337 249.994 29.3417" stroke="black" stroke-width="0.25" stroke-linecap="round"/>
<path d="M235.5 30.9885C235.672 31.1575 235.842 31.3375 236.043 31.4745C236.128 31.5325 236.242 31.5605 236.313 31.6345C236.434 31.7585 236.589 31.8345 236.751 31.8905C236.828 31.9175 236.935 31.9075 237.006 31.9415C237.089 31.9815 237.156 32.0635 237.241 32.1065C237.496 32.2365 237.805 32.2486 238.084 32.2686C238.248 32.2796 238.557 32.2225 238.71 32.3095C238.961 32.4505 239.204 32.5155 239.492 32.5565C240.391 32.6815 241.292 32.5885 242.188 32.6765C242.277 32.6855 242.33 32.7665 242.426 32.7735C243.367 32.8465 244.347 32.8095 245.301 32.8095C245.931 32.8095 246.605 32.7785 247.196 32.5365C247.453 32.4315 247.803 32.4175 248.079 32.3815C248.214 32.3635 248.302 32.2505 248.425 32.2485C248.632 32.2455 248.588 32.2415 248.697 32.1285C248.84 31.9805 249.041 31.9245 249.191 31.7935C249.313 31.6875 249.459 31.6455 249.596 31.5645C249.681 31.5135 249.711 31.3845 249.752 31.3035" stroke="black" stroke-width="0.25" stroke-linecap="round"/>
<path d="M235.36 32.5636C235.784 32.9496 236.169 33.2256 236.699 33.4436C236.964 33.5526 237.257 33.6306 237.535 33.7056C238.233 33.8946 238.96 33.9816 239.669 34.1206C240.364 34.2566 240.985 34.4776 241.706 34.4896C242.111 34.4966 242.515 34.5126 242.92 34.5246C243.255 34.5346 243.588 34.6146 243.925 34.6256C244.362 34.6406 244.788 34.5626 245.223 34.5596C245.652 34.5566 246.078 34.6246 246.507 34.5676C247.119 34.4856 247.637 34.2246 248.215 34.0536C248.472 33.9786 248.728 33.8926 248.979 33.8046C249.145 33.7476 249.21 33.5976 249.304 33.4826C249.411 33.3526 249.533 33.2976 249.577 33.1246" stroke="black" stroke-width="0.25" stroke-linecap="round"/>
<path d="M235.045 33.8596C235.545 34.6846 236.196 35.3526 237.121 35.6456C237.616 35.8016 238.111 35.8497 238.621 35.9257C239.181 36.0087 239.726 36.1587 240.293 36.2197C240.784 36.2717 241.278 36.2697 241.768 36.3187C242.427 36.3837 243.068 36.4476 243.733 36.4506C244.048 36.4516 244.363 36.4506 244.678 36.4506C245.078 36.4506 245.549 36.5127 245.935 36.3887C246.022 36.3607 246.147 36.3807 246.233 36.3807C246.723 36.3807 247.249 36.4346 247.736 36.3636C248.14 36.3036 248.532 36.2256 248.931 36.1296C249.125 36.0836 249.272 35.8597 249.452 35.7697C249.617 35.6877 249.592 35.6046 249.682 35.4706" stroke="black" stroke-width="0.25" stroke-linecap="round"/>
<path d="M249.577 33.3696C249.577 32.9186 249.752 32.4816 249.822 32.0386" stroke="black" stroke-width="0.25" stroke-linecap="round"/>
<path d="M235.22 35.9956C235.74 36.4976 236.351 36.6706 237.041 36.8166C237.601 36.9346 238.171 37.0016 238.737 37.0786C238.916 37.1036 239.062 37.1676 239.255 37.1786C240.002 37.2206 240.746 37.2536 241.496 37.2836C243.197 37.3506 244.901 37.3616 246.604 37.3616C247.387 37.3616 248.157 37.4076 248.923 37.2366C249.133 37.1896 249.31 37.0776 249.512 37.0016C249.677 36.9396 249.674 36.9526 249.752 36.8356" stroke="black" stroke-width="0.25" stroke-linecap="round"/>
<path d="M235.029 37.2695C235.184 37.5845 235.313 37.9315 235.606 38.1475C235.827 38.3105 236.105 38.3805 236.316 38.5535C236.632 38.8115 237.399 38.9505 237.815 39.0445C240.165 39.5735 242.719 39.6085 245.126 39.6085C246.043 39.6085 247.006 39.6595 247.915 39.5385C248.117 39.5125 248.341 39.4046 248.549 39.3806C248.845 39.3456 249.108 38.9565 249.29 38.7535C249.396 38.6355 249.414 38.4695 249.518 38.3535C249.667 38.1895 249.79 38.0245 249.918 37.8405" stroke="black" stroke-width="0.25" stroke-linecap="round"/>
<path d="M235.143 39.3806C235.357 39.6646 235.382 39.9586 235.701 40.1726C236.046 40.4046 236.421 40.5866 236.766 40.8196C237.215 41.1216 237.781 41.1726 238.268 41.3516C238.799 41.5476 239.479 41.5286 240.033 41.5416C241.129 41.5686 242.227 41.5486 243.323 41.5486C243.587 41.5486 243.832 41.6406 244.096 41.6556C244.669 41.6896 245.249 41.6626 245.823 41.6626C246.423 41.6626 246.996 41.6146 247.585 41.5036C247.832 41.4576 247.968 41.3126 248.197 41.2246C248.715 41.0256 249.187 40.7806 249.404 40.2366" stroke="black" stroke-width="0.25" stroke-linecap="round"/>
<path d="M249.404 41.3196C249.361 41.4976 249.308 41.7646 249.195 41.9156C248.668 42.6236 248.177 42.7086 247.332 42.8316C246.824 42.9056 246.325 43.0306 245.817 43.1016C244.799 43.2426 243.744 43.2556 242.717 43.2596C242.149 43.2616 241.581 43.2596 241.012 43.2596C240.406 43.2596 239.592 43.3996 239.016 43.1736C238.841 43.1056 238.774 43.0886 238.56 43.0886C238.403 43.0886 237.963 43.1726 237.828 43.0596C237.598 42.8686 237.232 43.0216 236.956 42.9296C236.251 42.6946 235.625 42.1926 235.257 41.5486" stroke="black" stroke-width="0.25" stroke-linecap="round"/>
<path d="M235.029 43.2595C235.387 43.4385 235.737 43.6995 236.063 43.9315C236.252 44.0665 236.546 44.3045 236.776 44.3405C237.605 44.4675 238.428 44.6285 239.279 44.6285C240.519 44.6285 241.767 44.7816 243.009 44.7296C243.468 44.7106 243.918 44.6915 244.378 44.6855C244.826 44.6795 245.262 44.5715 245.709 44.5715C246.457 44.5715 247.207 44.4575 247.943 44.4575C248.396 44.4575 249.052 44.0555 249.29 43.6585" stroke="black" stroke-width="0.25" stroke-linecap="round"/>
<path d="M235.029 44.5715C236.1 45.2565 237.305 45.5575 238.557 45.6835C239.294 45.7585 239.964 46.0025 240.677 46.1375C241.819 46.3535 243.061 46.2255 244.213 46.2255C244.836 46.2255 245.472 46.0006 246.083 45.9276C246.791 45.8436 247.5 45.5805 248.206 45.5415C248.343 45.5335 248.462 45.3825 248.574 45.3005C248.892 45.0665 249.282 44.8155 249.461 44.4575" stroke="black" stroke-width="0.25" stroke-linecap="round"/>
<path d="M234.858 45.9976C235.281 46.2456 235.734 46.5656 236.17 46.7836C236.487 46.9416 236.867 46.9056 237.203 46.9796C237.515 47.0496 237.792 47.2706 238.116 47.3416C238.679 47.4646 239.192 47.5526 239.754 47.6236C240.391 47.7026 241.058 47.6516 241.697 47.6516C242.428 47.6516 243.167 47.6896 243.896 47.6396C244.47 47.5996 245.038 47.5376 245.614 47.5376C246.065 47.5376 246.5 47.3576 246.942 47.2846C247.829 47.1366 248.703 46.9276 249.347 46.2826" stroke="black" stroke-width="0.25" stroke-linecap="round"/>
<path d="M234.801 47.7656C235.042 47.8496 235.235 48.0036 235.457 48.1016C236.074 48.3766 236.574 48.6897 237.273 48.7927C237.734 48.8607 238.177 48.9696 238.648 49.0496C238.762 49.0686 239.249 49.0646 239.308 49.1666C239.356 49.2506 239.439 49.2976 239.536 49.3066C240.276 49.3736 241.013 49.3636 241.757 49.3636C242.886 49.3636 244.04 49.4396 245.164 49.3376C246.386 49.2266 247.633 49.2046 248.805 48.7996C249.051 48.7136 249.058 48.5386 249.233 48.4506" stroke="black" stroke-width="0.25" stroke-linecap="round"/>
<path d="M240.437 22.3506C240.122 22.4136 239.822 22.4346 239.57 22.6426C239.528 22.6776 239.476 22.6646 239.436 22.6916C239.342 22.7566 239.21 22.7776 239.108 22.8316C238.971 22.9036 239.001 23.1566 239.02 23.2786C239.036 23.3836 239.124 23.4706 239.149 23.5736C239.205 23.8046 239.227 24.0486 239.278 24.2816C239.301 24.3886 239.257 24.4696 239.343 24.3766C239.478 24.2286 239.636 24.1126 239.792 23.9886C239.862 23.9326 239.924 23.8466 240.006 23.8086C240.114 23.7586 240.224 23.7106 240.333 23.6626C240.373 23.6456 240.429 23.6536 240.471 23.6496C240.585 23.6416 240.697 23.6226 240.81 23.6056C240.91 23.5896 241.053 23.6096 241.151 23.6356C241.178 23.6426 241.192 23.6816 241.205 23.7026C241.241 23.7596 241.297 23.7856 241.342 23.8306C241.431 23.9196 241.395 24.1406 241.395 24.2526C241.397 24.4136 241.403 24.5736 241.362 24.7306C241.325 24.8776 241.25 24.9826 241.189 25.1106C241.152 25.1886 241.161 25.2376 241.08 25.2736C240.978 25.3206 240.814 25.3006 240.703 25.3176C240.627 25.3286 240.54 25.3596 240.466 25.3596C240.326 25.3596 240.197 25.4176 240.054 25.4176" stroke="black" stroke-width="0.25" stroke-linecap="round"/>
<path d="M242.909 24.5935C242.662 24.5145 242.45 24.4085 242.304 24.2055C242.203 24.0665 242.162 23.8835 242.039 23.7605C242 23.7225 241.985 23.6675 241.966 23.6185C241.927 23.5165 241.876 23.4205 241.837 23.3195C241.751 23.0965 241.721 22.8145 241.798 22.5835C241.833 22.4785 241.843 22.4325 241.951 22.3965C242.074 22.3555 242.216 22.3125 242.347 22.3125C242.429 22.3125 242.508 22.3495 242.588 22.3655C242.913 22.4335 243.157 22.8155 243.286 23.0945C243.414 23.3705 243.523 23.5965 243.523 23.9085C243.523 24.0995 243.501 24.2555 243.335 24.3635C243.234 24.4295 243.107 24.5165 242.986 24.5165" stroke="black" stroke-width="0.25" stroke-linecap="round"/>
<path d="M245.133 23.7507C245.002 23.7507 244.883 23.6787 244.753 23.6737C244.645 23.6687 244.547 23.5636 244.476 23.4846C244.356 23.3516 244.273 23.1797 244.174 23.0307C244.106 22.9277 244.031 22.8117 243.993 22.6937C243.952 22.5637 243.983 22.3757 243.983 22.2447C243.983 22.1107 244.102 21.8507 244.27 21.9257C244.312 21.9437 244.344 21.9657 244.385 21.9867C244.424 22.0067 244.467 22.0187 244.506 22.0357C244.544 22.0527 244.557 22.0906 244.596 22.1016C244.662 22.1206 244.724 22.1937 244.783 22.2277C244.872 22.2797 245.014 22.3217 245.079 22.4067C245.219 22.5867 245.35 22.7976 245.43 23.0106C245.526 23.2696 245.585 23.6927 245.209 23.6927" stroke="black" stroke-width="0.25" stroke-linecap="round"/>
<path d="M244.615 25.4555C244.18 25.4895 243.747 25.6145 243.314 25.6725C243.161 25.6935 242.999 25.7055 242.846 25.7195C242.317 25.7685 241.786 25.7655 241.256 25.7805C241.06 25.7865 240.864 25.7815 240.668 25.7815C240.409 25.7815 240.15 25.7865 239.891 25.7805C239.721 25.7765 239.603 25.6525 239.449 25.5945C239.347 25.5555 239.208 25.5545 239.121 25.4855C239.008 25.3965 238.9 25.2945 238.793 25.1985C238.623 25.0435 238.587 24.8355 238.453 24.6605C238.401 24.5915 238.406 24.5175 238.406 24.4335C238.406 24.2775 238.406 24.1215 238.406 23.9655C238.406 23.6915 238.396 23.4225 238.44 23.1515C238.489 22.8435 238.553 22.5365 238.627 22.2335C238.648 22.1465 238.648 22.1565 238.731 22.0865C239.046 21.8225 239.379 21.5905 239.726 21.3705C239.846 21.2935 239.858 21.3075 239.977 21.3165C240.295 21.3375 240.615 21.3355 240.933 21.3355C241.428 21.3355 241.921 21.3165 242.415 21.3165C243.19 21.3165 243.968 21.3355 244.74 21.3355C244.948 21.3355 245.127 21.3345 245.327 21.3835C245.476 21.4195 245.636 21.4175 245.782 21.4595C245.848 21.4785 245.911 21.5315 245.977 21.5555C246.091 21.5975 246.213 21.6265 246.325 21.6715C246.43 21.7145 246.495 21.8505 246.547 21.9435C246.612 22.0615 246.666 22.1875 246.7 22.3195C246.83 22.8195 246.762 23.3905 246.762 23.9035C246.762 24.0665 246.669 24.2065 246.666 24.3695C246.664 24.4695 246.675 24.6175 246.636 24.7075C246.616 24.7535 246.577 24.7895 246.539 24.8215C246.384 24.9495 246.22 25.0685 246.057 25.1845C245.798 25.3685 245.541 25.4925 245.218 25.5285C245.14 25.5365 245.098 25.5745 245.024 25.6025C244.888 25.6545 244.758 25.6855 244.613 25.6855C244.521 25.6855 244.43 25.6855 244.338 25.6855C244.186 25.6855 244.044 25.7435 243.891 25.7435C243.756 25.7435 243.62 25.7435 243.484 25.7435" stroke="black" stroke-width="0.25" stroke-linecap="round"/>
<path d="M246.574 24.1436C246.695 24.2646 246.835 24.3655 246.998 24.4245C247.448 24.5875 247.835 24.9425 248.259 25.1545" stroke="black" stroke-width="0.5" stroke-linecap="round"/>
<path d="M246.967 23.1326C247.091 23.1326 247.204 23.1936 247.329 23.2136C247.715 23.2736 248.102 23.3226 248.49 23.3696C248.732 23.3986 249.133 23.3736 249.355 23.4976C249.521 23.5896 249.669 23.6406 249.833 23.7506" stroke="black" stroke-width="0.5" stroke-linecap="round"/>
<path d="M246.798 22.4576C247.368 22.4576 247.89 22.4017 248.453 22.4017C248.981 22.4017 249.467 22.1646 249.945 21.9526" stroke="black" stroke-width="0.5" stroke-linecap="round"/>
<path d="M246.517 21.9526C246.713 21.7566 246.937 21.8036 247.136 21.6716" stroke="black" stroke-width="0.5" stroke-linecap="round"/>
<path d="M235.954 23.6376C236.323 23.6236 236.649 23.5256 237.024 23.5256C237.37 23.5256 237.697 23.4696 238.033 23.4696" stroke="black" stroke-width="0.5" stroke-linecap="round"/>
<path d="M236.347 24.8746C236.529 24.8746 236.71 24.8026 236.865 24.7056C237.032 24.6016 237.117 24.6336 237.29 24.5806C237.587 24.4896 237.947 24.5365 238.257 24.5365" stroke="black" stroke-width="0.5" stroke-linecap="round"/>
<path d="M237.359 22.5706C237.741 22.5706 238.182 22.7146 238.538 22.8516" stroke="black" stroke-width="0.5" stroke-linecap="round"/>
<path d="M238.37 26.3917C238.245 26.3757 238.972 25.2437 238.988 25.2117" stroke="black" stroke-width="0.5" stroke-linecap="round"/>
<path d="M241.91 26.5036C241.91 26.3506 241.902 26.2376 241.966 26.1106" stroke="black" stroke-width="0.5" stroke-linecap="round"/>
<path d="M240.056 26.4476C240.071 26.3036 240.27 26.1316 240.336 25.9976" stroke="black" stroke-width="0.5" stroke-linecap="round"/>
<path d="M243.596 26.9526C243.626 26.6536 243.693 26.1957 243.82 25.9417" stroke="black" stroke-width="0.5" stroke-linecap="round"/>
<path d="M245.955 26.5596C245.955 26.2976 245.721 25.7946 245.562 25.6046" stroke="black" stroke-width="0.5" stroke-linecap="round"/>
<path d="M247.36 26.1666C246.935 26.1196 246.819 25.5246 246.517 25.3236" stroke="black" stroke-width="0.5" stroke-linecap="round"/>
<path d="M279.73 91.8036C279.969 91.9226 283.448 86.0496 283.629 85.7776C285.946 82.2866 288.541 79.0156 290.46 75.2776C291.788 72.6886 292.651 70.1976 293.477 67.4296C294.065 65.4586 295.017 63.6006 295.68 61.6486C295.958 60.8326 296.335 59.1866 297.087 58.6656C297.199 58.5886 297.374 58.7126 297.46 58.7506C298.596 59.2496 299.753 59.6386 300.952 59.9626C304.146 60.8256 307.338 61.4556 310.588 61.9796C311.666 62.1536 312.68 62.5726 313.766 62.7336C316.508 63.1416 319.199 63.2886 321.97 63.3526C323.957 63.3986 328.257 62.8876 329.547 65.1066C330.142 66.1296 328.402 67.7706 327.869 68.3956C326.969 69.4516 325.988 70.4516 324.971 71.3956C324.648 71.6946 324.21 71.9806 323.953 72.3446C323.676 72.7396 323.668 73.3636 323.428 73.8026C321.962 76.4786 319.471 78.6906 317.411 80.9046C316.438 81.9496 315.444 82.9736 314.495 84.0406C314.227 84.3416 313.618 84.8816 313.461 85.3116C313.14 86.1956 312.455 86.9346 311.91 87.7016C311.178 88.7316 309.713 90.1286 309.444 91.3966C309.239 92.3646 308.872 93.3736 308.724 94.3376C308.649 94.8236 308.605 95.3166 308.529 95.8036C308.441 96.3686 307.038 96.0756 306.69 96.0756C304.735 96.0756 302.804 96.1316 300.867 95.8376C299.922 95.6946 299.06 95.4136 298.087 95.3206C294.784 95.0066 291.436 95.3536 288.154 94.7696C287.372 94.6306 286.853 94.5496 286.019 94.5496C284.851 94.5496 284.263 94.4906 283.205 94.1256C282.64 93.9306 282.082 93.8076 281.484 93.7106C280.133 93.4906 278.34 93.8426 277.077 93.3376C276.954 93.2886 277.35 93.2726 277.442 93.1766C277.906 92.6866 278.191 92.0086 278.671 91.4896C279.433 90.6666 280.17 89.8846 281.069 89.2106C281.325 89.0186 281.408 88.7526 281.408 88.4476" stroke="black" stroke-width="0.5" stroke-linecap="round"/>
<path d="M301.698 91.3455C300.703 91.3455 299.709 91.3525 298.714 91.3455C297.775 91.3395 296.907 91.2435 295.994 91.0155C295.11 90.7945 294.256 90.3275 293.384 90.1335C293.023 90.0535 292.68 90.1255 292.307 90.0155C291.391 89.7445 290.341 89.2475 289.375 89.2105C288.769 89.1865 287.063 88.6855 287.663 88.5995C287.873 88.5695 287.974 88.4305 288.129 88.2945C288.512 87.9595 288.99 88.0205 289.46 87.9135C290.948 87.5755 292.731 87.8375 294.24 87.8375C296.279 87.8375 298.319 87.8375 300.359 87.8375C301.708 87.8375 302.666 87.7135 303.935 87.4475C304.524 87.3235 304.412 87.2285 303.867 86.9985C303.192 86.7135 302.429 86.4215 301.715 86.2525C300.829 86.0425 299.939 86.0865 299.104 85.7355C298.868 85.6355 298.539 85.7135 298.291 85.6765C297.608 85.5735 296.968 85.2785 296.274 85.2435C295.457 85.2035 293.824 85.5655 293.163 85.0145C292.894 84.7905 292.103 84.9385 291.79 84.9385C290.749 84.9385 289.758 84.3625 288.731 84.1755" stroke="black" stroke-linecap="round"/>
<path d="M296.053 74.5657C295.941 75.5707 295.2 76.5377 294.977 77.5397C294.822 78.2377 293.708 78.5677 293.494 79.2097C293.35 79.6397 293.009 79.8376 292.85 80.2776C292.734 80.5966 292.544 80.6786 292.544 81.0486C292.544 81.8286 292.034 82.0336 293.121 82.0406C295.467 82.0546 297.81 82.0596 300.155 82.1246C301.767 82.1706 303.404 82.1396 304.977 82.4896C305.217 82.5426 305.513 82.4937 305.359 82.8027" stroke="black" stroke-linecap="round"/>
<path d="M297.426 82.0406C297.839 80.0196 298.611 78.1797 299.257 76.2437" stroke="black" stroke-linecap="round"/>
<path d="M299.409 68.4636C299.801 68.8546 300.316 68.8357 300.85 68.9207C301.895 69.0867 303.011 69.3577 304.071 69.3787C304.832 69.3937 305.859 69.7646 306.596 69.9886C306.9 70.0806 307.073 70.2907 307.342 70.4127C307.929 70.6797 308.674 70.5327 309.291 70.7177C309.708 70.8427 309.938 71.2097 310.393 71.2097" stroke="black" stroke-linecap="round"/>
<path d="M297.121 72.2767C297.482 70.9247 298.626 69.9327 299.426 68.8187C299.881 68.1857 300.249 67.5126 300.689 66.8696C300.984 66.4376 301.107 65.9156 301.359 65.4626C301.952 64.3946 302.857 63.6537 303.376 62.5137" stroke="black" stroke-linecap="round"/>
<path d="M393.571 17.8776C394.282 20.8496 394.255 23.7296 394.585 26.7406C394.846 29.1186 395.111 31.3896 395.54 33.7696C395.822 35.3296 395.674 36.9246 395.779 38.4996C395.941 40.9216 396.527 43.3296 396.913 45.7216C397.512 49.4266 398.381 53.0656 398.883 56.7936C399.483 61.2456 399.992 65.7436 401.121 70.1196C401.445 71.3736 402.307 72.5126 402.792 73.7156C403.449 75.3426 404.178 76.9626 404.777 78.6096C406.018 82.0216 405.919 86.2816 406.195 89.8616" stroke="black" stroke-width="2" stroke-linecap="round"/>
<path d="M48.821 45.5696C44.647 45.5696 41.724 46.3856 38.361 49.0006C34.876 51.7116 28.789 52.4666 24.913 54.7566C22.954 55.9136 21.443 59.9306 19.71 61.7296C18.313 63.1806 16.948 65.1806 15.947 66.9326C14.697 69.1196 13.356 72.2636 11.741 74.2376C8.996 77.5926 9.341 83.5496 6.926 87.5756C3.286 93.6426 4.753 103.481 3.993 110.322C2.808 120.986 4.912 134.006 2 144.196" stroke="black" stroke-width="3" stroke-linecap="round"/>
<path d="M15.947 139.216C15.947 120.216 25.876 104.468 35.871 89.1807C36.627 88.0247 40.489 79.4637 40.797 82.5397C41.557 90.1397 43.841 98.1997 43.841 105.784C43.841 119.986 44.837 134.426 44.837 148.736C44.837 156.566 43.457 165.956 45.833 173.086" stroke="black" stroke-width="3" stroke-linecap="round"/>
<path d="M99.628 138.216C99.628 132.706 97.17 127.026 96.694 121.556C96.232 116.236 95.929 109.7 96.694 104.345C97.263 100.367 96.639 97.3046 96.639 93.8846C96.639 89.2396 97.635 84.4556 97.635 79.5506C97.635 79.0936 97.421 72.3335 98.797 73.2965C103.214 76.3885 105.01 83.9355 108.261 88.2945C113.261 94.9995 115.409 103.913 119.33 111.319C122.151 116.646 125.377 122.026 128.517 127.256" stroke="black" stroke-width="3" stroke-linecap="round"/>
<path d="M391.426 104.119C391.426 110.323 392.576 117.746 391.315 123.736C390.778 126.286 390.93 128.866 390.93 131.496C390.93 134.426 390.638 137.266 390.461 140.176C390.297 142.886 391.019 147.076 389.938 149.236" stroke="black" stroke-width="3" stroke-linecap="round"/>
<path d="M141.52 91.2266C141.52 96.6026 142.655 101.835 143.393 107.149C144.45 114.756 144.594 122.576 145.376 130.236C145.627 132.686 145.487 135.206 145.487 137.666C145.487 142.066 146.478 146.336 146.478 150.726" stroke="black" stroke-width="3" stroke-linecap="round"/>
</svg>
