<svg width="42" height="76" viewBox="0 0 42 76" fill="none" xmlns="http://www.w3.org/2000/svg">
<mask id="mask0_107_295" style="mask-type:luminance" maskUnits="userSpaceOnUse" x="0" y="0" width="42" height="76">
<path d="M0.420166 0H41.4967V76H0.420166V0Z" fill="white"/>
</mask>
<g mask="url(#mask0_107_295)">
<path d="M13.4179 0.160309C6.22964 0.160309 0.412354 6.97248 0.412354 15.3916V60.6697C0.412354 69.0888 6.22964 75.9075 13.4179 75.9075C20.6062 75.9075 26.4358 69.0888 26.4358 60.6697V15.3916C26.4358 6.97248 20.6062 0.160309 13.4179 0.160309ZM13.4179 2.77336C19.4091 2.77336 24.2031 8.3748 24.2031 15.3916V60.6697C24.2031 67.6865 19.4091 73.2944 13.4179 73.2944C7.42676 73.2944 2.64497 67.6865 2.64497 60.6697V15.3916C2.64497 8.3748 7.42676 2.77336 13.4179 2.77336ZM34.7966 12.0526L30.4774 17.1106C29.2569 18.3291 31.0013 20.3792 32.048 18.9495L34.6105 15.9481V60.0988L32.048 57.0974C31.8373 56.8446 31.5486 56.7038 31.2532 56.7038C30.2489 56.7038 29.7496 58.1335 30.4774 58.9507L34.742 63.9448C35.4097 64.7632 36.3426 64.4452 36.7038 63.9526L40.974 58.9507C41.7018 58.1192 41.1846 56.6752 40.1681 56.7038C39.8738 56.7104 39.603 56.8511 39.3979 57.0974L36.842 60.0988V15.9481L39.3979 18.9495C40.4445 20.3792 42.1889 18.3291 40.974 17.1106L36.6135 11.9953C36.0841 11.4244 35.3863 11.3684 34.7966 12.0526ZM8.9605 29.7562C7.43902 29.7145 7.43902 32.4122 8.9605 32.3692H17.8809C19.4035 32.4122 19.4035 29.721 17.8809 29.7562H8.9605ZM8.85238 36.7235C7.36657 36.8082 7.46911 39.4212 8.9605 39.3443H17.8809C19.3734 39.3443 19.3734 36.7235 17.8809 36.7235H8.9605C8.92483 36.7235 8.88805 36.7235 8.85238 36.7235ZM8.9605 43.6907C7.50478 43.7259 7.50478 46.2621 8.9605 46.2972H17.8809C19.4035 46.3403 19.4035 43.649 17.8809 43.6907H8.9605Z" fill="black"/>
</g>
</svg>
